M48
;DRILL file {KiCad (5.0.2)-1} date 1/19/2019 4:36:25 PM
;FORMAT={-:-/ absolute / inch / decimal}
FMAT,2
INCH,TZ
T1C0.0236
T2C0.0362
T3C0.0394
T4C0.0906
%
G90
G05
T1
X8.109Y-5.1855
X8.114Y-5.3055
X8.114Y-5.3555
X8.114Y-5.4055
X8.114Y-5.4555
X8.114Y-5.5055
X8.164Y-5.3055
X8.164Y-5.3555
X8.164Y-5.4055
X8.164Y-5.4555
X8.164Y-5.5055
X8.1715Y-4.833
X8.214Y-5.3055
X8.214Y-5.3555
X8.214Y-5.4555
X8.214Y-5.5055
X8.324Y-5.3555
X8.324Y-5.4005
X8.324Y-5.4455
X8.379Y-5.3555
X8.379Y-5.4005
X8.379Y-5.4455
X8.434Y-5.3555
X8.434Y-5.4005
X8.434Y-5.4455
X8.524Y-5.6305
X8.574Y-5.6305
X8.624Y-5.6305
X8.834Y-4.8805
X8.879Y-4.8805
X8.929Y-4.8805
X9.824Y-5.0405
X9.824Y-5.0855
X9.824Y-5.133
T2
X9.924Y-4.2555
X9.924Y-4.3539
X9.924Y-4.4327
X9.924Y-4.5311
X9.924Y-5.0799
X9.924Y-5.1783
X9.924Y-5.2571
X9.924Y-5.3555
T3
X9.6115Y-4.3305
X8.5115Y-4.1305
X9.7115Y-4.4305
X9.2115Y-4.7305
X8.8115Y-4.4305
X9.7115Y-4.7305
X9.7115Y-4.8305
X9.2115Y-4.9305
X9.7115Y-4.6305
X9.3115Y-5.1305
X9.5115Y-4.6305
X9.2115Y-4.3305
X9.6115Y-4.5305
X8.6115Y-4.3305
X8.8115Y-4.3305
X8.6115Y-4.1305
X8.824Y-4.0305
X8.824Y-4.1305
X8.924Y-4.0305
X8.924Y-4.1305
X8.5115Y-4.5305
X9.1115Y-4.7305
X8.4115Y-4.4305
X8.7115Y-4.7305
X9.3115Y-4.8305
X9.5115Y-5.0305
X9.0115Y-4.6305
X9.4115Y-5.0305
X8.6115Y-4.6305
X9.4115Y-4.3305
X9.4115Y-4.5305
X8.4115Y-4.3305
X9.3115Y-4.3305
X8.9115Y-4.2305
X8.8115Y-4.2305
X8.3115Y-4.0305
X8.4115Y-4.0305
X8.5115Y-4.0305
X8.6115Y-4.0305
X8.9115Y-4.6305
X8.6115Y-4.7305
X9.6115Y-4.4305
X9.5115Y-4.8305
X9.3115Y-4.9305
X9.4115Y-4.8305
X9.1115Y-5.0305
X9.2115Y-4.6305
X9.4115Y-5.1305
X9.3115Y-4.6305
X8.6115Y-4.4305
X9.1115Y-4.6305
X9.1115Y-4.3305
X9.7115Y-4.3305
X8.2035Y-3.7886
X8.2035Y-3.8886
X8.3035Y-3.7886
X8.3035Y-3.8886
X8.4035Y-3.7886
X8.4035Y-3.8886
X8.5035Y-3.7886
X8.5035Y-3.8886
X8.6035Y-3.7886
X8.6035Y-3.8886
X8.7035Y-3.7886
X8.7035Y-3.8886
X8.8035Y-3.7886
X8.8035Y-3.8886
X8.9035Y-3.7886
X8.9035Y-3.8886
X9.0035Y-3.7886
X9.0035Y-3.8886
X9.1035Y-3.7886
X9.1035Y-3.8886
X9.2035Y-3.7886
X9.2035Y-3.8886
X9.3035Y-3.7886
X9.3035Y-3.8886
X9.4035Y-3.7886
X9.4035Y-3.8886
X9.5035Y-3.7886
X9.5035Y-3.8886
X9.6035Y-3.7886
X9.6035Y-3.8886
X9.7035Y-3.7886
X9.7035Y-3.8886
X9.8035Y-3.7886
X9.8035Y-3.8886
X9.9035Y-3.7886
X9.9035Y-3.8886
X10.0035Y-3.7886
X10.0035Y-3.8886
X10.1035Y-3.7886
X10.1035Y-3.8886
X9.1115Y-4.5305
X9.0115Y-4.7305
X8.7115Y-4.4305
X8.7115Y-4.6305
X8.9115Y-4.4305
X9.1115Y-4.8305
X9.1115Y-4.9305
X9.2115Y-4.8305
X9.6115Y-4.2305
X9.2115Y-5.1305
X8.4115Y-4.6305
X9.5115Y-4.2305
X8.4115Y-4.5305
X9.5115Y-4.3305
X9.2115Y-4.4305
X8.5115Y-4.2305
X8.6115Y-4.2305
X8.4115Y-4.2305
X9.104Y-4.0305
X9.204Y-4.0305
X9.304Y-4.0305
X9.404Y-4.0305
X9.0115Y-4.5305
X9.789Y-5.6805
X9.789Y-5.7805
X9.889Y-5.6805
X9.889Y-5.7805
X9.989Y-5.6805
X9.989Y-5.7805
X10.089Y-5.6805
X10.089Y-5.7805
X9.6115Y-4.8305
X8.9115Y-4.5305
X9.6115Y-4.7305
X9.0115Y-4.4305
X8.8115Y-4.7305
X9.7115Y-4.9305
X9.3115Y-5.0305
X9.1115Y-5.1305
X9.6115Y-4.6305
X8.7115Y-4.5305
X8.9115Y-4.3305
X8.5115Y-4.4305
X8.7115Y-4.2305
X8.4115Y-4.1305
X9.3115Y-4.4305
X9.4115Y-4.6305
X8.6115Y-4.5305
X8.5115Y-4.7305
X9.5115Y-4.4305
X9.4115Y-4.7305
X9.6115Y-4.9305
X9.2115Y-5.0305
X9.7115Y-4.5305
X9.3115Y-4.5305
X9.0115Y-4.3305
X8.7115Y-4.3305
X9.0115Y-4.2305
X9.104Y-4.1305
X9.204Y-4.1305
X9.304Y-4.1305
X9.404Y-4.1305
X9.2115Y-4.5305
X8.9115Y-4.7305
X8.8115Y-4.5305
X9.5115Y-4.7305
X9.4115Y-4.4305
X9.3115Y-4.7305
X9.5115Y-4.9305
X9.4115Y-4.9305
X9.5115Y-4.5305
X9.7115Y-4.2305
X8.8115Y-4.6305
X9.1115Y-4.4305
X8.5115Y-4.6305
X8.5115Y-4.3305
T4
X10.0303Y-4.1346
X10.0303Y-4.652
X10.0303Y-4.9591
X10.0303Y-5.4764
T3
X9.2946Y-5.4118G85X9.3734Y-5.4118
G05
X9.2946Y-5.648G85X9.3734Y-5.648
G05
X9.5191Y-5.5693G85X9.5191Y-5.4905
G05
T0
M30
