G04 #@! TF.GenerationSoftware,KiCad,Pcbnew,(5.0.2)-1*
G04 #@! TF.CreationDate,2019-01-19T16:36:18-05:00*
G04 #@! TF.ProjectId,2019-Pi-Power,32303139-2d50-4692-9d50-6f7765722e6b,rev?*
G04 #@! TF.SameCoordinates,Original*
G04 #@! TF.FileFunction,Profile,NP*
%FSLAX46Y46*%
G04 Gerber Fmt 4.6, Leading zero omitted, Abs format (unit mm)*
G04 Created by KiCad (PCBNEW (5.0.2)-1) date 1/19/2019 4:36:18 PM*
%MOMM*%
%LPD*%
G01*
G04 APERTURE LIST*
%ADD10C,0.100000*%
G04 APERTURE END LIST*
D10*
X241275000Y-139459000D02*
X241275000Y-141491000D01*
X242291000Y-141491000D02*
G75*
G02X241275000Y-141491000I-508000J0D01*
G01*
X242291000Y-141491000D02*
X242291000Y-139459000D01*
X241275000Y-139459000D02*
G75*
G02X242291000Y-139459000I508000J0D01*
G01*
X238100000Y-136982500D02*
X236068000Y-136982500D01*
X236068000Y-137998500D02*
G75*
G02X236068000Y-136982500I0J508000D01*
G01*
X236068000Y-137998500D02*
X238100000Y-137998500D01*
X238100000Y-136982500D02*
G75*
G02X238100000Y-137998500I0J-508000D01*
G01*
X236068000Y-143967500D02*
X238100000Y-143967500D01*
X238100000Y-142951500D02*
X236068000Y-142951500D01*
X238100000Y-142951500D02*
G75*
G02X238100000Y-143967500I0J-508000D01*
G01*
X236068000Y-143967500D02*
G75*
G02X236068000Y-142951500I0J508000D01*
G01*
X244000000Y-146000000D02*
X244000000Y-131000000D01*
X246000000Y-131000000D02*
X246000000Y-146000000D01*
X246000000Y-131000000D02*
G75*
G03X244000000Y-131000000I-1000000J0D01*
G01*
X244000000Y-146000000D02*
G75*
G03X246000000Y-146000000I1000000J0D01*
G01*
X200499127Y-130500001D02*
G75*
G03X200000000Y-131000000I873J-499999D01*
G01*
X204500000Y-130500000D02*
G75*
G03X205000000Y-130000000I0J500000D01*
G01*
X200000000Y-113000000D02*
G75*
G03X200500000Y-113500000I500000J0D01*
G01*
X205000000Y-114000000D02*
G75*
G03X204500000Y-113500000I-500000J0D01*
G01*
X200000000Y-97000000D02*
X200000000Y-113000000D01*
X265000000Y-97000000D02*
G75*
G03X262000000Y-94000000I-3000000J0D01*
G01*
X262000000Y-150000000D02*
G75*
G03X265000000Y-147000000I0J3000000D01*
G01*
X200000000Y-147000000D02*
G75*
G03X203000000Y-150000000I3000000J0D01*
G01*
X203000000Y-94000000D02*
G75*
G03X200000000Y-97000000I0J-3000000D01*
G01*
X262000000Y-94000000D02*
X203000000Y-94000000D01*
X204500000Y-130500000D02*
X200500000Y-130500000D01*
X205000000Y-114000000D02*
X205000000Y-130000000D01*
X200500000Y-113500000D02*
X204500000Y-113500000D01*
X265000000Y-147000000D02*
X265000000Y-97000000D01*
X203000000Y-150000000D02*
X262000000Y-150000000D01*
X200000000Y-131000000D02*
X200000000Y-147000000D01*
M02*
