G04 #@! TF.GenerationSoftware,KiCad,Pcbnew,(5.0.2)-1*
G04 #@! TF.CreationDate,2019-01-19T16:36:18-05:00*
G04 #@! TF.ProjectId,2019-Pi-Power,32303139-2d50-4692-9d50-6f7765722e6b,rev?*
G04 #@! TF.SameCoordinates,Original*
G04 #@! TF.FileFunction,Legend,Top*
G04 #@! TF.FilePolarity,Positive*
%FSLAX46Y46*%
G04 Gerber Fmt 4.6, Leading zero omitted, Abs format (unit mm)*
G04 Created by KiCad (PCBNEW (5.0.2)-1) date 1/19/2019 4:36:18 PM*
%MOMM*%
%LPD*%
G01*
G04 APERTURE LIST*
%ADD10C,0.200000*%
%ADD11C,0.150000*%
%ADD12C,0.250000*%
%ADD13C,0.120000*%
%ADD14C,0.100000*%
%ADD15C,0.127000*%
%ADD16C,0.500000*%
%ADD17C,0.010000*%
%ADD18C,0.050000*%
G04 APERTURE END LIST*
D10*
X220486809Y-102890880D02*
X220486809Y-101890880D01*
X220915380Y-101986119D02*
X220963000Y-101938500D01*
X221058238Y-101890880D01*
X221296333Y-101890880D01*
X221391571Y-101938500D01*
X221439190Y-101986119D01*
X221486809Y-102081357D01*
X221486809Y-102176595D01*
X221439190Y-102319452D01*
X220867761Y-102890880D01*
X221486809Y-102890880D01*
X222486809Y-102795642D02*
X222439190Y-102843261D01*
X222296333Y-102890880D01*
X222201095Y-102890880D01*
X222058238Y-102843261D01*
X221963000Y-102748023D01*
X221915380Y-102652785D01*
X221867761Y-102462309D01*
X221867761Y-102319452D01*
X221915380Y-102128976D01*
X221963000Y-102033738D01*
X222058238Y-101938500D01*
X222201095Y-101890880D01*
X222296333Y-101890880D01*
X222439190Y-101938500D01*
X222486809Y-101986119D01*
D11*
X242749000Y-148912571D02*
X243015666Y-148912571D01*
X243129952Y-149436380D02*
X242749000Y-149436380D01*
X242749000Y-148436380D01*
X243129952Y-148436380D01*
X243587095Y-149436380D02*
X243510904Y-149388761D01*
X243472809Y-149293523D01*
X243472809Y-148436380D01*
X244196619Y-149388761D02*
X244120428Y-149436380D01*
X243968047Y-149436380D01*
X243891857Y-149388761D01*
X243853761Y-149293523D01*
X243853761Y-148912571D01*
X243891857Y-148817333D01*
X243968047Y-148769714D01*
X244120428Y-148769714D01*
X244196619Y-148817333D01*
X244234714Y-148912571D01*
X244234714Y-149007809D01*
X243853761Y-149103047D01*
X244920428Y-149388761D02*
X244844238Y-149436380D01*
X244691857Y-149436380D01*
X244615666Y-149388761D01*
X244577571Y-149341142D01*
X244539476Y-149245904D01*
X244539476Y-148960190D01*
X244577571Y-148864952D01*
X244615666Y-148817333D01*
X244691857Y-148769714D01*
X244844238Y-148769714D01*
X244920428Y-148817333D01*
X245149000Y-148769714D02*
X245453761Y-148769714D01*
X245263285Y-148436380D02*
X245263285Y-149293523D01*
X245301380Y-149388761D01*
X245377571Y-149436380D01*
X245453761Y-149436380D01*
X245720428Y-149436380D02*
X245720428Y-148769714D01*
X245720428Y-148960190D02*
X245758523Y-148864952D01*
X245796619Y-148817333D01*
X245872809Y-148769714D01*
X245949000Y-148769714D01*
X246215666Y-149436380D02*
X246215666Y-148769714D01*
X246215666Y-148436380D02*
X246177571Y-148484000D01*
X246215666Y-148531619D01*
X246253761Y-148484000D01*
X246215666Y-148436380D01*
X246215666Y-148531619D01*
X246939476Y-149388761D02*
X246863285Y-149436380D01*
X246710904Y-149436380D01*
X246634714Y-149388761D01*
X246596619Y-149341142D01*
X246558523Y-149245904D01*
X246558523Y-148960190D01*
X246596619Y-148864952D01*
X246634714Y-148817333D01*
X246710904Y-148769714D01*
X246863285Y-148769714D01*
X246939476Y-148817333D01*
X247625190Y-148769714D02*
X247625190Y-149579238D01*
X247587095Y-149674476D01*
X247549000Y-149722095D01*
X247472809Y-149769714D01*
X247358523Y-149769714D01*
X247282333Y-149722095D01*
X247625190Y-149388761D02*
X247549000Y-149436380D01*
X247396619Y-149436380D01*
X247320428Y-149388761D01*
X247282333Y-149341142D01*
X247244238Y-149245904D01*
X247244238Y-148960190D01*
X247282333Y-148864952D01*
X247320428Y-148817333D01*
X247396619Y-148769714D01*
X247549000Y-148769714D01*
X247625190Y-148817333D01*
X248006142Y-149436380D02*
X248006142Y-148769714D01*
X248006142Y-148960190D02*
X248044238Y-148864952D01*
X248082333Y-148817333D01*
X248158523Y-148769714D01*
X248234714Y-148769714D01*
X248844238Y-149436380D02*
X248844238Y-148912571D01*
X248806142Y-148817333D01*
X248729952Y-148769714D01*
X248577571Y-148769714D01*
X248501380Y-148817333D01*
X248844238Y-149388761D02*
X248768047Y-149436380D01*
X248577571Y-149436380D01*
X248501380Y-149388761D01*
X248463285Y-149293523D01*
X248463285Y-149198285D01*
X248501380Y-149103047D01*
X248577571Y-149055428D01*
X248768047Y-149055428D01*
X248844238Y-149007809D01*
X249149000Y-148769714D02*
X249339476Y-149436380D01*
X249529952Y-148769714D01*
X250139476Y-149388761D02*
X250063285Y-149436380D01*
X249910904Y-149436380D01*
X249834714Y-149388761D01*
X249796619Y-149293523D01*
X249796619Y-148912571D01*
X249834714Y-148817333D01*
X249910904Y-148769714D01*
X250063285Y-148769714D01*
X250139476Y-148817333D01*
X250177571Y-148912571D01*
X250177571Y-149007809D01*
X249796619Y-149103047D01*
X250444238Y-148769714D02*
X250634714Y-149436380D01*
X250825190Y-148769714D02*
X250634714Y-149436380D01*
X250558523Y-149674476D01*
X250520428Y-149722095D01*
X250444238Y-149769714D01*
X251472809Y-149436380D02*
X251472809Y-148912571D01*
X251434714Y-148817333D01*
X251358523Y-148769714D01*
X251206142Y-148769714D01*
X251129952Y-148817333D01*
X251472809Y-149388761D02*
X251396619Y-149436380D01*
X251206142Y-149436380D01*
X251129952Y-149388761D01*
X251091857Y-149293523D01*
X251091857Y-149198285D01*
X251129952Y-149103047D01*
X251206142Y-149055428D01*
X251396619Y-149055428D01*
X251472809Y-149007809D01*
X251853761Y-149436380D02*
X251853761Y-148769714D01*
X251853761Y-148960190D02*
X251891857Y-148864952D01*
X251929952Y-148817333D01*
X252006142Y-148769714D01*
X252082333Y-148769714D01*
X252691857Y-149436380D02*
X252691857Y-148436380D01*
X252691857Y-149388761D02*
X252615666Y-149436380D01*
X252463285Y-149436380D01*
X252387095Y-149388761D01*
X252349000Y-149341142D01*
X252310904Y-149245904D01*
X252310904Y-148960190D01*
X252349000Y-148864952D01*
X252387095Y-148817333D01*
X252463285Y-148769714D01*
X252615666Y-148769714D01*
X252691857Y-148817333D01*
X253072809Y-149341142D02*
X253110904Y-149388761D01*
X253072809Y-149436380D01*
X253034714Y-149388761D01*
X253072809Y-149341142D01*
X253072809Y-149436380D01*
X253796619Y-149388761D02*
X253720428Y-149436380D01*
X253568047Y-149436380D01*
X253491857Y-149388761D01*
X253453761Y-149341142D01*
X253415666Y-149245904D01*
X253415666Y-148960190D01*
X253453761Y-148864952D01*
X253491857Y-148817333D01*
X253568047Y-148769714D01*
X253720428Y-148769714D01*
X253796619Y-148817333D01*
X254253761Y-149436380D02*
X254177571Y-149388761D01*
X254139476Y-149341142D01*
X254101380Y-149245904D01*
X254101380Y-148960190D01*
X254139476Y-148864952D01*
X254177571Y-148817333D01*
X254253761Y-148769714D01*
X254368047Y-148769714D01*
X254444238Y-148817333D01*
X254482333Y-148864952D01*
X254520428Y-148960190D01*
X254520428Y-149245904D01*
X254482333Y-149341142D01*
X254444238Y-149388761D01*
X254368047Y-149436380D01*
X254253761Y-149436380D01*
X254863285Y-149436380D02*
X254863285Y-148769714D01*
X254863285Y-148864952D02*
X254901380Y-148817333D01*
X254977571Y-148769714D01*
X255091857Y-148769714D01*
X255168047Y-148817333D01*
X255206142Y-148912571D01*
X255206142Y-149436380D01*
X255206142Y-148912571D02*
X255244238Y-148817333D01*
X255320428Y-148769714D01*
X255434714Y-148769714D01*
X255510904Y-148817333D01*
X255549000Y-148912571D01*
X255549000Y-149436380D01*
D12*
X215732666Y-145499380D02*
X215923142Y-145499380D01*
X216018380Y-145451761D01*
X216066000Y-145404142D01*
X216161238Y-145261285D01*
X216208857Y-145070809D01*
X216208857Y-144689857D01*
X216161238Y-144594619D01*
X216113619Y-144547000D01*
X216018380Y-144499380D01*
X215827904Y-144499380D01*
X215732666Y-144547000D01*
X215685047Y-144594619D01*
X215637428Y-144689857D01*
X215637428Y-144927952D01*
X215685047Y-145023190D01*
X215732666Y-145070809D01*
X215827904Y-145118428D01*
X216018380Y-145118428D01*
X216113619Y-145070809D01*
X216161238Y-145023190D01*
X216208857Y-144927952D01*
X217399333Y-145118428D02*
X218161238Y-145118428D01*
X219351714Y-144594619D02*
X219399333Y-144547000D01*
X219494571Y-144499380D01*
X219732666Y-144499380D01*
X219827904Y-144547000D01*
X219875523Y-144594619D01*
X219923142Y-144689857D01*
X219923142Y-144785095D01*
X219875523Y-144927952D01*
X219304095Y-145499380D01*
X219923142Y-145499380D01*
X220780285Y-144832714D02*
X220780285Y-145499380D01*
X220542190Y-144451761D02*
X220304095Y-145166047D01*
X220923142Y-145166047D01*
X221923142Y-144499380D02*
X222256476Y-145499380D01*
X222589809Y-144499380D01*
X222923142Y-145499380D02*
X222923142Y-144499380D01*
X223161238Y-144499380D01*
X223304095Y-144547000D01*
X223399333Y-144642238D01*
X223446952Y-144737476D01*
X223494571Y-144927952D01*
X223494571Y-145070809D01*
X223446952Y-145261285D01*
X223399333Y-145356523D01*
X223304095Y-145451761D01*
X223161238Y-145499380D01*
X222923142Y-145499380D01*
X224494571Y-145404142D02*
X224446952Y-145451761D01*
X224304095Y-145499380D01*
X224208857Y-145499380D01*
X224066000Y-145451761D01*
X223970761Y-145356523D01*
X223923142Y-145261285D01*
X223875523Y-145070809D01*
X223875523Y-144927952D01*
X223923142Y-144737476D01*
X223970761Y-144642238D01*
X224066000Y-144547000D01*
X224208857Y-144499380D01*
X224304095Y-144499380D01*
X224446952Y-144547000D01*
X224494571Y-144594619D01*
D10*
X216679500Y-147745758D02*
X217479500Y-147745758D01*
X222779500Y-147745758D02*
X223579500Y-147745758D01*
X223179500Y-148126710D02*
X223179500Y-147364806D01*
D13*
X239338214Y-108126500D02*
X239376309Y-108155071D01*
X239414404Y-108240785D01*
X239414404Y-108297928D01*
X239376309Y-108383642D01*
X239300119Y-108440785D01*
X239223928Y-108469357D01*
X239071547Y-108497928D01*
X238957261Y-108497928D01*
X238804880Y-108469357D01*
X238728690Y-108440785D01*
X238652500Y-108383642D01*
X238614404Y-108297928D01*
X238614404Y-108240785D01*
X238652500Y-108155071D01*
X238690595Y-108126500D01*
X239376309Y-107897928D02*
X239414404Y-107812214D01*
X239414404Y-107669357D01*
X239376309Y-107612214D01*
X239338214Y-107583642D01*
X239262023Y-107555071D01*
X239185833Y-107555071D01*
X239109642Y-107583642D01*
X239071547Y-107612214D01*
X239033452Y-107669357D01*
X238995357Y-107783642D01*
X238957261Y-107840785D01*
X238919166Y-107869357D01*
X238842976Y-107897928D01*
X238766785Y-107897928D01*
X238690595Y-107869357D01*
X238652500Y-107840785D01*
X238614404Y-107783642D01*
X238614404Y-107640785D01*
X238652500Y-107555071D01*
X236709309Y-108543928D02*
X236747404Y-108458214D01*
X236747404Y-108315357D01*
X236709309Y-108258214D01*
X236671214Y-108229642D01*
X236595023Y-108201071D01*
X236518833Y-108201071D01*
X236442642Y-108229642D01*
X236404547Y-108258214D01*
X236366452Y-108315357D01*
X236328357Y-108429642D01*
X236290261Y-108486785D01*
X236252166Y-108515357D01*
X236175976Y-108543928D01*
X236099785Y-108543928D01*
X236023595Y-108515357D01*
X235985500Y-108486785D01*
X235947404Y-108429642D01*
X235947404Y-108286785D01*
X235985500Y-108201071D01*
X236671214Y-107601071D02*
X236709309Y-107629642D01*
X236747404Y-107715357D01*
X236747404Y-107772500D01*
X236709309Y-107858214D01*
X236633119Y-107915357D01*
X236556928Y-107943928D01*
X236404547Y-107972500D01*
X236290261Y-107972500D01*
X236137880Y-107943928D01*
X236061690Y-107915357D01*
X235985500Y-107858214D01*
X235947404Y-107772500D01*
X235947404Y-107715357D01*
X235985500Y-107629642D01*
X236023595Y-107601071D01*
X236747404Y-107343928D02*
X235947404Y-107343928D01*
X236747404Y-107001071D02*
X236290261Y-107258214D01*
X235947404Y-107001071D02*
X236404547Y-107343928D01*
X234207404Y-108524857D02*
X233407404Y-108524857D01*
X233978833Y-108324857D01*
X233407404Y-108124857D01*
X234207404Y-108124857D01*
X234207404Y-107839142D02*
X233407404Y-107839142D01*
X234169309Y-107582000D02*
X234207404Y-107496285D01*
X234207404Y-107353428D01*
X234169309Y-107296285D01*
X234131214Y-107267714D01*
X234055023Y-107239142D01*
X233978833Y-107239142D01*
X233902642Y-107267714D01*
X233864547Y-107296285D01*
X233826452Y-107353428D01*
X233788357Y-107467714D01*
X233750261Y-107524857D01*
X233712166Y-107553428D01*
X233635976Y-107582000D01*
X233559785Y-107582000D01*
X233483595Y-107553428D01*
X233445500Y-107524857D01*
X233407404Y-107467714D01*
X233407404Y-107324857D01*
X233445500Y-107239142D01*
X233407404Y-106867714D02*
X233407404Y-106753428D01*
X233445500Y-106696285D01*
X233521690Y-106639142D01*
X233674071Y-106610571D01*
X233940738Y-106610571D01*
X234093119Y-106639142D01*
X234169309Y-106696285D01*
X234207404Y-106753428D01*
X234207404Y-106867714D01*
X234169309Y-106924857D01*
X234093119Y-106982000D01*
X233940738Y-107010571D01*
X233674071Y-107010571D01*
X233521690Y-106982000D01*
X233445500Y-106924857D01*
X233407404Y-106867714D01*
X231794404Y-108524857D02*
X230994404Y-108524857D01*
X231565833Y-108324857D01*
X230994404Y-108124857D01*
X231794404Y-108124857D01*
X230994404Y-107724857D02*
X230994404Y-107610571D01*
X231032500Y-107553428D01*
X231108690Y-107496285D01*
X231261071Y-107467714D01*
X231527738Y-107467714D01*
X231680119Y-107496285D01*
X231756309Y-107553428D01*
X231794404Y-107610571D01*
X231794404Y-107724857D01*
X231756309Y-107782000D01*
X231680119Y-107839142D01*
X231527738Y-107867714D01*
X231261071Y-107867714D01*
X231108690Y-107839142D01*
X231032500Y-107782000D01*
X230994404Y-107724857D01*
X231756309Y-107239142D02*
X231794404Y-107153428D01*
X231794404Y-107010571D01*
X231756309Y-106953428D01*
X231718214Y-106924857D01*
X231642023Y-106896285D01*
X231565833Y-106896285D01*
X231489642Y-106924857D01*
X231451547Y-106953428D01*
X231413452Y-107010571D01*
X231375357Y-107124857D01*
X231337261Y-107182000D01*
X231299166Y-107210571D01*
X231222976Y-107239142D01*
X231146785Y-107239142D01*
X231070595Y-107210571D01*
X231032500Y-107182000D01*
X230994404Y-107124857D01*
X230994404Y-106982000D01*
X231032500Y-106896285D01*
X231794404Y-106639142D02*
X230994404Y-106639142D01*
D10*
X240815071Y-105319761D02*
X240957928Y-105367380D01*
X241196023Y-105367380D01*
X241291261Y-105319761D01*
X241338880Y-105272142D01*
X241386500Y-105176904D01*
X241386500Y-105081666D01*
X241338880Y-104986428D01*
X241291261Y-104938809D01*
X241196023Y-104891190D01*
X241005547Y-104843571D01*
X240910309Y-104795952D01*
X240862690Y-104748333D01*
X240815071Y-104653095D01*
X240815071Y-104557857D01*
X240862690Y-104462619D01*
X240910309Y-104415000D01*
X241005547Y-104367380D01*
X241243642Y-104367380D01*
X241386500Y-104415000D01*
X241815071Y-105367380D02*
X241815071Y-104367380D01*
X242196023Y-104367380D01*
X242291261Y-104415000D01*
X242338880Y-104462619D01*
X242386500Y-104557857D01*
X242386500Y-104700714D01*
X242338880Y-104795952D01*
X242291261Y-104843571D01*
X242196023Y-104891190D01*
X241815071Y-104891190D01*
X242815071Y-105367380D02*
X242815071Y-104367380D01*
X243481738Y-104367380D02*
X243576976Y-104367380D01*
X243672214Y-104415000D01*
X243719833Y-104462619D01*
X243767452Y-104557857D01*
X243815071Y-104748333D01*
X243815071Y-104986428D01*
X243767452Y-105176904D01*
X243719833Y-105272142D01*
X243672214Y-105319761D01*
X243576976Y-105367380D01*
X243481738Y-105367380D01*
X243386500Y-105319761D01*
X243338880Y-105272142D01*
X243291261Y-105176904D01*
X243243642Y-104986428D01*
X243243642Y-104748333D01*
X243291261Y-104557857D01*
X243338880Y-104462619D01*
X243386500Y-104415000D01*
X243481738Y-104367380D01*
X244243642Y-104986428D02*
X245005547Y-104986428D01*
X246053166Y-105272142D02*
X246005547Y-105319761D01*
X245862690Y-105367380D01*
X245767452Y-105367380D01*
X245624595Y-105319761D01*
X245529357Y-105224523D01*
X245481738Y-105129285D01*
X245434119Y-104938809D01*
X245434119Y-104795952D01*
X245481738Y-104605476D01*
X245529357Y-104510238D01*
X245624595Y-104415000D01*
X245767452Y-104367380D01*
X245862690Y-104367380D01*
X246005547Y-104415000D01*
X246053166Y-104462619D01*
X246434119Y-105319761D02*
X246576976Y-105367380D01*
X246815071Y-105367380D01*
X246910309Y-105319761D01*
X246957928Y-105272142D01*
X247005547Y-105176904D01*
X247005547Y-105081666D01*
X246957928Y-104986428D01*
X246910309Y-104938809D01*
X246815071Y-104891190D01*
X246624595Y-104843571D01*
X246529357Y-104795952D01*
X246481738Y-104748333D01*
X246434119Y-104653095D01*
X246434119Y-104557857D01*
X246481738Y-104462619D01*
X246529357Y-104415000D01*
X246624595Y-104367380D01*
X246862690Y-104367380D01*
X247005547Y-104415000D01*
X247957928Y-105367380D02*
X247386500Y-105367380D01*
X247672214Y-105367380D02*
X247672214Y-104367380D01*
X247576976Y-104510238D01*
X247481738Y-104605476D01*
X247386500Y-104653095D01*
X240751571Y-102208261D02*
X240894428Y-102255880D01*
X241132523Y-102255880D01*
X241227761Y-102208261D01*
X241275380Y-102160642D01*
X241323000Y-102065404D01*
X241323000Y-101970166D01*
X241275380Y-101874928D01*
X241227761Y-101827309D01*
X241132523Y-101779690D01*
X240942047Y-101732071D01*
X240846809Y-101684452D01*
X240799190Y-101636833D01*
X240751571Y-101541595D01*
X240751571Y-101446357D01*
X240799190Y-101351119D01*
X240846809Y-101303500D01*
X240942047Y-101255880D01*
X241180142Y-101255880D01*
X241323000Y-101303500D01*
X241751571Y-102255880D02*
X241751571Y-101255880D01*
X242132523Y-101255880D01*
X242227761Y-101303500D01*
X242275380Y-101351119D01*
X242323000Y-101446357D01*
X242323000Y-101589214D01*
X242275380Y-101684452D01*
X242227761Y-101732071D01*
X242132523Y-101779690D01*
X241751571Y-101779690D01*
X242751571Y-102255880D02*
X242751571Y-101255880D01*
X243418238Y-101255880D02*
X243513476Y-101255880D01*
X243608714Y-101303500D01*
X243656333Y-101351119D01*
X243703952Y-101446357D01*
X243751571Y-101636833D01*
X243751571Y-101874928D01*
X243703952Y-102065404D01*
X243656333Y-102160642D01*
X243608714Y-102208261D01*
X243513476Y-102255880D01*
X243418238Y-102255880D01*
X243323000Y-102208261D01*
X243275380Y-102160642D01*
X243227761Y-102065404D01*
X243180142Y-101874928D01*
X243180142Y-101636833D01*
X243227761Y-101446357D01*
X243275380Y-101351119D01*
X243323000Y-101303500D01*
X243418238Y-101255880D01*
X244180142Y-101874928D02*
X244942047Y-101874928D01*
X245989666Y-102160642D02*
X245942047Y-102208261D01*
X245799190Y-102255880D01*
X245703952Y-102255880D01*
X245561095Y-102208261D01*
X245465857Y-102113023D01*
X245418238Y-102017785D01*
X245370619Y-101827309D01*
X245370619Y-101684452D01*
X245418238Y-101493976D01*
X245465857Y-101398738D01*
X245561095Y-101303500D01*
X245703952Y-101255880D01*
X245799190Y-101255880D01*
X245942047Y-101303500D01*
X245989666Y-101351119D01*
X246370619Y-102208261D02*
X246513476Y-102255880D01*
X246751571Y-102255880D01*
X246846809Y-102208261D01*
X246894428Y-102160642D01*
X246942047Y-102065404D01*
X246942047Y-101970166D01*
X246894428Y-101874928D01*
X246846809Y-101827309D01*
X246751571Y-101779690D01*
X246561095Y-101732071D01*
X246465857Y-101684452D01*
X246418238Y-101636833D01*
X246370619Y-101541595D01*
X246370619Y-101446357D01*
X246418238Y-101351119D01*
X246465857Y-101303500D01*
X246561095Y-101255880D01*
X246799190Y-101255880D01*
X246942047Y-101303500D01*
X247561095Y-101255880D02*
X247656333Y-101255880D01*
X247751571Y-101303500D01*
X247799190Y-101351119D01*
X247846809Y-101446357D01*
X247894428Y-101636833D01*
X247894428Y-101874928D01*
X247846809Y-102065404D01*
X247799190Y-102160642D01*
X247751571Y-102208261D01*
X247656333Y-102255880D01*
X247561095Y-102255880D01*
X247465857Y-102208261D01*
X247418238Y-102160642D01*
X247370619Y-102065404D01*
X247323000Y-101874928D01*
X247323000Y-101636833D01*
X247370619Y-101446357D01*
X247418238Y-101351119D01*
X247465857Y-101303500D01*
X247561095Y-101255880D01*
D11*
G04 #@! TO.C,U1*
X215338500Y-135098000D02*
X215288500Y-135098000D01*
X215338500Y-139248000D02*
X215193500Y-139248000D01*
X210188500Y-139248000D02*
X210333500Y-139248000D01*
X210188500Y-135098000D02*
X210333500Y-135098000D01*
X215338500Y-135098000D02*
X215338500Y-139248000D01*
X210188500Y-135098000D02*
X210188500Y-139248000D01*
X215288500Y-135098000D02*
X215288500Y-133698000D01*
D13*
G04 #@! TO.C,C2*
X213735000Y-142542000D02*
X214435000Y-142542000D01*
X214435000Y-143742000D02*
X213735000Y-143742000D01*
G04 #@! TO.C,C3*
X217745000Y-139236000D02*
X217745000Y-139936000D01*
X216545000Y-139936000D02*
X216545000Y-139236000D01*
G04 #@! TO.C,C4*
X212665000Y-130104000D02*
X212665000Y-130804000D01*
X211465000Y-130804000D02*
X211465000Y-130104000D01*
G04 #@! TO.C,J1*
X232484000Y-136559500D02*
X235084000Y-136559500D01*
X232484000Y-151259500D02*
X232484000Y-136559500D01*
X241684000Y-136559500D02*
X241684000Y-138459500D01*
X238984000Y-136559500D02*
X241684000Y-136559500D01*
X241684000Y-151259500D02*
X232484000Y-151259500D01*
X241684000Y-142459500D02*
X241684000Y-151259500D01*
G04 #@! TO.C,L1*
X227017000Y-135996000D02*
X223817000Y-135996000D01*
X227017000Y-125396000D02*
X227017000Y-135996000D01*
X223817000Y-125396000D02*
X227017000Y-125396000D01*
X216417000Y-125396000D02*
X219617000Y-125396000D01*
X216417000Y-135996000D02*
X216417000Y-125396000D01*
X219617000Y-135996000D02*
X216417000Y-135996000D01*
G04 #@! TO.C,R1*
X211041000Y-143822000D02*
X210041000Y-143822000D01*
X210041000Y-142462000D02*
X211041000Y-142462000D01*
G04 #@! TO.C,R2*
X208464000Y-132466000D02*
X208464000Y-131466000D01*
X209824000Y-131466000D02*
X209824000Y-132466000D01*
G04 #@! TO.C,R3*
X209988000Y-130954000D02*
X209988000Y-129954000D01*
X211348000Y-129954000D02*
X211348000Y-130954000D01*
G04 #@! TO.C,R4*
X207243000Y-133662000D02*
X206243000Y-133662000D01*
X206243000Y-132302000D02*
X207243000Y-132302000D01*
D14*
G04 #@! TO.C,D1*
X219171920Y-138653820D02*
X219631660Y-138653820D01*
X219631660Y-138653820D02*
X219631660Y-138730020D01*
X219631660Y-138730020D02*
X219171920Y-138730020D01*
X219171920Y-138730020D02*
X219171920Y-138653820D01*
X221973540Y-138653820D02*
X221508720Y-138653820D01*
X221508720Y-138653820D02*
X221508720Y-138730020D01*
X221508720Y-138730020D02*
X221973540Y-138730020D01*
X221973540Y-138730020D02*
X221973540Y-138653820D01*
X219174000Y-142344000D02*
X219174000Y-141944000D01*
X219174000Y-142344000D02*
X219574000Y-142344000D01*
X219174000Y-137844000D02*
X219174000Y-138244000D01*
X219174000Y-137844000D02*
X219574000Y-137844000D01*
X221974000Y-137844000D02*
X221574000Y-137844000D01*
X221974000Y-137844000D02*
X221974000Y-138244000D01*
X221974000Y-142344000D02*
X221974000Y-141944000D01*
X221974000Y-142344000D02*
X221574000Y-142344000D01*
D15*
G04 #@! TO.C,J2*
X250670000Y-125480000D02*
X250670000Y-139580000D01*
X265070000Y-139580000D02*
X265070000Y-125480000D01*
G04 #@! TO.C,J3*
X265070000Y-118640000D02*
X265070000Y-104540000D01*
X250670000Y-104540000D02*
X250670000Y-118640000D01*
D13*
G04 #@! TO.C,C1*
X232002000Y-142918500D02*
X232002000Y-148758500D01*
X231242000Y-142158500D02*
X232002000Y-142918500D01*
X225402000Y-142918500D02*
X226162000Y-142158500D01*
X225402000Y-148758500D02*
X225402000Y-142918500D01*
X231242000Y-142158500D02*
X229822000Y-142158500D01*
X226162000Y-142158500D02*
X227582000Y-142158500D01*
X232002000Y-148758500D02*
X229822000Y-148758500D01*
X225402000Y-148758500D02*
X227582000Y-148758500D01*
G04 #@! TO.C,C5*
X212827000Y-128535000D02*
X206987000Y-128535000D01*
X213587000Y-127775000D02*
X212827000Y-128535000D01*
X212827000Y-121935000D02*
X213587000Y-122695000D01*
X206987000Y-121935000D02*
X212827000Y-121935000D01*
X213587000Y-127775000D02*
X213587000Y-126355000D01*
X213587000Y-122695000D02*
X213587000Y-124115000D01*
X206987000Y-128535000D02*
X206987000Y-126355000D01*
X206987000Y-121935000D02*
X206987000Y-124115000D01*
G04 #@! TO.C,J4*
X247311000Y-148155000D02*
X247311000Y-146825000D01*
X248641000Y-148155000D02*
X247311000Y-148155000D01*
X247311000Y-145555000D02*
X247311000Y-142955000D01*
X249911000Y-145555000D02*
X247311000Y-145555000D01*
X249911000Y-148155000D02*
X249911000Y-145555000D01*
X247311000Y-142955000D02*
X257591000Y-142955000D01*
X249911000Y-148155000D02*
X257591000Y-148155000D01*
X257591000Y-148155000D02*
X257591000Y-142955000D01*
G04 #@! TO.C,J5*
X240192000Y-103705000D02*
X240192000Y-101045000D01*
X232512000Y-103705000D02*
X240192000Y-103705000D01*
X232512000Y-101045000D02*
X240192000Y-101045000D01*
X232512000Y-103705000D02*
X232512000Y-101045000D01*
X231242000Y-103705000D02*
X229912000Y-103705000D01*
X229912000Y-103705000D02*
X229912000Y-102375000D01*
G04 #@! TO.C,J6*
X229912000Y-106245000D02*
X229912000Y-104915000D01*
X231242000Y-106245000D02*
X229912000Y-106245000D01*
X232512000Y-106245000D02*
X232512000Y-103585000D01*
X232512000Y-103585000D02*
X240192000Y-103585000D01*
X232512000Y-106245000D02*
X240192000Y-106245000D01*
X240192000Y-106245000D02*
X240192000Y-103585000D01*
D11*
G04 #@! TO.C,REF\002A\002A*
X220114429Y-147749330D02*
X222114429Y-147749330D01*
X218114429Y-147749330D02*
X219014429Y-147749330D01*
X218039429Y-147749330D02*
G75*
G03X218039429Y-147749330I-925000J0D01*
G01*
X224039429Y-147749330D02*
G75*
G03X224039429Y-147749330I-925000J0D01*
G01*
D16*
X220289429Y-147749330D02*
G75*
G03X220289429Y-147749330I-175000J0D01*
G01*
D11*
X220789429Y-146999330D02*
G75*
G03X220864429Y-148424330I-675000J-750000D01*
G01*
D13*
G04 #@! TO.C,J7*
X209782500Y-103705000D02*
X209782500Y-102375000D01*
X211112500Y-103705000D02*
X209782500Y-103705000D01*
X212382500Y-103705000D02*
X212382500Y-101045000D01*
X212382500Y-101045000D02*
X220062500Y-101045000D01*
X212382500Y-103705000D02*
X220062500Y-103705000D01*
X220062500Y-103705000D02*
X220062500Y-101045000D01*
G04 #@! TO.C,J8*
X222800000Y-106245000D02*
X222800000Y-104915000D01*
X224130000Y-106245000D02*
X222800000Y-106245000D01*
X222800000Y-103645000D02*
X222800000Y-101045000D01*
X225400000Y-103645000D02*
X222800000Y-103645000D01*
X225400000Y-106245000D02*
X225400000Y-103645000D01*
X222800000Y-101045000D02*
X228000000Y-101045000D01*
X225400000Y-106245000D02*
X228000000Y-106245000D01*
X228000000Y-106245000D02*
X228000000Y-101045000D01*
D17*
G04 #@! TO.C,REF\002A\002A\002A*
G36*
X201329741Y-141817184D02*
X201356253Y-141830282D01*
X201388947Y-141853106D01*
X201412775Y-141877996D01*
X201429094Y-141909249D01*
X201439260Y-141951166D01*
X201444628Y-142008044D01*
X201446556Y-142084184D01*
X201446669Y-142116917D01*
X201446339Y-142188656D01*
X201444973Y-142239927D01*
X201442000Y-142275404D01*
X201436851Y-142299763D01*
X201428957Y-142317680D01*
X201420743Y-142329902D01*
X201368313Y-142381905D01*
X201306570Y-142413184D01*
X201239964Y-142422592D01*
X201172942Y-142408980D01*
X201151708Y-142399354D01*
X201100876Y-142372859D01*
X201100876Y-142788052D01*
X201137975Y-142768868D01*
X201186857Y-142754025D01*
X201246939Y-142750222D01*
X201306936Y-142757243D01*
X201352244Y-142773013D01*
X201389825Y-142803047D01*
X201421936Y-142846024D01*
X201424350Y-142850436D01*
X201434533Y-142871221D01*
X201441970Y-142892170D01*
X201447089Y-142917548D01*
X201450319Y-142951618D01*
X201452087Y-142998641D01*
X201452823Y-143062882D01*
X201452956Y-143135176D01*
X201452956Y-143365822D01*
X201314639Y-143365822D01*
X201314639Y-142940533D01*
X201275951Y-142907979D01*
X201235762Y-142881940D01*
X201197703Y-142877205D01*
X201159434Y-142889389D01*
X201139038Y-142901320D01*
X201123858Y-142918313D01*
X201113062Y-142943995D01*
X201105817Y-142981991D01*
X201101292Y-143035926D01*
X201098656Y-143109425D01*
X201097728Y-143158347D01*
X201094589Y-143359535D01*
X201028574Y-143363336D01*
X200962560Y-143367136D01*
X200962560Y-142118650D01*
X201100876Y-142118650D01*
X201104403Y-142188254D01*
X201116285Y-142236569D01*
X201138480Y-142266631D01*
X201172941Y-142281471D01*
X201207758Y-142284436D01*
X201247171Y-142281028D01*
X201273329Y-142267617D01*
X201289686Y-142249896D01*
X201302563Y-142230835D01*
X201310228Y-142209601D01*
X201313639Y-142179849D01*
X201313751Y-142135236D01*
X201312603Y-142097880D01*
X201309968Y-142041604D01*
X201306044Y-142004658D01*
X201299437Y-141981223D01*
X201288751Y-141965480D01*
X201278667Y-141956380D01*
X201236530Y-141936537D01*
X201186660Y-141933332D01*
X201158024Y-141940168D01*
X201129672Y-141964464D01*
X201110891Y-142011728D01*
X201101788Y-142081624D01*
X201100876Y-142118650D01*
X200962560Y-142118650D01*
X200962560Y-141806614D01*
X201031718Y-141806614D01*
X201073240Y-141808256D01*
X201094662Y-141814087D01*
X201100874Y-141825461D01*
X201100876Y-141825798D01*
X201103758Y-141836938D01*
X201116470Y-141835673D01*
X201141743Y-141823433D01*
X201200631Y-141804707D01*
X201266885Y-141802739D01*
X201329741Y-141817184D01*
X201329741Y-141817184D01*
G37*
X201329741Y-141817184D02*
X201356253Y-141830282D01*
X201388947Y-141853106D01*
X201412775Y-141877996D01*
X201429094Y-141909249D01*
X201439260Y-141951166D01*
X201444628Y-142008044D01*
X201446556Y-142084184D01*
X201446669Y-142116917D01*
X201446339Y-142188656D01*
X201444973Y-142239927D01*
X201442000Y-142275404D01*
X201436851Y-142299763D01*
X201428957Y-142317680D01*
X201420743Y-142329902D01*
X201368313Y-142381905D01*
X201306570Y-142413184D01*
X201239964Y-142422592D01*
X201172942Y-142408980D01*
X201151708Y-142399354D01*
X201100876Y-142372859D01*
X201100876Y-142788052D01*
X201137975Y-142768868D01*
X201186857Y-142754025D01*
X201246939Y-142750222D01*
X201306936Y-142757243D01*
X201352244Y-142773013D01*
X201389825Y-142803047D01*
X201421936Y-142846024D01*
X201424350Y-142850436D01*
X201434533Y-142871221D01*
X201441970Y-142892170D01*
X201447089Y-142917548D01*
X201450319Y-142951618D01*
X201452087Y-142998641D01*
X201452823Y-143062882D01*
X201452956Y-143135176D01*
X201452956Y-143365822D01*
X201314639Y-143365822D01*
X201314639Y-142940533D01*
X201275951Y-142907979D01*
X201235762Y-142881940D01*
X201197703Y-142877205D01*
X201159434Y-142889389D01*
X201139038Y-142901320D01*
X201123858Y-142918313D01*
X201113062Y-142943995D01*
X201105817Y-142981991D01*
X201101292Y-143035926D01*
X201098656Y-143109425D01*
X201097728Y-143158347D01*
X201094589Y-143359535D01*
X201028574Y-143363336D01*
X200962560Y-143367136D01*
X200962560Y-142118650D01*
X201100876Y-142118650D01*
X201104403Y-142188254D01*
X201116285Y-142236569D01*
X201138480Y-142266631D01*
X201172941Y-142281471D01*
X201207758Y-142284436D01*
X201247171Y-142281028D01*
X201273329Y-142267617D01*
X201289686Y-142249896D01*
X201302563Y-142230835D01*
X201310228Y-142209601D01*
X201313639Y-142179849D01*
X201313751Y-142135236D01*
X201312603Y-142097880D01*
X201309968Y-142041604D01*
X201306044Y-142004658D01*
X201299437Y-141981223D01*
X201288751Y-141965480D01*
X201278667Y-141956380D01*
X201236530Y-141936537D01*
X201186660Y-141933332D01*
X201158024Y-141940168D01*
X201129672Y-141964464D01*
X201110891Y-142011728D01*
X201101788Y-142081624D01*
X201100876Y-142118650D01*
X200962560Y-142118650D01*
X200962560Y-141806614D01*
X201031718Y-141806614D01*
X201073240Y-141808256D01*
X201094662Y-141814087D01*
X201100874Y-141825461D01*
X201100876Y-141825798D01*
X201103758Y-141836938D01*
X201116470Y-141835673D01*
X201141743Y-141823433D01*
X201200631Y-141804707D01*
X201266885Y-141802739D01*
X201329741Y-141817184D01*
G36*
X201854290Y-142754555D02*
X201913445Y-142770339D01*
X201958477Y-142798948D01*
X201990254Y-142836419D01*
X202000134Y-142852411D01*
X202007427Y-142869163D01*
X202012526Y-142890592D01*
X202015821Y-142920616D01*
X202017703Y-142963154D01*
X202018563Y-143022122D01*
X202018793Y-143101440D01*
X202018797Y-143122484D01*
X202018797Y-143365822D01*
X201958441Y-143365822D01*
X201919943Y-143363126D01*
X201891477Y-143356295D01*
X201884345Y-143352083D01*
X201864848Y-143344813D01*
X201844934Y-143352083D01*
X201812147Y-143361160D01*
X201764522Y-143364813D01*
X201711736Y-143363228D01*
X201663464Y-143356589D01*
X201635282Y-143348072D01*
X201580747Y-143313063D01*
X201546665Y-143264479D01*
X201531343Y-143199882D01*
X201531201Y-143198223D01*
X201532545Y-143169566D01*
X201654144Y-143169566D01*
X201664774Y-143202161D01*
X201682090Y-143220505D01*
X201716848Y-143234379D01*
X201762727Y-143239917D01*
X201809512Y-143237191D01*
X201846986Y-143226274D01*
X201857485Y-143219269D01*
X201875832Y-143186904D01*
X201880480Y-143150111D01*
X201880480Y-143101763D01*
X201810918Y-143101763D01*
X201744833Y-143106850D01*
X201694736Y-143121263D01*
X201663571Y-143143729D01*
X201654144Y-143169566D01*
X201532545Y-143169566D01*
X201534513Y-143127647D01*
X201557790Y-143071845D01*
X201601552Y-143029647D01*
X201607601Y-143025808D01*
X201633593Y-143013309D01*
X201665765Y-143005740D01*
X201710740Y-143002061D01*
X201764169Y-143001216D01*
X201880480Y-143001169D01*
X201880480Y-142952411D01*
X201875547Y-142914581D01*
X201862957Y-142889236D01*
X201861483Y-142887887D01*
X201833466Y-142876800D01*
X201791174Y-142872503D01*
X201744436Y-142874615D01*
X201703082Y-142882756D01*
X201678543Y-142894965D01*
X201665247Y-142904746D01*
X201651206Y-142906613D01*
X201631829Y-142898600D01*
X201602524Y-142878739D01*
X201558697Y-142845063D01*
X201554675Y-142841909D01*
X201556736Y-142830236D01*
X201573932Y-142810822D01*
X201600067Y-142789248D01*
X201628948Y-142771096D01*
X201638022Y-142766809D01*
X201671120Y-142758256D01*
X201719620Y-142752155D01*
X201773805Y-142749708D01*
X201776339Y-142749703D01*
X201854290Y-142754555D01*
X201854290Y-142754555D01*
G37*
X201854290Y-142754555D02*
X201913445Y-142770339D01*
X201958477Y-142798948D01*
X201990254Y-142836419D01*
X202000134Y-142852411D01*
X202007427Y-142869163D01*
X202012526Y-142890592D01*
X202015821Y-142920616D01*
X202017703Y-142963154D01*
X202018563Y-143022122D01*
X202018793Y-143101440D01*
X202018797Y-143122484D01*
X202018797Y-143365822D01*
X201958441Y-143365822D01*
X201919943Y-143363126D01*
X201891477Y-143356295D01*
X201884345Y-143352083D01*
X201864848Y-143344813D01*
X201844934Y-143352083D01*
X201812147Y-143361160D01*
X201764522Y-143364813D01*
X201711736Y-143363228D01*
X201663464Y-143356589D01*
X201635282Y-143348072D01*
X201580747Y-143313063D01*
X201546665Y-143264479D01*
X201531343Y-143199882D01*
X201531201Y-143198223D01*
X201532545Y-143169566D01*
X201654144Y-143169566D01*
X201664774Y-143202161D01*
X201682090Y-143220505D01*
X201716848Y-143234379D01*
X201762727Y-143239917D01*
X201809512Y-143237191D01*
X201846986Y-143226274D01*
X201857485Y-143219269D01*
X201875832Y-143186904D01*
X201880480Y-143150111D01*
X201880480Y-143101763D01*
X201810918Y-143101763D01*
X201744833Y-143106850D01*
X201694736Y-143121263D01*
X201663571Y-143143729D01*
X201654144Y-143169566D01*
X201532545Y-143169566D01*
X201534513Y-143127647D01*
X201557790Y-143071845D01*
X201601552Y-143029647D01*
X201607601Y-143025808D01*
X201633593Y-143013309D01*
X201665765Y-143005740D01*
X201710740Y-143002061D01*
X201764169Y-143001216D01*
X201880480Y-143001169D01*
X201880480Y-142952411D01*
X201875547Y-142914581D01*
X201862957Y-142889236D01*
X201861483Y-142887887D01*
X201833466Y-142876800D01*
X201791174Y-142872503D01*
X201744436Y-142874615D01*
X201703082Y-142882756D01*
X201678543Y-142894965D01*
X201665247Y-142904746D01*
X201651206Y-142906613D01*
X201631829Y-142898600D01*
X201602524Y-142878739D01*
X201558697Y-142845063D01*
X201554675Y-142841909D01*
X201556736Y-142830236D01*
X201573932Y-142810822D01*
X201600067Y-142789248D01*
X201628948Y-142771096D01*
X201638022Y-142766809D01*
X201671120Y-142758256D01*
X201719620Y-142752155D01*
X201773805Y-142749708D01*
X201776339Y-142749703D01*
X201854290Y-142754555D01*
G36*
X202245144Y-142751020D02*
X202263961Y-142756660D01*
X202270027Y-142769053D01*
X202270282Y-142774647D01*
X202271371Y-142790230D01*
X202278868Y-142792676D01*
X202299119Y-142781993D01*
X202311149Y-142774694D01*
X202349100Y-142759063D01*
X202394428Y-142751334D01*
X202441956Y-142750740D01*
X202486505Y-142756513D01*
X202522898Y-142767884D01*
X202545957Y-142784088D01*
X202550504Y-142804355D01*
X202548209Y-142809843D01*
X202531480Y-142832626D01*
X202505537Y-142860647D01*
X202500845Y-142865177D01*
X202476117Y-142886005D01*
X202454782Y-142892735D01*
X202424945Y-142888038D01*
X202412992Y-142884917D01*
X202375795Y-142877421D01*
X202349641Y-142880792D01*
X202327554Y-142892681D01*
X202307322Y-142908635D01*
X202292421Y-142928700D01*
X202282066Y-142956702D01*
X202275471Y-142996467D01*
X202271851Y-143051823D01*
X202270422Y-143126594D01*
X202270282Y-143171740D01*
X202270282Y-143365822D01*
X202144540Y-143365822D01*
X202144540Y-142749683D01*
X202207411Y-142749683D01*
X202245144Y-142751020D01*
X202245144Y-142751020D01*
G37*
X202245144Y-142751020D02*
X202263961Y-142756660D01*
X202270027Y-142769053D01*
X202270282Y-142774647D01*
X202271371Y-142790230D01*
X202278868Y-142792676D01*
X202299119Y-142781993D01*
X202311149Y-142774694D01*
X202349100Y-142759063D01*
X202394428Y-142751334D01*
X202441956Y-142750740D01*
X202486505Y-142756513D01*
X202522898Y-142767884D01*
X202545957Y-142784088D01*
X202550504Y-142804355D01*
X202548209Y-142809843D01*
X202531480Y-142832626D01*
X202505537Y-142860647D01*
X202500845Y-142865177D01*
X202476117Y-142886005D01*
X202454782Y-142892735D01*
X202424945Y-142888038D01*
X202412992Y-142884917D01*
X202375795Y-142877421D01*
X202349641Y-142880792D01*
X202327554Y-142892681D01*
X202307322Y-142908635D01*
X202292421Y-142928700D01*
X202282066Y-142956702D01*
X202275471Y-142996467D01*
X202271851Y-143051823D01*
X202270422Y-143126594D01*
X202270282Y-143171740D01*
X202270282Y-143365822D01*
X202144540Y-143365822D01*
X202144540Y-142749683D01*
X202207411Y-142749683D01*
X202245144Y-142751020D01*
G36*
X203037312Y-143365822D02*
X202968154Y-143365822D01*
X202928012Y-143364645D01*
X202907106Y-143359772D01*
X202899578Y-143349186D01*
X202898995Y-143342029D01*
X202897726Y-143327676D01*
X202889721Y-143324923D01*
X202868685Y-143333771D01*
X202852327Y-143342029D01*
X202789523Y-143361597D01*
X202721252Y-143362729D01*
X202665748Y-143348135D01*
X202614062Y-143312877D01*
X202574662Y-143260835D01*
X202553087Y-143199450D01*
X202552538Y-143196018D01*
X202549333Y-143158571D01*
X202547739Y-143104813D01*
X202547867Y-143064155D01*
X202685221Y-143064155D01*
X202688403Y-143118194D01*
X202695641Y-143162735D01*
X202705440Y-143187888D01*
X202742511Y-143222260D01*
X202786526Y-143234582D01*
X202831916Y-143224618D01*
X202870703Y-143194895D01*
X202885392Y-143174905D01*
X202893981Y-143151050D01*
X202898004Y-143116230D01*
X202898995Y-143063930D01*
X202897222Y-143012139D01*
X202892537Y-142966634D01*
X202885897Y-142936181D01*
X202884790Y-142933452D01*
X202858009Y-142901000D01*
X202818921Y-142883183D01*
X202775185Y-142880306D01*
X202734462Y-142892674D01*
X202704413Y-142920593D01*
X202701296Y-142926148D01*
X202691539Y-142960022D01*
X202686223Y-143008728D01*
X202685221Y-143064155D01*
X202547867Y-143064155D01*
X202547932Y-143043540D01*
X202548836Y-143010563D01*
X202554986Y-142928981D01*
X202567767Y-142867730D01*
X202589029Y-142822449D01*
X202620622Y-142788779D01*
X202651293Y-142769014D01*
X202694146Y-142755120D01*
X202747444Y-142750354D01*
X202802020Y-142754236D01*
X202848708Y-142766282D01*
X202873376Y-142780693D01*
X202898995Y-142803878D01*
X202898995Y-142510773D01*
X203037312Y-142510773D01*
X203037312Y-143365822D01*
X203037312Y-143365822D01*
G37*
X203037312Y-143365822D02*
X202968154Y-143365822D01*
X202928012Y-143364645D01*
X202907106Y-143359772D01*
X202899578Y-143349186D01*
X202898995Y-143342029D01*
X202897726Y-143327676D01*
X202889721Y-143324923D01*
X202868685Y-143333771D01*
X202852327Y-143342029D01*
X202789523Y-143361597D01*
X202721252Y-143362729D01*
X202665748Y-143348135D01*
X202614062Y-143312877D01*
X202574662Y-143260835D01*
X202553087Y-143199450D01*
X202552538Y-143196018D01*
X202549333Y-143158571D01*
X202547739Y-143104813D01*
X202547867Y-143064155D01*
X202685221Y-143064155D01*
X202688403Y-143118194D01*
X202695641Y-143162735D01*
X202705440Y-143187888D01*
X202742511Y-143222260D01*
X202786526Y-143234582D01*
X202831916Y-143224618D01*
X202870703Y-143194895D01*
X202885392Y-143174905D01*
X202893981Y-143151050D01*
X202898004Y-143116230D01*
X202898995Y-143063930D01*
X202897222Y-143012139D01*
X202892537Y-142966634D01*
X202885897Y-142936181D01*
X202884790Y-142933452D01*
X202858009Y-142901000D01*
X202818921Y-142883183D01*
X202775185Y-142880306D01*
X202734462Y-142892674D01*
X202704413Y-142920593D01*
X202701296Y-142926148D01*
X202691539Y-142960022D01*
X202686223Y-143008728D01*
X202685221Y-143064155D01*
X202547867Y-143064155D01*
X202547932Y-143043540D01*
X202548836Y-143010563D01*
X202554986Y-142928981D01*
X202567767Y-142867730D01*
X202589029Y-142822449D01*
X202620622Y-142788779D01*
X202651293Y-142769014D01*
X202694146Y-142755120D01*
X202747444Y-142750354D01*
X202802020Y-142754236D01*
X202848708Y-142766282D01*
X202873376Y-142780693D01*
X202898995Y-142803878D01*
X202898995Y-142510773D01*
X203037312Y-142510773D01*
X203037312Y-143365822D01*
G36*
X203520024Y-142752237D02*
X203569755Y-142755971D01*
X203699791Y-143145773D01*
X203720178Y-143076614D01*
X203732446Y-143033874D01*
X203748585Y-142976115D01*
X203766012Y-142912625D01*
X203775226Y-142878570D01*
X203809888Y-142749683D01*
X203952891Y-142749683D01*
X203910146Y-142884857D01*
X203889096Y-142951342D01*
X203863667Y-143031539D01*
X203837110Y-143115193D01*
X203813402Y-143189782D01*
X203759402Y-143359535D01*
X203701098Y-143363328D01*
X203642795Y-143367122D01*
X203611179Y-143262734D01*
X203591682Y-143197889D01*
X203570404Y-143126400D01*
X203551808Y-143063263D01*
X203551074Y-143060750D01*
X203537184Y-143017969D01*
X203524929Y-142988779D01*
X203516346Y-142977741D01*
X203514582Y-142979018D01*
X203508391Y-142996130D01*
X203496628Y-143032787D01*
X203480725Y-143084378D01*
X203462114Y-143146294D01*
X203452043Y-143180352D01*
X203397507Y-143365822D01*
X203281764Y-143365822D01*
X203189237Y-143073471D01*
X203163244Y-142991462D01*
X203139566Y-142916987D01*
X203119320Y-142853544D01*
X203103626Y-142804632D01*
X203093602Y-142773749D01*
X203090555Y-142764726D01*
X203092967Y-142755487D01*
X203111908Y-142751441D01*
X203151323Y-142751846D01*
X203157493Y-142752152D01*
X203230586Y-142755971D01*
X203278457Y-142932010D01*
X203296053Y-142996211D01*
X203311777Y-143052649D01*
X203324246Y-143096422D01*
X203332074Y-143122630D01*
X203333520Y-143126903D01*
X203339514Y-143121990D01*
X203351601Y-143096532D01*
X203368393Y-143053997D01*
X203388503Y-142997850D01*
X203405503Y-142947130D01*
X203470294Y-142748504D01*
X203520024Y-142752237D01*
X203520024Y-142752237D01*
G37*
X203520024Y-142752237D02*
X203569755Y-142755971D01*
X203699791Y-143145773D01*
X203720178Y-143076614D01*
X203732446Y-143033874D01*
X203748585Y-142976115D01*
X203766012Y-142912625D01*
X203775226Y-142878570D01*
X203809888Y-142749683D01*
X203952891Y-142749683D01*
X203910146Y-142884857D01*
X203889096Y-142951342D01*
X203863667Y-143031539D01*
X203837110Y-143115193D01*
X203813402Y-143189782D01*
X203759402Y-143359535D01*
X203701098Y-143363328D01*
X203642795Y-143367122D01*
X203611179Y-143262734D01*
X203591682Y-143197889D01*
X203570404Y-143126400D01*
X203551808Y-143063263D01*
X203551074Y-143060750D01*
X203537184Y-143017969D01*
X203524929Y-142988779D01*
X203516346Y-142977741D01*
X203514582Y-142979018D01*
X203508391Y-142996130D01*
X203496628Y-143032787D01*
X203480725Y-143084378D01*
X203462114Y-143146294D01*
X203452043Y-143180352D01*
X203397507Y-143365822D01*
X203281764Y-143365822D01*
X203189237Y-143073471D01*
X203163244Y-142991462D01*
X203139566Y-142916987D01*
X203119320Y-142853544D01*
X203103626Y-142804632D01*
X203093602Y-142773749D01*
X203090555Y-142764726D01*
X203092967Y-142755487D01*
X203111908Y-142751441D01*
X203151323Y-142751846D01*
X203157493Y-142752152D01*
X203230586Y-142755971D01*
X203278457Y-142932010D01*
X203296053Y-142996211D01*
X203311777Y-143052649D01*
X203324246Y-143096422D01*
X203332074Y-143122630D01*
X203333520Y-143126903D01*
X203339514Y-143121990D01*
X203351601Y-143096532D01*
X203368393Y-143053997D01*
X203388503Y-142997850D01*
X203405503Y-142947130D01*
X203470294Y-142748504D01*
X203520024Y-142752237D01*
G36*
X204276911Y-142753417D02*
X204329911Y-142766290D01*
X204345231Y-142773110D01*
X204374928Y-142790974D01*
X204397720Y-142811093D01*
X204414583Y-142836962D01*
X204426498Y-142872073D01*
X204434442Y-142919920D01*
X204439394Y-142983996D01*
X204442331Y-143067794D01*
X204443447Y-143123768D01*
X204447552Y-143365822D01*
X204377432Y-143365822D01*
X204334893Y-143364038D01*
X204312976Y-143357942D01*
X204307312Y-143347706D01*
X204304321Y-143336637D01*
X204290951Y-143338754D01*
X204272733Y-143347629D01*
X204227124Y-143361233D01*
X204168507Y-143364899D01*
X204106854Y-143358903D01*
X204052138Y-143343521D01*
X204047230Y-143341386D01*
X203997223Y-143306255D01*
X203964256Y-143257419D01*
X203949087Y-143200333D01*
X203950246Y-143179824D01*
X204074008Y-143179824D01*
X204084913Y-143207425D01*
X204117245Y-143227204D01*
X204169410Y-143237819D01*
X204197287Y-143239228D01*
X204243747Y-143235620D01*
X204274629Y-143221597D01*
X204282164Y-143214931D01*
X204302576Y-143178666D01*
X204307312Y-143145773D01*
X204307312Y-143101763D01*
X204246013Y-143101763D01*
X204174756Y-143105395D01*
X204124776Y-143116818D01*
X204093196Y-143136824D01*
X204086126Y-143145743D01*
X204074008Y-143179824D01*
X203950246Y-143179824D01*
X203952471Y-143140456D01*
X203975163Y-143083244D01*
X204006124Y-143044580D01*
X204024876Y-143027864D01*
X204043233Y-143016878D01*
X204067119Y-143010180D01*
X204102457Y-143006326D01*
X204155169Y-143003873D01*
X204176077Y-143003168D01*
X204307312Y-142998879D01*
X204307120Y-142959158D01*
X204302037Y-142917405D01*
X204283662Y-142892158D01*
X204246539Y-142876030D01*
X204245543Y-142875742D01*
X204192910Y-142869400D01*
X204141406Y-142877684D01*
X204103130Y-142897827D01*
X204087772Y-142907773D01*
X204071230Y-142906397D01*
X204045775Y-142891987D01*
X204030828Y-142881817D01*
X204001591Y-142860088D01*
X203983480Y-142843800D01*
X203980574Y-142839137D01*
X203992540Y-142815005D01*
X204027896Y-142786185D01*
X204043253Y-142776461D01*
X204087401Y-142759714D01*
X204146898Y-142750227D01*
X204212987Y-142748095D01*
X204276911Y-142753417D01*
X204276911Y-142753417D01*
G37*
X204276911Y-142753417D02*
X204329911Y-142766290D01*
X204345231Y-142773110D01*
X204374928Y-142790974D01*
X204397720Y-142811093D01*
X204414583Y-142836962D01*
X204426498Y-142872073D01*
X204434442Y-142919920D01*
X204439394Y-142983996D01*
X204442331Y-143067794D01*
X204443447Y-143123768D01*
X204447552Y-143365822D01*
X204377432Y-143365822D01*
X204334893Y-143364038D01*
X204312976Y-143357942D01*
X204307312Y-143347706D01*
X204304321Y-143336637D01*
X204290951Y-143338754D01*
X204272733Y-143347629D01*
X204227124Y-143361233D01*
X204168507Y-143364899D01*
X204106854Y-143358903D01*
X204052138Y-143343521D01*
X204047230Y-143341386D01*
X203997223Y-143306255D01*
X203964256Y-143257419D01*
X203949087Y-143200333D01*
X203950246Y-143179824D01*
X204074008Y-143179824D01*
X204084913Y-143207425D01*
X204117245Y-143227204D01*
X204169410Y-143237819D01*
X204197287Y-143239228D01*
X204243747Y-143235620D01*
X204274629Y-143221597D01*
X204282164Y-143214931D01*
X204302576Y-143178666D01*
X204307312Y-143145773D01*
X204307312Y-143101763D01*
X204246013Y-143101763D01*
X204174756Y-143105395D01*
X204124776Y-143116818D01*
X204093196Y-143136824D01*
X204086126Y-143145743D01*
X204074008Y-143179824D01*
X203950246Y-143179824D01*
X203952471Y-143140456D01*
X203975163Y-143083244D01*
X204006124Y-143044580D01*
X204024876Y-143027864D01*
X204043233Y-143016878D01*
X204067119Y-143010180D01*
X204102457Y-143006326D01*
X204155169Y-143003873D01*
X204176077Y-143003168D01*
X204307312Y-142998879D01*
X204307120Y-142959158D01*
X204302037Y-142917405D01*
X204283662Y-142892158D01*
X204246539Y-142876030D01*
X204245543Y-142875742D01*
X204192910Y-142869400D01*
X204141406Y-142877684D01*
X204103130Y-142897827D01*
X204087772Y-142907773D01*
X204071230Y-142906397D01*
X204045775Y-142891987D01*
X204030828Y-142881817D01*
X204001591Y-142860088D01*
X203983480Y-142843800D01*
X203980574Y-142839137D01*
X203992540Y-142815005D01*
X204027896Y-142786185D01*
X204043253Y-142776461D01*
X204087401Y-142759714D01*
X204146898Y-142750227D01*
X204212987Y-142748095D01*
X204276911Y-142753417D01*
G36*
X204873755Y-142749486D02*
X204922095Y-142759015D01*
X204949614Y-142773125D01*
X204978564Y-142796568D01*
X204937376Y-142848571D01*
X204911982Y-142880064D01*
X204894738Y-142895428D01*
X204877602Y-142897776D01*
X204852527Y-142890217D01*
X204840757Y-142885941D01*
X204792770Y-142879631D01*
X204748824Y-142893156D01*
X204716560Y-142923710D01*
X204711319Y-142933452D01*
X204705612Y-142959258D01*
X204701206Y-143006817D01*
X204698311Y-143072758D01*
X204697131Y-143153710D01*
X204697114Y-143165226D01*
X204697114Y-143365822D01*
X204558797Y-143365822D01*
X204558797Y-142749683D01*
X204627956Y-142749683D01*
X204667833Y-142750725D01*
X204688607Y-142755358D01*
X204696289Y-142765849D01*
X204697114Y-142775745D01*
X204697114Y-142801806D01*
X204730245Y-142775745D01*
X204768235Y-142757965D01*
X204819270Y-142749174D01*
X204873755Y-142749486D01*
X204873755Y-142749486D01*
G37*
X204873755Y-142749486D02*
X204922095Y-142759015D01*
X204949614Y-142773125D01*
X204978564Y-142796568D01*
X204937376Y-142848571D01*
X204911982Y-142880064D01*
X204894738Y-142895428D01*
X204877602Y-142897776D01*
X204852527Y-142890217D01*
X204840757Y-142885941D01*
X204792770Y-142879631D01*
X204748824Y-142893156D01*
X204716560Y-142923710D01*
X204711319Y-142933452D01*
X204705612Y-142959258D01*
X204701206Y-143006817D01*
X204698311Y-143072758D01*
X204697131Y-143153710D01*
X204697114Y-143165226D01*
X204697114Y-143365822D01*
X204558797Y-143365822D01*
X204558797Y-142749683D01*
X204627956Y-142749683D01*
X204667833Y-142750725D01*
X204688607Y-142755358D01*
X204696289Y-142765849D01*
X204697114Y-142775745D01*
X204697114Y-142801806D01*
X204730245Y-142775745D01*
X204768235Y-142757965D01*
X204819270Y-142749174D01*
X204873755Y-142749486D01*
G36*
X205271081Y-142752970D02*
X205331185Y-142768597D01*
X205381521Y-142800848D01*
X205405893Y-142824940D01*
X205445845Y-142881895D01*
X205468742Y-142947965D01*
X205476608Y-143029182D01*
X205476648Y-143035748D01*
X205476718Y-143101763D01*
X205096764Y-143101763D01*
X205104863Y-143136342D01*
X205119487Y-143167659D01*
X205145081Y-143200291D01*
X205150435Y-143205500D01*
X205196443Y-143233694D01*
X205248910Y-143238475D01*
X205309303Y-143219926D01*
X205319540Y-143214931D01*
X205350939Y-143199745D01*
X205371970Y-143191094D01*
X205375639Y-143190293D01*
X205388448Y-143198063D01*
X205412878Y-143217072D01*
X205425279Y-143227460D01*
X205450976Y-143251321D01*
X205459415Y-143267077D01*
X205453558Y-143281571D01*
X205450428Y-143285534D01*
X205429225Y-143302879D01*
X205394238Y-143323959D01*
X205369837Y-143336265D01*
X205300572Y-143357946D01*
X205223888Y-143364971D01*
X205151265Y-143356647D01*
X205130926Y-143350686D01*
X205067976Y-143316952D01*
X205021315Y-143265045D01*
X204990673Y-143194459D01*
X204975782Y-143104692D01*
X204974147Y-143057753D01*
X204978921Y-142989413D01*
X205099490Y-142989413D01*
X205111152Y-142994465D01*
X205142498Y-142998429D01*
X205188071Y-143000768D01*
X205218946Y-143001169D01*
X205274481Y-143000783D01*
X205309533Y-142998975D01*
X205328762Y-142994773D01*
X205336830Y-142987203D01*
X205338401Y-142976218D01*
X205327621Y-142942381D01*
X205300480Y-142908940D01*
X205264777Y-142883272D01*
X205229060Y-142872772D01*
X205180548Y-142882086D01*
X205138553Y-142909013D01*
X205109436Y-142947827D01*
X205099490Y-142989413D01*
X204978921Y-142989413D01*
X204981099Y-142958236D01*
X205002555Y-142878949D01*
X205038970Y-142819263D01*
X205090797Y-142778549D01*
X205158490Y-142756179D01*
X205195162Y-142751871D01*
X205271081Y-142752970D01*
X205271081Y-142752970D01*
G37*
X205271081Y-142752970D02*
X205331185Y-142768597D01*
X205381521Y-142800848D01*
X205405893Y-142824940D01*
X205445845Y-142881895D01*
X205468742Y-142947965D01*
X205476608Y-143029182D01*
X205476648Y-143035748D01*
X205476718Y-143101763D01*
X205096764Y-143101763D01*
X205104863Y-143136342D01*
X205119487Y-143167659D01*
X205145081Y-143200291D01*
X205150435Y-143205500D01*
X205196443Y-143233694D01*
X205248910Y-143238475D01*
X205309303Y-143219926D01*
X205319540Y-143214931D01*
X205350939Y-143199745D01*
X205371970Y-143191094D01*
X205375639Y-143190293D01*
X205388448Y-143198063D01*
X205412878Y-143217072D01*
X205425279Y-143227460D01*
X205450976Y-143251321D01*
X205459415Y-143267077D01*
X205453558Y-143281571D01*
X205450428Y-143285534D01*
X205429225Y-143302879D01*
X205394238Y-143323959D01*
X205369837Y-143336265D01*
X205300572Y-143357946D01*
X205223888Y-143364971D01*
X205151265Y-143356647D01*
X205130926Y-143350686D01*
X205067976Y-143316952D01*
X205021315Y-143265045D01*
X204990673Y-143194459D01*
X204975782Y-143104692D01*
X204974147Y-143057753D01*
X204978921Y-142989413D01*
X205099490Y-142989413D01*
X205111152Y-142994465D01*
X205142498Y-142998429D01*
X205188071Y-143000768D01*
X205218946Y-143001169D01*
X205274481Y-143000783D01*
X205309533Y-142998975D01*
X205328762Y-142994773D01*
X205336830Y-142987203D01*
X205338401Y-142976218D01*
X205327621Y-142942381D01*
X205300480Y-142908940D01*
X205264777Y-142883272D01*
X205229060Y-142872772D01*
X205180548Y-142882086D01*
X205138553Y-142909013D01*
X205109436Y-142947827D01*
X205099490Y-142989413D01*
X204978921Y-142989413D01*
X204981099Y-142958236D01*
X205002555Y-142878949D01*
X205038970Y-142819263D01*
X205090797Y-142778549D01*
X205158490Y-142756179D01*
X205195162Y-142751871D01*
X205271081Y-142752970D01*
G36*
X200700239Y-141813148D02*
X200766021Y-141842231D01*
X200815960Y-141890793D01*
X200850126Y-141958908D01*
X200868593Y-142046651D01*
X200869917Y-142060351D01*
X200870954Y-142156939D01*
X200857507Y-142241602D01*
X200830392Y-142310221D01*
X200815873Y-142332294D01*
X200765299Y-142379011D01*
X200700891Y-142409268D01*
X200628834Y-142421824D01*
X200555315Y-142415439D01*
X200499428Y-142395772D01*
X200451368Y-142362629D01*
X200412088Y-142319175D01*
X200411408Y-142318158D01*
X200395456Y-142291338D01*
X200385090Y-142264368D01*
X200378812Y-142230332D01*
X200375127Y-142182310D01*
X200373503Y-142142931D01*
X200372828Y-142107219D01*
X200498545Y-142107219D01*
X200499774Y-142142770D01*
X200504234Y-142190094D01*
X200512103Y-142220465D01*
X200526293Y-142242072D01*
X200539583Y-142254694D01*
X200586698Y-142281122D01*
X200635995Y-142284653D01*
X200681907Y-142265639D01*
X200704862Y-142244331D01*
X200721404Y-142222859D01*
X200731079Y-142202313D01*
X200735326Y-142175574D01*
X200735580Y-142135523D01*
X200734272Y-142098638D01*
X200731457Y-142045947D01*
X200726995Y-142011772D01*
X200718952Y-141989480D01*
X200705397Y-141972442D01*
X200694655Y-141962703D01*
X200649723Y-141937123D01*
X200601251Y-141935847D01*
X200560606Y-141950999D01*
X200525933Y-141982642D01*
X200505276Y-142034620D01*
X200498545Y-142107219D01*
X200372828Y-142107219D01*
X200372021Y-142064621D01*
X200374552Y-142006056D01*
X200382138Y-141962007D01*
X200395819Y-141927248D01*
X200416635Y-141896551D01*
X200424353Y-141887436D01*
X200472611Y-141842021D01*
X200524372Y-141815493D01*
X200587672Y-141804379D01*
X200618539Y-141803471D01*
X200700239Y-141813148D01*
X200700239Y-141813148D01*
G37*
X200700239Y-141813148D02*
X200766021Y-141842231D01*
X200815960Y-141890793D01*
X200850126Y-141958908D01*
X200868593Y-142046651D01*
X200869917Y-142060351D01*
X200870954Y-142156939D01*
X200857507Y-142241602D01*
X200830392Y-142310221D01*
X200815873Y-142332294D01*
X200765299Y-142379011D01*
X200700891Y-142409268D01*
X200628834Y-142421824D01*
X200555315Y-142415439D01*
X200499428Y-142395772D01*
X200451368Y-142362629D01*
X200412088Y-142319175D01*
X200411408Y-142318158D01*
X200395456Y-142291338D01*
X200385090Y-142264368D01*
X200378812Y-142230332D01*
X200375127Y-142182310D01*
X200373503Y-142142931D01*
X200372828Y-142107219D01*
X200498545Y-142107219D01*
X200499774Y-142142770D01*
X200504234Y-142190094D01*
X200512103Y-142220465D01*
X200526293Y-142242072D01*
X200539583Y-142254694D01*
X200586698Y-142281122D01*
X200635995Y-142284653D01*
X200681907Y-142265639D01*
X200704862Y-142244331D01*
X200721404Y-142222859D01*
X200731079Y-142202313D01*
X200735326Y-142175574D01*
X200735580Y-142135523D01*
X200734272Y-142098638D01*
X200731457Y-142045947D01*
X200726995Y-142011772D01*
X200718952Y-141989480D01*
X200705397Y-141972442D01*
X200694655Y-141962703D01*
X200649723Y-141937123D01*
X200601251Y-141935847D01*
X200560606Y-141950999D01*
X200525933Y-141982642D01*
X200505276Y-142034620D01*
X200498545Y-142107219D01*
X200372828Y-142107219D01*
X200372021Y-142064621D01*
X200374552Y-142006056D01*
X200382138Y-141962007D01*
X200395819Y-141927248D01*
X200416635Y-141896551D01*
X200424353Y-141887436D01*
X200472611Y-141842021D01*
X200524372Y-141815493D01*
X200587672Y-141804379D01*
X200618539Y-141803471D01*
X200700239Y-141813148D01*
G36*
X201881801Y-141820614D02*
X201894332Y-141826514D01*
X201937701Y-141858283D01*
X201978710Y-141904646D01*
X202009332Y-141955696D01*
X202018041Y-141979166D01*
X202025988Y-142021091D01*
X202030726Y-142071757D01*
X202031301Y-142092679D01*
X202031371Y-142158693D01*
X201651417Y-142158693D01*
X201659517Y-142193273D01*
X201679396Y-142234170D01*
X201714153Y-142269514D01*
X201755502Y-142292282D01*
X201781851Y-142297010D01*
X201817584Y-142291273D01*
X201860218Y-142276882D01*
X201874701Y-142270262D01*
X201928260Y-142243513D01*
X201973967Y-142278376D01*
X202000342Y-142301955D01*
X202014376Y-142321417D01*
X202015086Y-142327129D01*
X202002549Y-142340973D01*
X201975072Y-142362012D01*
X201950134Y-142378425D01*
X201882836Y-142407930D01*
X201807390Y-142421284D01*
X201732612Y-142417812D01*
X201673005Y-142399663D01*
X201611559Y-142360784D01*
X201567892Y-142309595D01*
X201540574Y-142243367D01*
X201528178Y-142159371D01*
X201527079Y-142120936D01*
X201531478Y-142032861D01*
X201532018Y-142030299D01*
X201657918Y-142030299D01*
X201661385Y-142038558D01*
X201675637Y-142043113D01*
X201705030Y-142045065D01*
X201753925Y-142045517D01*
X201772752Y-142045525D01*
X201830033Y-142044843D01*
X201866359Y-142042364D01*
X201885896Y-142037443D01*
X201892810Y-142029434D01*
X201893055Y-142026862D01*
X201885164Y-142006423D01*
X201865415Y-141977789D01*
X201856925Y-141967763D01*
X201825406Y-141939408D01*
X201792551Y-141928259D01*
X201774849Y-141927327D01*
X201726961Y-141938981D01*
X201686801Y-141970285D01*
X201661327Y-142015752D01*
X201660875Y-142017233D01*
X201657918Y-142030299D01*
X201532018Y-142030299D01*
X201546108Y-141963510D01*
X201572462Y-141908025D01*
X201604693Y-141868639D01*
X201664283Y-141825931D01*
X201734332Y-141803109D01*
X201808839Y-141801046D01*
X201881801Y-141820614D01*
X201881801Y-141820614D01*
G37*
X201881801Y-141820614D02*
X201894332Y-141826514D01*
X201937701Y-141858283D01*
X201978710Y-141904646D01*
X202009332Y-141955696D01*
X202018041Y-141979166D01*
X202025988Y-142021091D01*
X202030726Y-142071757D01*
X202031301Y-142092679D01*
X202031371Y-142158693D01*
X201651417Y-142158693D01*
X201659517Y-142193273D01*
X201679396Y-142234170D01*
X201714153Y-142269514D01*
X201755502Y-142292282D01*
X201781851Y-142297010D01*
X201817584Y-142291273D01*
X201860218Y-142276882D01*
X201874701Y-142270262D01*
X201928260Y-142243513D01*
X201973967Y-142278376D01*
X202000342Y-142301955D01*
X202014376Y-142321417D01*
X202015086Y-142327129D01*
X202002549Y-142340973D01*
X201975072Y-142362012D01*
X201950134Y-142378425D01*
X201882836Y-142407930D01*
X201807390Y-142421284D01*
X201732612Y-142417812D01*
X201673005Y-142399663D01*
X201611559Y-142360784D01*
X201567892Y-142309595D01*
X201540574Y-142243367D01*
X201528178Y-142159371D01*
X201527079Y-142120936D01*
X201531478Y-142032861D01*
X201532018Y-142030299D01*
X201657918Y-142030299D01*
X201661385Y-142038558D01*
X201675637Y-142043113D01*
X201705030Y-142045065D01*
X201753925Y-142045517D01*
X201772752Y-142045525D01*
X201830033Y-142044843D01*
X201866359Y-142042364D01*
X201885896Y-142037443D01*
X201892810Y-142029434D01*
X201893055Y-142026862D01*
X201885164Y-142006423D01*
X201865415Y-141977789D01*
X201856925Y-141967763D01*
X201825406Y-141939408D01*
X201792551Y-141928259D01*
X201774849Y-141927327D01*
X201726961Y-141938981D01*
X201686801Y-141970285D01*
X201661327Y-142015752D01*
X201660875Y-142017233D01*
X201657918Y-142030299D01*
X201532018Y-142030299D01*
X201546108Y-141963510D01*
X201572462Y-141908025D01*
X201604693Y-141868639D01*
X201664283Y-141825931D01*
X201734332Y-141803109D01*
X201808839Y-141801046D01*
X201881801Y-141820614D01*
G36*
X203252517Y-141804452D02*
X203300134Y-141813482D01*
X203349534Y-141832370D01*
X203354812Y-141834777D01*
X203392274Y-141854476D01*
X203418217Y-141872781D01*
X203426603Y-141884508D01*
X203418617Y-141903632D01*
X203399220Y-141931850D01*
X203390610Y-141942384D01*
X203355128Y-141983847D01*
X203309385Y-141956858D01*
X203265850Y-141938878D01*
X203215550Y-141929267D01*
X203167312Y-141928660D01*
X203129967Y-141937691D01*
X203121005Y-141943327D01*
X203103937Y-141969171D01*
X203101863Y-141998941D01*
X203114634Y-142022197D01*
X203122188Y-142026708D01*
X203144825Y-142032309D01*
X203184615Y-142038892D01*
X203233666Y-142045183D01*
X203242715Y-142046170D01*
X203321496Y-142059798D01*
X203378636Y-142082946D01*
X203416530Y-142117752D01*
X203437579Y-142166354D01*
X203444135Y-142225718D01*
X203435077Y-142293198D01*
X203405664Y-142346188D01*
X203355778Y-142384783D01*
X203285300Y-142409081D01*
X203207065Y-142418667D01*
X203143266Y-142418552D01*
X203091516Y-142409845D01*
X203056173Y-142397825D01*
X203011517Y-142376880D01*
X202970247Y-142352574D01*
X202955579Y-142341876D01*
X202917857Y-142311084D01*
X202963352Y-142265049D01*
X203008847Y-142219013D01*
X203060572Y-142253243D01*
X203112452Y-142278952D01*
X203167851Y-142292399D01*
X203221105Y-142293818D01*
X203266549Y-142283443D01*
X203298516Y-142261507D01*
X203308838Y-142242998D01*
X203307289Y-142213314D01*
X203281640Y-142190615D01*
X203231960Y-142174940D01*
X203177531Y-142167695D01*
X203093764Y-142153873D01*
X203031533Y-142127796D01*
X202990007Y-142088699D01*
X202968353Y-142035820D01*
X202965353Y-141973126D01*
X202980171Y-141907642D01*
X203013954Y-141858144D01*
X203067005Y-141824408D01*
X203139626Y-141806207D01*
X203193428Y-141802639D01*
X203252517Y-141804452D01*
X203252517Y-141804452D01*
G37*
X203252517Y-141804452D02*
X203300134Y-141813482D01*
X203349534Y-141832370D01*
X203354812Y-141834777D01*
X203392274Y-141854476D01*
X203418217Y-141872781D01*
X203426603Y-141884508D01*
X203418617Y-141903632D01*
X203399220Y-141931850D01*
X203390610Y-141942384D01*
X203355128Y-141983847D01*
X203309385Y-141956858D01*
X203265850Y-141938878D01*
X203215550Y-141929267D01*
X203167312Y-141928660D01*
X203129967Y-141937691D01*
X203121005Y-141943327D01*
X203103937Y-141969171D01*
X203101863Y-141998941D01*
X203114634Y-142022197D01*
X203122188Y-142026708D01*
X203144825Y-142032309D01*
X203184615Y-142038892D01*
X203233666Y-142045183D01*
X203242715Y-142046170D01*
X203321496Y-142059798D01*
X203378636Y-142082946D01*
X203416530Y-142117752D01*
X203437579Y-142166354D01*
X203444135Y-142225718D01*
X203435077Y-142293198D01*
X203405664Y-142346188D01*
X203355778Y-142384783D01*
X203285300Y-142409081D01*
X203207065Y-142418667D01*
X203143266Y-142418552D01*
X203091516Y-142409845D01*
X203056173Y-142397825D01*
X203011517Y-142376880D01*
X202970247Y-142352574D01*
X202955579Y-142341876D01*
X202917857Y-142311084D01*
X202963352Y-142265049D01*
X203008847Y-142219013D01*
X203060572Y-142253243D01*
X203112452Y-142278952D01*
X203167851Y-142292399D01*
X203221105Y-142293818D01*
X203266549Y-142283443D01*
X203298516Y-142261507D01*
X203308838Y-142242998D01*
X203307289Y-142213314D01*
X203281640Y-142190615D01*
X203231960Y-142174940D01*
X203177531Y-142167695D01*
X203093764Y-142153873D01*
X203031533Y-142127796D01*
X202990007Y-142088699D01*
X202968353Y-142035820D01*
X202965353Y-141973126D01*
X202980171Y-141907642D01*
X203013954Y-141858144D01*
X203067005Y-141824408D01*
X203139626Y-141806207D01*
X203193428Y-141802639D01*
X203252517Y-141804452D01*
G36*
X203849262Y-141814055D02*
X203912863Y-141848692D01*
X203962623Y-141903372D01*
X203986068Y-141947842D01*
X203996134Y-141987121D01*
X204002656Y-142043116D01*
X204005451Y-142107621D01*
X204004336Y-142172429D01*
X203999126Y-142229334D01*
X203993041Y-142259727D01*
X203972514Y-142301306D01*
X203936963Y-142345468D01*
X203894119Y-142384087D01*
X203851711Y-142409034D01*
X203850677Y-142409430D01*
X203798053Y-142420331D01*
X203735688Y-142420601D01*
X203676424Y-142410676D01*
X203653540Y-142402722D01*
X203594602Y-142369300D01*
X203552390Y-142325511D01*
X203524656Y-142267538D01*
X203509151Y-142191565D01*
X203505643Y-142151771D01*
X203506090Y-142101766D01*
X203640876Y-142101766D01*
X203645417Y-142174732D01*
X203658486Y-142230334D01*
X203679256Y-142265861D01*
X203694052Y-142276020D01*
X203731964Y-142283104D01*
X203777027Y-142281007D01*
X203815987Y-142270812D01*
X203826204Y-142265204D01*
X203853159Y-142232538D01*
X203870951Y-142182545D01*
X203878524Y-142121705D01*
X203874825Y-142056497D01*
X203866557Y-142017253D01*
X203842820Y-141971805D01*
X203805349Y-141943396D01*
X203760220Y-141933573D01*
X203713511Y-141943887D01*
X203677632Y-141969112D01*
X203658777Y-141989925D01*
X203647772Y-142010439D01*
X203642526Y-142038203D01*
X203640949Y-142080762D01*
X203640876Y-142101766D01*
X203506090Y-142101766D01*
X203506594Y-142045580D01*
X203523888Y-141958501D01*
X203557529Y-141890530D01*
X203607518Y-141841664D01*
X203673856Y-141811899D01*
X203688101Y-141808448D01*
X203773710Y-141800345D01*
X203849262Y-141814055D01*
X203849262Y-141814055D01*
G37*
X203849262Y-141814055D02*
X203912863Y-141848692D01*
X203962623Y-141903372D01*
X203986068Y-141947842D01*
X203996134Y-141987121D01*
X204002656Y-142043116D01*
X204005451Y-142107621D01*
X204004336Y-142172429D01*
X203999126Y-142229334D01*
X203993041Y-142259727D01*
X203972514Y-142301306D01*
X203936963Y-142345468D01*
X203894119Y-142384087D01*
X203851711Y-142409034D01*
X203850677Y-142409430D01*
X203798053Y-142420331D01*
X203735688Y-142420601D01*
X203676424Y-142410676D01*
X203653540Y-142402722D01*
X203594602Y-142369300D01*
X203552390Y-142325511D01*
X203524656Y-142267538D01*
X203509151Y-142191565D01*
X203505643Y-142151771D01*
X203506090Y-142101766D01*
X203640876Y-142101766D01*
X203645417Y-142174732D01*
X203658486Y-142230334D01*
X203679256Y-142265861D01*
X203694052Y-142276020D01*
X203731964Y-142283104D01*
X203777027Y-142281007D01*
X203815987Y-142270812D01*
X203826204Y-142265204D01*
X203853159Y-142232538D01*
X203870951Y-142182545D01*
X203878524Y-142121705D01*
X203874825Y-142056497D01*
X203866557Y-142017253D01*
X203842820Y-141971805D01*
X203805349Y-141943396D01*
X203760220Y-141933573D01*
X203713511Y-141943887D01*
X203677632Y-141969112D01*
X203658777Y-141989925D01*
X203647772Y-142010439D01*
X203642526Y-142038203D01*
X203640949Y-142080762D01*
X203640876Y-142101766D01*
X203506090Y-142101766D01*
X203506594Y-142045580D01*
X203523888Y-141958501D01*
X203557529Y-141890530D01*
X203607518Y-141841664D01*
X203673856Y-141811899D01*
X203688101Y-141808448D01*
X203773710Y-141800345D01*
X203849262Y-141814055D01*
G36*
X204231867Y-142002342D02*
X204233055Y-142094563D01*
X204237397Y-142164610D01*
X204246058Y-142215381D01*
X204260204Y-142249772D01*
X204281000Y-142270679D01*
X204309610Y-142281000D01*
X204345035Y-142283636D01*
X204382136Y-142280682D01*
X204410318Y-142269889D01*
X204430743Y-142248360D01*
X204444579Y-142213199D01*
X204452991Y-142161510D01*
X204457143Y-142090394D01*
X204458203Y-142002342D01*
X204458203Y-141806614D01*
X204596520Y-141806614D01*
X204596520Y-142410179D01*
X204527362Y-142410179D01*
X204485670Y-142408489D01*
X204464201Y-142402556D01*
X204458203Y-142391293D01*
X204454591Y-142381261D01*
X204440214Y-142383383D01*
X204411236Y-142397580D01*
X204344819Y-142419480D01*
X204274375Y-142417928D01*
X204206877Y-142394147D01*
X204174733Y-142375362D01*
X204150215Y-142355022D01*
X204132304Y-142329573D01*
X204119979Y-142295458D01*
X204112223Y-142249121D01*
X204108016Y-142187007D01*
X204106340Y-142105561D01*
X204106124Y-142042578D01*
X204106124Y-141806614D01*
X204231867Y-141806614D01*
X204231867Y-142002342D01*
X204231867Y-142002342D01*
G37*
X204231867Y-142002342D02*
X204233055Y-142094563D01*
X204237397Y-142164610D01*
X204246058Y-142215381D01*
X204260204Y-142249772D01*
X204281000Y-142270679D01*
X204309610Y-142281000D01*
X204345035Y-142283636D01*
X204382136Y-142280682D01*
X204410318Y-142269889D01*
X204430743Y-142248360D01*
X204444579Y-142213199D01*
X204452991Y-142161510D01*
X204457143Y-142090394D01*
X204458203Y-142002342D01*
X204458203Y-141806614D01*
X204596520Y-141806614D01*
X204596520Y-142410179D01*
X204527362Y-142410179D01*
X204485670Y-142408489D01*
X204464201Y-142402556D01*
X204458203Y-142391293D01*
X204454591Y-142381261D01*
X204440214Y-142383383D01*
X204411236Y-142397580D01*
X204344819Y-142419480D01*
X204274375Y-142417928D01*
X204206877Y-142394147D01*
X204174733Y-142375362D01*
X204150215Y-142355022D01*
X204132304Y-142329573D01*
X204119979Y-142295458D01*
X204112223Y-142249121D01*
X204108016Y-142187007D01*
X204106340Y-142105561D01*
X204106124Y-142042578D01*
X204106124Y-141806614D01*
X204231867Y-141806614D01*
X204231867Y-142002342D01*
G36*
X205455726Y-141811880D02*
X205528580Y-141842830D01*
X205551527Y-141857895D01*
X205580854Y-141881048D01*
X205599264Y-141899253D01*
X205602461Y-141905183D01*
X205593435Y-141918340D01*
X205570337Y-141940667D01*
X205551844Y-141956250D01*
X205501228Y-141996926D01*
X205461260Y-141963295D01*
X205430374Y-141941584D01*
X205400259Y-141934090D01*
X205365792Y-141935920D01*
X205311061Y-141949528D01*
X205273386Y-141977772D01*
X205250491Y-142023433D01*
X205240097Y-142089289D01*
X205240095Y-142089331D01*
X205240994Y-142162939D01*
X205254963Y-142216946D01*
X205282828Y-142253716D01*
X205301825Y-142266168D01*
X205352276Y-142281673D01*
X205406163Y-142281683D01*
X205453046Y-142266638D01*
X205464144Y-142259287D01*
X205491976Y-142240511D01*
X205513736Y-142237434D01*
X205537204Y-142251409D01*
X205563149Y-142276510D01*
X205604216Y-142318880D01*
X205558621Y-142356464D01*
X205488174Y-142398882D01*
X205408733Y-142419785D01*
X205325715Y-142418272D01*
X205271194Y-142404411D01*
X205207470Y-142370135D01*
X205156505Y-142316212D01*
X205133351Y-142278149D01*
X205114599Y-142223536D01*
X205105215Y-142154369D01*
X205105143Y-142079407D01*
X205114324Y-142007409D01*
X205132699Y-141947137D01*
X205135593Y-141940958D01*
X205178452Y-141880351D01*
X205236479Y-141836224D01*
X205305091Y-141809493D01*
X205379701Y-141801073D01*
X205455726Y-141811880D01*
X205455726Y-141811880D01*
G37*
X205455726Y-141811880D02*
X205528580Y-141842830D01*
X205551527Y-141857895D01*
X205580854Y-141881048D01*
X205599264Y-141899253D01*
X205602461Y-141905183D01*
X205593435Y-141918340D01*
X205570337Y-141940667D01*
X205551844Y-141956250D01*
X205501228Y-141996926D01*
X205461260Y-141963295D01*
X205430374Y-141941584D01*
X205400259Y-141934090D01*
X205365792Y-141935920D01*
X205311061Y-141949528D01*
X205273386Y-141977772D01*
X205250491Y-142023433D01*
X205240097Y-142089289D01*
X205240095Y-142089331D01*
X205240994Y-142162939D01*
X205254963Y-142216946D01*
X205282828Y-142253716D01*
X205301825Y-142266168D01*
X205352276Y-142281673D01*
X205406163Y-142281683D01*
X205453046Y-142266638D01*
X205464144Y-142259287D01*
X205491976Y-142240511D01*
X205513736Y-142237434D01*
X205537204Y-142251409D01*
X205563149Y-142276510D01*
X205604216Y-142318880D01*
X205558621Y-142356464D01*
X205488174Y-142398882D01*
X205408733Y-142419785D01*
X205325715Y-142418272D01*
X205271194Y-142404411D01*
X205207470Y-142370135D01*
X205156505Y-142316212D01*
X205133351Y-142278149D01*
X205114599Y-142223536D01*
X205105215Y-142154369D01*
X205105143Y-142079407D01*
X205114324Y-142007409D01*
X205132699Y-141947137D01*
X205135593Y-141940958D01*
X205178452Y-141880351D01*
X205236479Y-141836224D01*
X205305091Y-141809493D01*
X205379701Y-141801073D01*
X205455726Y-141811880D01*
G36*
X205916398Y-141804457D02*
X205948596Y-141812279D01*
X206010325Y-141840921D01*
X206063110Y-141884667D01*
X206099641Y-141937117D01*
X206104660Y-141948893D01*
X206111545Y-141979740D01*
X206116364Y-142025371D01*
X206118005Y-142071492D01*
X206118005Y-142158693D01*
X205935678Y-142158693D01*
X205860479Y-142158978D01*
X205807503Y-142160704D01*
X205773825Y-142165181D01*
X205756520Y-142173720D01*
X205752663Y-142187630D01*
X205759329Y-142208222D01*
X205771270Y-142232315D01*
X205804580Y-142272525D01*
X205850868Y-142292558D01*
X205907444Y-142291905D01*
X205971531Y-142270101D01*
X206026917Y-142243193D01*
X206072875Y-142279532D01*
X206118833Y-142315872D01*
X206075596Y-142355819D01*
X206017874Y-142393563D01*
X205946886Y-142416320D01*
X205870529Y-142422688D01*
X205796699Y-142411268D01*
X205784787Y-142407393D01*
X205719899Y-142373506D01*
X205671630Y-142322986D01*
X205638965Y-142254325D01*
X205620885Y-142166014D01*
X205620675Y-142164121D01*
X205619056Y-142067878D01*
X205625600Y-142033542D01*
X205753352Y-142033542D01*
X205765084Y-142038822D01*
X205796938Y-142042867D01*
X205843897Y-142045176D01*
X205873654Y-142045525D01*
X205929148Y-142045306D01*
X205963846Y-142043916D01*
X205982101Y-142040251D01*
X205988266Y-142033210D01*
X205986695Y-142021690D01*
X205985378Y-142017233D01*
X205962882Y-141975355D01*
X205927503Y-141941604D01*
X205896280Y-141926773D01*
X205854801Y-141927668D01*
X205812769Y-141946164D01*
X205777512Y-141976786D01*
X205756354Y-142014062D01*
X205753352Y-142033542D01*
X205625600Y-142033542D01*
X205635190Y-141983229D01*
X205667198Y-141912191D01*
X205713201Y-141856779D01*
X205771321Y-141819009D01*
X205839680Y-141800896D01*
X205916398Y-141804457D01*
X205916398Y-141804457D01*
G37*
X205916398Y-141804457D02*
X205948596Y-141812279D01*
X206010325Y-141840921D01*
X206063110Y-141884667D01*
X206099641Y-141937117D01*
X206104660Y-141948893D01*
X206111545Y-141979740D01*
X206116364Y-142025371D01*
X206118005Y-142071492D01*
X206118005Y-142158693D01*
X205935678Y-142158693D01*
X205860479Y-142158978D01*
X205807503Y-142160704D01*
X205773825Y-142165181D01*
X205756520Y-142173720D01*
X205752663Y-142187630D01*
X205759329Y-142208222D01*
X205771270Y-142232315D01*
X205804580Y-142272525D01*
X205850868Y-142292558D01*
X205907444Y-142291905D01*
X205971531Y-142270101D01*
X206026917Y-142243193D01*
X206072875Y-142279532D01*
X206118833Y-142315872D01*
X206075596Y-142355819D01*
X206017874Y-142393563D01*
X205946886Y-142416320D01*
X205870529Y-142422688D01*
X205796699Y-142411268D01*
X205784787Y-142407393D01*
X205719899Y-142373506D01*
X205671630Y-142322986D01*
X205638965Y-142254325D01*
X205620885Y-142166014D01*
X205620675Y-142164121D01*
X205619056Y-142067878D01*
X205625600Y-142033542D01*
X205753352Y-142033542D01*
X205765084Y-142038822D01*
X205796938Y-142042867D01*
X205843897Y-142045176D01*
X205873654Y-142045525D01*
X205929148Y-142045306D01*
X205963846Y-142043916D01*
X205982101Y-142040251D01*
X205988266Y-142033210D01*
X205986695Y-142021690D01*
X205985378Y-142017233D01*
X205962882Y-141975355D01*
X205927503Y-141941604D01*
X205896280Y-141926773D01*
X205854801Y-141927668D01*
X205812769Y-141946164D01*
X205777512Y-141976786D01*
X205756354Y-142014062D01*
X205753352Y-142033542D01*
X205625600Y-142033542D01*
X205635190Y-141983229D01*
X205667198Y-141912191D01*
X205713201Y-141856779D01*
X205771321Y-141819009D01*
X205839680Y-141800896D01*
X205916398Y-141804457D01*
G36*
X202484488Y-141817002D02*
X202515783Y-141831950D01*
X202546091Y-141853541D01*
X202569182Y-141878391D01*
X202586000Y-141910087D01*
X202597494Y-141952214D01*
X202604609Y-142008358D01*
X202608293Y-142082106D01*
X202609492Y-142177044D01*
X202609511Y-142186985D01*
X202609787Y-142410179D01*
X202471470Y-142410179D01*
X202471470Y-142204418D01*
X202471372Y-142128189D01*
X202470691Y-142072939D01*
X202468849Y-142034501D01*
X202465267Y-142008706D01*
X202459368Y-141991384D01*
X202450573Y-141978368D01*
X202438320Y-141965507D01*
X202395453Y-141937873D01*
X202348657Y-141932745D01*
X202304076Y-141950217D01*
X202288572Y-141963221D01*
X202277190Y-141975447D01*
X202269019Y-141988540D01*
X202263526Y-142006615D01*
X202260180Y-142033787D01*
X202258449Y-142074170D01*
X202257803Y-142131879D01*
X202257708Y-142202132D01*
X202257708Y-142410179D01*
X202119391Y-142410179D01*
X202119391Y-141806614D01*
X202188550Y-141806614D01*
X202230072Y-141808256D01*
X202251494Y-141814087D01*
X202257705Y-141825461D01*
X202257708Y-141825798D01*
X202260590Y-141836938D01*
X202273301Y-141835674D01*
X202298574Y-141823434D01*
X202355895Y-141805424D01*
X202421463Y-141803421D01*
X202484488Y-141817002D01*
X202484488Y-141817002D01*
G37*
X202484488Y-141817002D02*
X202515783Y-141831950D01*
X202546091Y-141853541D01*
X202569182Y-141878391D01*
X202586000Y-141910087D01*
X202597494Y-141952214D01*
X202604609Y-142008358D01*
X202608293Y-142082106D01*
X202609492Y-142177044D01*
X202609511Y-142186985D01*
X202609787Y-142410179D01*
X202471470Y-142410179D01*
X202471470Y-142204418D01*
X202471372Y-142128189D01*
X202470691Y-142072939D01*
X202468849Y-142034501D01*
X202465267Y-142008706D01*
X202459368Y-141991384D01*
X202450573Y-141978368D01*
X202438320Y-141965507D01*
X202395453Y-141937873D01*
X202348657Y-141932745D01*
X202304076Y-141950217D01*
X202288572Y-141963221D01*
X202277190Y-141975447D01*
X202269019Y-141988540D01*
X202263526Y-142006615D01*
X202260180Y-142033787D01*
X202258449Y-142074170D01*
X202257803Y-142131879D01*
X202257708Y-142202132D01*
X202257708Y-142410179D01*
X202119391Y-142410179D01*
X202119391Y-141806614D01*
X202188550Y-141806614D01*
X202230072Y-141808256D01*
X202251494Y-141814087D01*
X202257705Y-141825461D01*
X202257708Y-141825798D01*
X202260590Y-141836938D01*
X202273301Y-141835674D01*
X202298574Y-141823434D01*
X202355895Y-141805424D01*
X202421463Y-141803421D01*
X202484488Y-141817002D01*
G36*
X205037960Y-141806030D02*
X205081211Y-141819245D01*
X205109058Y-141835941D01*
X205118129Y-141849145D01*
X205115632Y-141864797D01*
X205099431Y-141889385D01*
X205085732Y-141906800D01*
X205057492Y-141938283D01*
X205036275Y-141951529D01*
X205018188Y-141950664D01*
X204964535Y-141937010D01*
X204925130Y-141937630D01*
X204893132Y-141953104D01*
X204882390Y-141962161D01*
X204848005Y-141994027D01*
X204848005Y-142410179D01*
X204709688Y-142410179D01*
X204709688Y-141806614D01*
X204778847Y-141806614D01*
X204820369Y-141808256D01*
X204841791Y-141814087D01*
X204848002Y-141825461D01*
X204848005Y-141825798D01*
X204850939Y-141837713D01*
X204864204Y-141836159D01*
X204882584Y-141827563D01*
X204920546Y-141811568D01*
X204951372Y-141801945D01*
X204991036Y-141799478D01*
X205037960Y-141806030D01*
X205037960Y-141806030D01*
G37*
X205037960Y-141806030D02*
X205081211Y-141819245D01*
X205109058Y-141835941D01*
X205118129Y-141849145D01*
X205115632Y-141864797D01*
X205099431Y-141889385D01*
X205085732Y-141906800D01*
X205057492Y-141938283D01*
X205036275Y-141951529D01*
X205018188Y-141950664D01*
X204964535Y-141937010D01*
X204925130Y-141937630D01*
X204893132Y-141953104D01*
X204882390Y-141962161D01*
X204848005Y-141994027D01*
X204848005Y-142410179D01*
X204709688Y-142410179D01*
X204709688Y-141806614D01*
X204778847Y-141806614D01*
X204820369Y-141808256D01*
X204841791Y-141814087D01*
X204848002Y-141825461D01*
X204848005Y-141825798D01*
X204850939Y-141837713D01*
X204864204Y-141836159D01*
X204882584Y-141827563D01*
X204920546Y-141811568D01*
X204951372Y-141801945D01*
X204991036Y-141799478D01*
X205037960Y-141806030D01*
G36*
X203615464Y-137638018D02*
X203672312Y-137939570D01*
X204091838Y-138112512D01*
X204343484Y-137941395D01*
X204413958Y-137893750D01*
X204477663Y-137851210D01*
X204531626Y-137815715D01*
X204572873Y-137789210D01*
X204598434Y-137773636D01*
X204605395Y-137770278D01*
X204617935Y-137778914D01*
X204644731Y-137802792D01*
X204682780Y-137838859D01*
X204729079Y-137884067D01*
X204780623Y-137935364D01*
X204834409Y-137989701D01*
X204887435Y-138044028D01*
X204936695Y-138095295D01*
X204979187Y-138140451D01*
X205011907Y-138176446D01*
X205031851Y-138200230D01*
X205036619Y-138208190D01*
X205029757Y-138222865D01*
X205010520Y-138255014D01*
X204980930Y-138301492D01*
X204943010Y-138359156D01*
X204898782Y-138424860D01*
X204873154Y-138462336D01*
X204826441Y-138530768D01*
X204784932Y-138592520D01*
X204750640Y-138644519D01*
X204725580Y-138683692D01*
X204711764Y-138706965D01*
X204709688Y-138711855D01*
X204714395Y-138725755D01*
X204727223Y-138758150D01*
X204746238Y-138804485D01*
X204769503Y-138860206D01*
X204795084Y-138920758D01*
X204821045Y-138981586D01*
X204845450Y-139038136D01*
X204866363Y-139085852D01*
X204881849Y-139120181D01*
X204889972Y-139136568D01*
X204890452Y-139137212D01*
X204903207Y-139140341D01*
X204937177Y-139147321D01*
X204988840Y-139157467D01*
X205054676Y-139170092D01*
X205131164Y-139184509D01*
X205175790Y-139192823D01*
X205257521Y-139208384D01*
X205331343Y-139223192D01*
X205393521Y-139236436D01*
X205440322Y-139247305D01*
X205468009Y-139254989D01*
X205473574Y-139257427D01*
X205479026Y-139273930D01*
X205483424Y-139311200D01*
X205486772Y-139364880D01*
X205489074Y-139430612D01*
X205490332Y-139504037D01*
X205490548Y-139580796D01*
X205489727Y-139656532D01*
X205487871Y-139726886D01*
X205484982Y-139787500D01*
X205481065Y-139834016D01*
X205476122Y-139862075D01*
X205473157Y-139867916D01*
X205455434Y-139874917D01*
X205417881Y-139884927D01*
X205365464Y-139896769D01*
X205303152Y-139909267D01*
X205281400Y-139913310D01*
X205176524Y-139932520D01*
X205093680Y-139947991D01*
X205030130Y-139960337D01*
X204983137Y-139970173D01*
X204949963Y-139978114D01*
X204927871Y-139984776D01*
X204914124Y-139990773D01*
X204905984Y-139996719D01*
X204904845Y-139997894D01*
X204893477Y-140016826D01*
X204876135Y-140053669D01*
X204854550Y-140103913D01*
X204830454Y-140163046D01*
X204805579Y-140226556D01*
X204781657Y-140289932D01*
X204760419Y-140348662D01*
X204743597Y-140398235D01*
X204732922Y-140434139D01*
X204730127Y-140451862D01*
X204730360Y-140452483D01*
X204739831Y-140466970D01*
X204761318Y-140498844D01*
X204792563Y-140544789D01*
X204831307Y-140601485D01*
X204875293Y-140665617D01*
X204887819Y-140683842D01*
X204932484Y-140749914D01*
X204971788Y-140810200D01*
X205003588Y-140861235D01*
X205025745Y-140899560D01*
X205036117Y-140921711D01*
X205036619Y-140924432D01*
X205027905Y-140938736D01*
X205003825Y-140967072D01*
X204967476Y-141006396D01*
X204921953Y-141053661D01*
X204870352Y-141105823D01*
X204815767Y-141159835D01*
X204761294Y-141212653D01*
X204710029Y-141261231D01*
X204665067Y-141302523D01*
X204629504Y-141333485D01*
X204606435Y-141351070D01*
X204600054Y-141353941D01*
X204585199Y-141347178D01*
X204554786Y-141328939D01*
X204513768Y-141302297D01*
X204482209Y-141280852D01*
X204425025Y-141241503D01*
X204357306Y-141195171D01*
X204289380Y-141148913D01*
X204252861Y-141124155D01*
X204129252Y-141040547D01*
X204025491Y-141096650D01*
X203978220Y-141121228D01*
X203938023Y-141140331D01*
X203910826Y-141151227D01*
X203903902Y-141152743D01*
X203895577Y-141141549D01*
X203879154Y-141109917D01*
X203855857Y-141060765D01*
X203826914Y-140997010D01*
X203793550Y-140921571D01*
X203756991Y-140837364D01*
X203718464Y-140747308D01*
X203679194Y-140654321D01*
X203640408Y-140561320D01*
X203603330Y-140471223D01*
X203569189Y-140386948D01*
X203539208Y-140311413D01*
X203514616Y-140247534D01*
X203496636Y-140198231D01*
X203486497Y-140166421D01*
X203484866Y-140155496D01*
X203497791Y-140141561D01*
X203526089Y-140118940D01*
X203563846Y-140092333D01*
X203567015Y-140090228D01*
X203664600Y-140012114D01*
X203743286Y-139920982D01*
X203802391Y-139819745D01*
X203841232Y-139711318D01*
X203859128Y-139598614D01*
X203855397Y-139484548D01*
X203829357Y-139372034D01*
X203780325Y-139263985D01*
X203765900Y-139240345D01*
X203690869Y-139144887D01*
X203602230Y-139068232D01*
X203503049Y-139010780D01*
X203396395Y-138972929D01*
X203285336Y-138955078D01*
X203172939Y-138957625D01*
X203062273Y-138980970D01*
X202956406Y-139025510D01*
X202858405Y-139091645D01*
X202828090Y-139118487D01*
X202750938Y-139202512D01*
X202694718Y-139290966D01*
X202656153Y-139390115D01*
X202634674Y-139488303D01*
X202629372Y-139598697D01*
X202647052Y-139709640D01*
X202685919Y-139817381D01*
X202744177Y-139918169D01*
X202820031Y-140008256D01*
X202911683Y-140083892D01*
X202923728Y-140091864D01*
X202961889Y-140117974D01*
X202990899Y-140140595D01*
X203004768Y-140155039D01*
X203004969Y-140155496D01*
X203001992Y-140171121D01*
X202990189Y-140206582D01*
X202970786Y-140258962D01*
X202945012Y-140325345D01*
X202914091Y-140402814D01*
X202879251Y-140488450D01*
X202841717Y-140579337D01*
X202802717Y-140672559D01*
X202763477Y-140765197D01*
X202725224Y-140854335D01*
X202689183Y-140937055D01*
X202656583Y-141010441D01*
X202628648Y-141071575D01*
X202606605Y-141117541D01*
X202591682Y-141145421D01*
X202585672Y-141152743D01*
X202567309Y-141147041D01*
X202532948Y-141131749D01*
X202488516Y-141109599D01*
X202464083Y-141096650D01*
X202360322Y-141040547D01*
X202236713Y-141124155D01*
X202173614Y-141166987D01*
X202104530Y-141214122D01*
X202039793Y-141258503D01*
X202007366Y-141280852D01*
X201961759Y-141311477D01*
X201923140Y-141335747D01*
X201896548Y-141350587D01*
X201887910Y-141353724D01*
X201875339Y-141345261D01*
X201847516Y-141321636D01*
X201807139Y-141285302D01*
X201756905Y-141238711D01*
X201699512Y-141184317D01*
X201663214Y-141149392D01*
X201599710Y-141086996D01*
X201544827Y-141031188D01*
X201500786Y-140984354D01*
X201469805Y-140948882D01*
X201454102Y-140927161D01*
X201452595Y-140922752D01*
X201459586Y-140905985D01*
X201478906Y-140872082D01*
X201508409Y-140824476D01*
X201545955Y-140766599D01*
X201589400Y-140701884D01*
X201601755Y-140683842D01*
X201646773Y-140618267D01*
X201687160Y-140559228D01*
X201720660Y-140510042D01*
X201745014Y-140474028D01*
X201757964Y-140454502D01*
X201759215Y-140452483D01*
X201757344Y-140436922D01*
X201747413Y-140402709D01*
X201731153Y-140354355D01*
X201710295Y-140296371D01*
X201686573Y-140233270D01*
X201661716Y-140169563D01*
X201637458Y-140109761D01*
X201615529Y-140058376D01*
X201597662Y-140019919D01*
X201585587Y-139998902D01*
X201584729Y-139997894D01*
X201577346Y-139991888D01*
X201564875Y-139985948D01*
X201544580Y-139979460D01*
X201513722Y-139971809D01*
X201469566Y-139962380D01*
X201409374Y-139950559D01*
X201330407Y-139935729D01*
X201229930Y-139917277D01*
X201208175Y-139913310D01*
X201143698Y-139900853D01*
X201087489Y-139888666D01*
X201044513Y-139877926D01*
X201019740Y-139869809D01*
X201016418Y-139867916D01*
X201010944Y-139851138D01*
X201006494Y-139813645D01*
X201003072Y-139759794D01*
X201000681Y-139693944D01*
X200999323Y-139620453D01*
X200999001Y-139543680D01*
X200999719Y-139467983D01*
X201001479Y-139397720D01*
X201004284Y-139337250D01*
X201008138Y-139290930D01*
X201013043Y-139263119D01*
X201016000Y-139257427D01*
X201032463Y-139251686D01*
X201069949Y-139242345D01*
X201124725Y-139230215D01*
X201193055Y-139216107D01*
X201271206Y-139200830D01*
X201313784Y-139192823D01*
X201394571Y-139177721D01*
X201466613Y-139164040D01*
X201526389Y-139152467D01*
X201570379Y-139143687D01*
X201595061Y-139138387D01*
X201599123Y-139137212D01*
X201605989Y-139123965D01*
X201620502Y-139092057D01*
X201640729Y-139046047D01*
X201664734Y-138990492D01*
X201690582Y-138929953D01*
X201716340Y-138868986D01*
X201740073Y-138812151D01*
X201759846Y-138764006D01*
X201773724Y-138729110D01*
X201779774Y-138712021D01*
X201779886Y-138711274D01*
X201773028Y-138697793D01*
X201753802Y-138666770D01*
X201724228Y-138621289D01*
X201686327Y-138564432D01*
X201642120Y-138499283D01*
X201616421Y-138461862D01*
X201569593Y-138393247D01*
X201528001Y-138330952D01*
X201493675Y-138278129D01*
X201468643Y-138237927D01*
X201454935Y-138213500D01*
X201452956Y-138208024D01*
X201461466Y-138195278D01*
X201484993Y-138168063D01*
X201520532Y-138129428D01*
X201565077Y-138082423D01*
X201615623Y-138030095D01*
X201669164Y-137975495D01*
X201722695Y-137921670D01*
X201773211Y-137871670D01*
X201817706Y-137828543D01*
X201853175Y-137795339D01*
X201876613Y-137775106D01*
X201884454Y-137770278D01*
X201897220Y-137777067D01*
X201927756Y-137796142D01*
X201973090Y-137825561D01*
X202030256Y-137863381D01*
X202096284Y-137907661D01*
X202146090Y-137941395D01*
X202397736Y-138112512D01*
X202607499Y-138026041D01*
X202817263Y-137939570D01*
X202874111Y-137638018D01*
X202930960Y-137336466D01*
X203558615Y-137336466D01*
X203615464Y-137638018D01*
X203615464Y-137638018D01*
G37*
X203615464Y-137638018D02*
X203672312Y-137939570D01*
X204091838Y-138112512D01*
X204343484Y-137941395D01*
X204413958Y-137893750D01*
X204477663Y-137851210D01*
X204531626Y-137815715D01*
X204572873Y-137789210D01*
X204598434Y-137773636D01*
X204605395Y-137770278D01*
X204617935Y-137778914D01*
X204644731Y-137802792D01*
X204682780Y-137838859D01*
X204729079Y-137884067D01*
X204780623Y-137935364D01*
X204834409Y-137989701D01*
X204887435Y-138044028D01*
X204936695Y-138095295D01*
X204979187Y-138140451D01*
X205011907Y-138176446D01*
X205031851Y-138200230D01*
X205036619Y-138208190D01*
X205029757Y-138222865D01*
X205010520Y-138255014D01*
X204980930Y-138301492D01*
X204943010Y-138359156D01*
X204898782Y-138424860D01*
X204873154Y-138462336D01*
X204826441Y-138530768D01*
X204784932Y-138592520D01*
X204750640Y-138644519D01*
X204725580Y-138683692D01*
X204711764Y-138706965D01*
X204709688Y-138711855D01*
X204714395Y-138725755D01*
X204727223Y-138758150D01*
X204746238Y-138804485D01*
X204769503Y-138860206D01*
X204795084Y-138920758D01*
X204821045Y-138981586D01*
X204845450Y-139038136D01*
X204866363Y-139085852D01*
X204881849Y-139120181D01*
X204889972Y-139136568D01*
X204890452Y-139137212D01*
X204903207Y-139140341D01*
X204937177Y-139147321D01*
X204988840Y-139157467D01*
X205054676Y-139170092D01*
X205131164Y-139184509D01*
X205175790Y-139192823D01*
X205257521Y-139208384D01*
X205331343Y-139223192D01*
X205393521Y-139236436D01*
X205440322Y-139247305D01*
X205468009Y-139254989D01*
X205473574Y-139257427D01*
X205479026Y-139273930D01*
X205483424Y-139311200D01*
X205486772Y-139364880D01*
X205489074Y-139430612D01*
X205490332Y-139504037D01*
X205490548Y-139580796D01*
X205489727Y-139656532D01*
X205487871Y-139726886D01*
X205484982Y-139787500D01*
X205481065Y-139834016D01*
X205476122Y-139862075D01*
X205473157Y-139867916D01*
X205455434Y-139874917D01*
X205417881Y-139884927D01*
X205365464Y-139896769D01*
X205303152Y-139909267D01*
X205281400Y-139913310D01*
X205176524Y-139932520D01*
X205093680Y-139947991D01*
X205030130Y-139960337D01*
X204983137Y-139970173D01*
X204949963Y-139978114D01*
X204927871Y-139984776D01*
X204914124Y-139990773D01*
X204905984Y-139996719D01*
X204904845Y-139997894D01*
X204893477Y-140016826D01*
X204876135Y-140053669D01*
X204854550Y-140103913D01*
X204830454Y-140163046D01*
X204805579Y-140226556D01*
X204781657Y-140289932D01*
X204760419Y-140348662D01*
X204743597Y-140398235D01*
X204732922Y-140434139D01*
X204730127Y-140451862D01*
X204730360Y-140452483D01*
X204739831Y-140466970D01*
X204761318Y-140498844D01*
X204792563Y-140544789D01*
X204831307Y-140601485D01*
X204875293Y-140665617D01*
X204887819Y-140683842D01*
X204932484Y-140749914D01*
X204971788Y-140810200D01*
X205003588Y-140861235D01*
X205025745Y-140899560D01*
X205036117Y-140921711D01*
X205036619Y-140924432D01*
X205027905Y-140938736D01*
X205003825Y-140967072D01*
X204967476Y-141006396D01*
X204921953Y-141053661D01*
X204870352Y-141105823D01*
X204815767Y-141159835D01*
X204761294Y-141212653D01*
X204710029Y-141261231D01*
X204665067Y-141302523D01*
X204629504Y-141333485D01*
X204606435Y-141351070D01*
X204600054Y-141353941D01*
X204585199Y-141347178D01*
X204554786Y-141328939D01*
X204513768Y-141302297D01*
X204482209Y-141280852D01*
X204425025Y-141241503D01*
X204357306Y-141195171D01*
X204289380Y-141148913D01*
X204252861Y-141124155D01*
X204129252Y-141040547D01*
X204025491Y-141096650D01*
X203978220Y-141121228D01*
X203938023Y-141140331D01*
X203910826Y-141151227D01*
X203903902Y-141152743D01*
X203895577Y-141141549D01*
X203879154Y-141109917D01*
X203855857Y-141060765D01*
X203826914Y-140997010D01*
X203793550Y-140921571D01*
X203756991Y-140837364D01*
X203718464Y-140747308D01*
X203679194Y-140654321D01*
X203640408Y-140561320D01*
X203603330Y-140471223D01*
X203569189Y-140386948D01*
X203539208Y-140311413D01*
X203514616Y-140247534D01*
X203496636Y-140198231D01*
X203486497Y-140166421D01*
X203484866Y-140155496D01*
X203497791Y-140141561D01*
X203526089Y-140118940D01*
X203563846Y-140092333D01*
X203567015Y-140090228D01*
X203664600Y-140012114D01*
X203743286Y-139920982D01*
X203802391Y-139819745D01*
X203841232Y-139711318D01*
X203859128Y-139598614D01*
X203855397Y-139484548D01*
X203829357Y-139372034D01*
X203780325Y-139263985D01*
X203765900Y-139240345D01*
X203690869Y-139144887D01*
X203602230Y-139068232D01*
X203503049Y-139010780D01*
X203396395Y-138972929D01*
X203285336Y-138955078D01*
X203172939Y-138957625D01*
X203062273Y-138980970D01*
X202956406Y-139025510D01*
X202858405Y-139091645D01*
X202828090Y-139118487D01*
X202750938Y-139202512D01*
X202694718Y-139290966D01*
X202656153Y-139390115D01*
X202634674Y-139488303D01*
X202629372Y-139598697D01*
X202647052Y-139709640D01*
X202685919Y-139817381D01*
X202744177Y-139918169D01*
X202820031Y-140008256D01*
X202911683Y-140083892D01*
X202923728Y-140091864D01*
X202961889Y-140117974D01*
X202990899Y-140140595D01*
X203004768Y-140155039D01*
X203004969Y-140155496D01*
X203001992Y-140171121D01*
X202990189Y-140206582D01*
X202970786Y-140258962D01*
X202945012Y-140325345D01*
X202914091Y-140402814D01*
X202879251Y-140488450D01*
X202841717Y-140579337D01*
X202802717Y-140672559D01*
X202763477Y-140765197D01*
X202725224Y-140854335D01*
X202689183Y-140937055D01*
X202656583Y-141010441D01*
X202628648Y-141071575D01*
X202606605Y-141117541D01*
X202591682Y-141145421D01*
X202585672Y-141152743D01*
X202567309Y-141147041D01*
X202532948Y-141131749D01*
X202488516Y-141109599D01*
X202464083Y-141096650D01*
X202360322Y-141040547D01*
X202236713Y-141124155D01*
X202173614Y-141166987D01*
X202104530Y-141214122D01*
X202039793Y-141258503D01*
X202007366Y-141280852D01*
X201961759Y-141311477D01*
X201923140Y-141335747D01*
X201896548Y-141350587D01*
X201887910Y-141353724D01*
X201875339Y-141345261D01*
X201847516Y-141321636D01*
X201807139Y-141285302D01*
X201756905Y-141238711D01*
X201699512Y-141184317D01*
X201663214Y-141149392D01*
X201599710Y-141086996D01*
X201544827Y-141031188D01*
X201500786Y-140984354D01*
X201469805Y-140948882D01*
X201454102Y-140927161D01*
X201452595Y-140922752D01*
X201459586Y-140905985D01*
X201478906Y-140872082D01*
X201508409Y-140824476D01*
X201545955Y-140766599D01*
X201589400Y-140701884D01*
X201601755Y-140683842D01*
X201646773Y-140618267D01*
X201687160Y-140559228D01*
X201720660Y-140510042D01*
X201745014Y-140474028D01*
X201757964Y-140454502D01*
X201759215Y-140452483D01*
X201757344Y-140436922D01*
X201747413Y-140402709D01*
X201731153Y-140354355D01*
X201710295Y-140296371D01*
X201686573Y-140233270D01*
X201661716Y-140169563D01*
X201637458Y-140109761D01*
X201615529Y-140058376D01*
X201597662Y-140019919D01*
X201585587Y-139998902D01*
X201584729Y-139997894D01*
X201577346Y-139991888D01*
X201564875Y-139985948D01*
X201544580Y-139979460D01*
X201513722Y-139971809D01*
X201469566Y-139962380D01*
X201409374Y-139950559D01*
X201330407Y-139935729D01*
X201229930Y-139917277D01*
X201208175Y-139913310D01*
X201143698Y-139900853D01*
X201087489Y-139888666D01*
X201044513Y-139877926D01*
X201019740Y-139869809D01*
X201016418Y-139867916D01*
X201010944Y-139851138D01*
X201006494Y-139813645D01*
X201003072Y-139759794D01*
X201000681Y-139693944D01*
X200999323Y-139620453D01*
X200999001Y-139543680D01*
X200999719Y-139467983D01*
X201001479Y-139397720D01*
X201004284Y-139337250D01*
X201008138Y-139290930D01*
X201013043Y-139263119D01*
X201016000Y-139257427D01*
X201032463Y-139251686D01*
X201069949Y-139242345D01*
X201124725Y-139230215D01*
X201193055Y-139216107D01*
X201271206Y-139200830D01*
X201313784Y-139192823D01*
X201394571Y-139177721D01*
X201466613Y-139164040D01*
X201526389Y-139152467D01*
X201570379Y-139143687D01*
X201595061Y-139138387D01*
X201599123Y-139137212D01*
X201605989Y-139123965D01*
X201620502Y-139092057D01*
X201640729Y-139046047D01*
X201664734Y-138990492D01*
X201690582Y-138929953D01*
X201716340Y-138868986D01*
X201740073Y-138812151D01*
X201759846Y-138764006D01*
X201773724Y-138729110D01*
X201779774Y-138712021D01*
X201779886Y-138711274D01*
X201773028Y-138697793D01*
X201753802Y-138666770D01*
X201724228Y-138621289D01*
X201686327Y-138564432D01*
X201642120Y-138499283D01*
X201616421Y-138461862D01*
X201569593Y-138393247D01*
X201528001Y-138330952D01*
X201493675Y-138278129D01*
X201468643Y-138237927D01*
X201454935Y-138213500D01*
X201452956Y-138208024D01*
X201461466Y-138195278D01*
X201484993Y-138168063D01*
X201520532Y-138129428D01*
X201565077Y-138082423D01*
X201615623Y-138030095D01*
X201669164Y-137975495D01*
X201722695Y-137921670D01*
X201773211Y-137871670D01*
X201817706Y-137828543D01*
X201853175Y-137795339D01*
X201876613Y-137775106D01*
X201884454Y-137770278D01*
X201897220Y-137777067D01*
X201927756Y-137796142D01*
X201973090Y-137825561D01*
X202030256Y-137863381D01*
X202096284Y-137907661D01*
X202146090Y-137941395D01*
X202397736Y-138112512D01*
X202607499Y-138026041D01*
X202817263Y-137939570D01*
X202874111Y-137638018D01*
X202930960Y-137336466D01*
X203558615Y-137336466D01*
X203615464Y-137638018D01*
G04 #@! TO.C,U1*
D11*
X215715880Y-137934904D02*
X216525404Y-137934904D01*
X216620642Y-137887285D01*
X216668261Y-137839666D01*
X216715880Y-137744428D01*
X216715880Y-137553952D01*
X216668261Y-137458714D01*
X216620642Y-137411095D01*
X216525404Y-137363476D01*
X215715880Y-137363476D01*
X216715880Y-136363476D02*
X216715880Y-136934904D01*
X216715880Y-136649190D02*
X215715880Y-136649190D01*
X215858738Y-136744428D01*
X215953976Y-136839666D01*
X216001595Y-136934904D01*
G04 #@! TO.C,C2*
X213791333Y-144896142D02*
X213743714Y-144943761D01*
X213600857Y-144991380D01*
X213505619Y-144991380D01*
X213362761Y-144943761D01*
X213267523Y-144848523D01*
X213219904Y-144753285D01*
X213172285Y-144562809D01*
X213172285Y-144419952D01*
X213219904Y-144229476D01*
X213267523Y-144134238D01*
X213362761Y-144039000D01*
X213505619Y-143991380D01*
X213600857Y-143991380D01*
X213743714Y-144039000D01*
X213791333Y-144086619D01*
X214172285Y-144086619D02*
X214219904Y-144039000D01*
X214315142Y-143991380D01*
X214553238Y-143991380D01*
X214648476Y-144039000D01*
X214696095Y-144086619D01*
X214743714Y-144181857D01*
X214743714Y-144277095D01*
X214696095Y-144419952D01*
X214124666Y-144991380D01*
X214743714Y-144991380D01*
G04 #@! TO.C,C3*
X217629142Y-142038666D02*
X217676761Y-142086285D01*
X217724380Y-142229142D01*
X217724380Y-142324380D01*
X217676761Y-142467238D01*
X217581523Y-142562476D01*
X217486285Y-142610095D01*
X217295809Y-142657714D01*
X217152952Y-142657714D01*
X216962476Y-142610095D01*
X216867238Y-142562476D01*
X216772000Y-142467238D01*
X216724380Y-142324380D01*
X216724380Y-142229142D01*
X216772000Y-142086285D01*
X216819619Y-142038666D01*
X216724380Y-141705333D02*
X216724380Y-141086285D01*
X217105333Y-141419619D01*
X217105333Y-141276761D01*
X217152952Y-141181523D01*
X217200571Y-141133904D01*
X217295809Y-141086285D01*
X217533904Y-141086285D01*
X217629142Y-141133904D01*
X217676761Y-141181523D01*
X217724380Y-141276761D01*
X217724380Y-141562476D01*
X217676761Y-141657714D01*
X217629142Y-141705333D01*
G04 #@! TO.C,C4*
X213692142Y-130608666D02*
X213739761Y-130656285D01*
X213787380Y-130799142D01*
X213787380Y-130894380D01*
X213739761Y-131037238D01*
X213644523Y-131132476D01*
X213549285Y-131180095D01*
X213358809Y-131227714D01*
X213215952Y-131227714D01*
X213025476Y-131180095D01*
X212930238Y-131132476D01*
X212835000Y-131037238D01*
X212787380Y-130894380D01*
X212787380Y-130799142D01*
X212835000Y-130656285D01*
X212882619Y-130608666D01*
X213120714Y-129751523D02*
X213787380Y-129751523D01*
X212739761Y-129989619D02*
X213454047Y-130227714D01*
X213454047Y-129608666D01*
G04 #@! TO.C,J1*
X242286380Y-146242833D02*
X243000666Y-146242833D01*
X243143523Y-146290452D01*
X243238761Y-146385690D01*
X243286380Y-146528547D01*
X243286380Y-146623785D01*
X243286380Y-145242833D02*
X243286380Y-145814261D01*
X243286380Y-145528547D02*
X242286380Y-145528547D01*
X242429238Y-145623785D01*
X242524476Y-145719023D01*
X242572095Y-145814261D01*
G04 #@! TO.C,L1*
X228519380Y-130862666D02*
X228519380Y-131338857D01*
X227519380Y-131338857D01*
X228519380Y-130005523D02*
X228519380Y-130576952D01*
X228519380Y-130291238D02*
X227519380Y-130291238D01*
X227662238Y-130386476D01*
X227757476Y-130481714D01*
X227805095Y-130576952D01*
G04 #@! TO.C,R1*
X210374333Y-145044380D02*
X210041000Y-144568190D01*
X209802904Y-145044380D02*
X209802904Y-144044380D01*
X210183857Y-144044380D01*
X210279095Y-144092000D01*
X210326714Y-144139619D01*
X210374333Y-144234857D01*
X210374333Y-144377714D01*
X210326714Y-144472952D01*
X210279095Y-144520571D01*
X210183857Y-144568190D01*
X209802904Y-144568190D01*
X211326714Y-145044380D02*
X210755285Y-145044380D01*
X211041000Y-145044380D02*
X211041000Y-144044380D01*
X210945761Y-144187238D01*
X210850523Y-144282476D01*
X210755285Y-144330095D01*
G04 #@! TO.C,R2*
X208326380Y-131624666D02*
X207850190Y-131958000D01*
X208326380Y-132196095D02*
X207326380Y-132196095D01*
X207326380Y-131815142D01*
X207374000Y-131719904D01*
X207421619Y-131672285D01*
X207516857Y-131624666D01*
X207659714Y-131624666D01*
X207754952Y-131672285D01*
X207802571Y-131719904D01*
X207850190Y-131815142D01*
X207850190Y-132196095D01*
X207421619Y-131243714D02*
X207374000Y-131196095D01*
X207326380Y-131100857D01*
X207326380Y-130862761D01*
X207374000Y-130767523D01*
X207421619Y-130719904D01*
X207516857Y-130672285D01*
X207612095Y-130672285D01*
X207754952Y-130719904D01*
X208326380Y-131291333D01*
X208326380Y-130672285D01*
G04 #@! TO.C,R3*
X209850380Y-130100666D02*
X209374190Y-130434000D01*
X209850380Y-130672095D02*
X208850380Y-130672095D01*
X208850380Y-130291142D01*
X208898000Y-130195904D01*
X208945619Y-130148285D01*
X209040857Y-130100666D01*
X209183714Y-130100666D01*
X209278952Y-130148285D01*
X209326571Y-130195904D01*
X209374190Y-130291142D01*
X209374190Y-130672095D01*
X208850380Y-129767333D02*
X208850380Y-129148285D01*
X209231333Y-129481619D01*
X209231333Y-129338761D01*
X209278952Y-129243523D01*
X209326571Y-129195904D01*
X209421809Y-129148285D01*
X209659904Y-129148285D01*
X209755142Y-129195904D01*
X209802761Y-129243523D01*
X209850380Y-129338761D01*
X209850380Y-129624476D01*
X209802761Y-129719714D01*
X209755142Y-129767333D01*
G04 #@! TO.C,R4*
X204405333Y-133307380D02*
X204072000Y-132831190D01*
X203833904Y-133307380D02*
X203833904Y-132307380D01*
X204214857Y-132307380D01*
X204310095Y-132355000D01*
X204357714Y-132402619D01*
X204405333Y-132497857D01*
X204405333Y-132640714D01*
X204357714Y-132735952D01*
X204310095Y-132783571D01*
X204214857Y-132831190D01*
X203833904Y-132831190D01*
X205262476Y-132640714D02*
X205262476Y-133307380D01*
X205024380Y-132259761D02*
X204786285Y-132974047D01*
X205405333Y-132974047D01*
G04 #@! TO.C,D1*
X223626380Y-140832095D02*
X222626380Y-140832095D01*
X222626380Y-140594000D01*
X222674000Y-140451142D01*
X222769238Y-140355904D01*
X222864476Y-140308285D01*
X223054952Y-140260666D01*
X223197809Y-140260666D01*
X223388285Y-140308285D01*
X223483523Y-140355904D01*
X223578761Y-140451142D01*
X223626380Y-140594000D01*
X223626380Y-140832095D01*
X223626380Y-139308285D02*
X223626380Y-139879714D01*
X223626380Y-139594000D02*
X222626380Y-139594000D01*
X222769238Y-139689238D01*
X222864476Y-139784476D01*
X222912095Y-139879714D01*
G04 #@! TO.C,J2*
D18*
X249552999Y-135220870D02*
X250268435Y-135220870D01*
X250411522Y-135268565D01*
X250506913Y-135363957D01*
X250554609Y-135507044D01*
X250554609Y-135602435D01*
X249648390Y-134791608D02*
X249600695Y-134743912D01*
X249552999Y-134648521D01*
X249552999Y-134410042D01*
X249600695Y-134314651D01*
X249648390Y-134266955D01*
X249743782Y-134219260D01*
X249839173Y-134219260D01*
X249982260Y-134266955D01*
X250554609Y-134839304D01*
X250554609Y-134219260D01*
X262317189Y-134673153D02*
X263126996Y-134673153D01*
X263222267Y-134625517D01*
X263269903Y-134577882D01*
X263317539Y-134482610D01*
X263317539Y-134292067D01*
X263269903Y-134196796D01*
X263222267Y-134149160D01*
X263126996Y-134101525D01*
X262317189Y-134101525D01*
X263269903Y-133672803D02*
X263317539Y-133529896D01*
X263317539Y-133291717D01*
X263269903Y-133196446D01*
X263222267Y-133148810D01*
X263126996Y-133101175D01*
X263031725Y-133101175D01*
X262936453Y-133148810D01*
X262888817Y-133196446D01*
X262841182Y-133291717D01*
X262793546Y-133482260D01*
X262745910Y-133577532D01*
X262698275Y-133625167D01*
X262603003Y-133672803D01*
X262507732Y-133672803D01*
X262412460Y-133625167D01*
X262364825Y-133577532D01*
X262317189Y-133482260D01*
X262317189Y-133244082D01*
X262364825Y-133101175D01*
X262793546Y-132339003D02*
X262841182Y-132196096D01*
X262888817Y-132148460D01*
X262984089Y-132100825D01*
X263126996Y-132100825D01*
X263222267Y-132148460D01*
X263269903Y-132196096D01*
X263317539Y-132291367D01*
X263317539Y-132672453D01*
X262317189Y-132672453D01*
X262317189Y-132339003D01*
X262364825Y-132243732D01*
X262412460Y-132196096D01*
X262507732Y-132148460D01*
X262603003Y-132148460D01*
X262698275Y-132196096D01*
X262745910Y-132243732D01*
X262793546Y-132339003D01*
X262793546Y-132672453D01*
X263412810Y-131910282D02*
X263412810Y-131148110D01*
X263031725Y-130957567D02*
X263031725Y-130481210D01*
X263317539Y-131052839D02*
X262317189Y-130719389D01*
X263317539Y-130385939D01*
G04 #@! TO.C,J3*
X249298999Y-113884870D02*
X250014435Y-113884870D01*
X250157522Y-113932565D01*
X250252913Y-114027957D01*
X250300609Y-114171044D01*
X250300609Y-114266435D01*
X249298999Y-113503304D02*
X249298999Y-112883260D01*
X249680565Y-113217130D01*
X249680565Y-113074042D01*
X249728260Y-112978651D01*
X249775956Y-112930955D01*
X249871347Y-112883260D01*
X250109826Y-112883260D01*
X250205217Y-112930955D01*
X250252913Y-112978651D01*
X250300609Y-113074042D01*
X250300609Y-113360217D01*
X250252913Y-113455608D01*
X250205217Y-113503304D01*
X262571189Y-113337153D02*
X263380996Y-113337153D01*
X263476267Y-113289517D01*
X263523903Y-113241882D01*
X263571539Y-113146610D01*
X263571539Y-112956067D01*
X263523903Y-112860796D01*
X263476267Y-112813160D01*
X263380996Y-112765525D01*
X262571189Y-112765525D01*
X263523903Y-112336803D02*
X263571539Y-112193896D01*
X263571539Y-111955717D01*
X263523903Y-111860446D01*
X263476267Y-111812810D01*
X263380996Y-111765175D01*
X263285725Y-111765175D01*
X263190453Y-111812810D01*
X263142817Y-111860446D01*
X263095182Y-111955717D01*
X263047546Y-112146260D01*
X262999910Y-112241532D01*
X262952275Y-112289167D01*
X262857003Y-112336803D01*
X262761732Y-112336803D01*
X262666460Y-112289167D01*
X262618825Y-112241532D01*
X262571189Y-112146260D01*
X262571189Y-111908082D01*
X262618825Y-111765175D01*
X263047546Y-111003003D02*
X263095182Y-110860096D01*
X263142817Y-110812460D01*
X263238089Y-110764825D01*
X263380996Y-110764825D01*
X263476267Y-110812460D01*
X263523903Y-110860096D01*
X263571539Y-110955367D01*
X263571539Y-111336453D01*
X262571189Y-111336453D01*
X262571189Y-111003003D01*
X262618825Y-110907732D01*
X262666460Y-110860096D01*
X262761732Y-110812460D01*
X262857003Y-110812460D01*
X262952275Y-110860096D01*
X262999910Y-110907732D01*
X263047546Y-111003003D01*
X263047546Y-111336453D01*
X263666810Y-110574282D02*
X263666810Y-109812110D01*
X263285725Y-109621567D02*
X263285725Y-109145210D01*
X263571539Y-109716839D02*
X262571189Y-109383389D01*
X263571539Y-109049939D01*
G04 #@! TO.C,C1*
D11*
X231091142Y-141274166D02*
X231138761Y-141321785D01*
X231186380Y-141464642D01*
X231186380Y-141559880D01*
X231138761Y-141702738D01*
X231043523Y-141797976D01*
X230948285Y-141845595D01*
X230757809Y-141893214D01*
X230614952Y-141893214D01*
X230424476Y-141845595D01*
X230329238Y-141797976D01*
X230234000Y-141702738D01*
X230186380Y-141559880D01*
X230186380Y-141464642D01*
X230234000Y-141321785D01*
X230281619Y-141274166D01*
X231186380Y-140321785D02*
X231186380Y-140893214D01*
X231186380Y-140607500D02*
X230186380Y-140607500D01*
X230329238Y-140702738D01*
X230424476Y-140797976D01*
X230472095Y-140893214D01*
X225763428Y-141559452D02*
X225763428Y-140797547D01*
X226144380Y-141178500D02*
X225382476Y-141178500D01*
G04 #@! TO.C,C5*
X214405333Y-127370142D02*
X214357714Y-127417761D01*
X214214857Y-127465380D01*
X214119619Y-127465380D01*
X213976761Y-127417761D01*
X213881523Y-127322523D01*
X213833904Y-127227285D01*
X213786285Y-127036809D01*
X213786285Y-126893952D01*
X213833904Y-126703476D01*
X213881523Y-126608238D01*
X213976761Y-126513000D01*
X214119619Y-126465380D01*
X214214857Y-126465380D01*
X214357714Y-126513000D01*
X214405333Y-126560619D01*
X215310095Y-126465380D02*
X214833904Y-126465380D01*
X214786285Y-126941571D01*
X214833904Y-126893952D01*
X214929142Y-126846333D01*
X215167238Y-126846333D01*
X215262476Y-126893952D01*
X215310095Y-126941571D01*
X215357714Y-127036809D01*
X215357714Y-127274904D01*
X215310095Y-127370142D01*
X215262476Y-127417761D01*
X215167238Y-127465380D01*
X214929142Y-127465380D01*
X214833904Y-127417761D01*
X214786285Y-127370142D01*
X214186047Y-122296428D02*
X214947952Y-122296428D01*
X214567000Y-122677380D02*
X214567000Y-121915476D01*
G04 #@! TO.C,J4*
X245763380Y-145888333D02*
X246477666Y-145888333D01*
X246620523Y-145935952D01*
X246715761Y-146031190D01*
X246763380Y-146174047D01*
X246763380Y-146269285D01*
X246096714Y-144983571D02*
X246763380Y-144983571D01*
X245715761Y-145221666D02*
X246430047Y-145459761D01*
X246430047Y-144840714D01*
G04 #@! TO.C,J5*
X228364380Y-102708333D02*
X229078666Y-102708333D01*
X229221523Y-102755952D01*
X229316761Y-102851190D01*
X229364380Y-102994047D01*
X229364380Y-103089285D01*
X228364380Y-101755952D02*
X228364380Y-102232142D01*
X228840571Y-102279761D01*
X228792952Y-102232142D01*
X228745333Y-102136904D01*
X228745333Y-101898809D01*
X228792952Y-101803571D01*
X228840571Y-101755952D01*
X228935809Y-101708333D01*
X229173904Y-101708333D01*
X229269142Y-101755952D01*
X229316761Y-101803571D01*
X229364380Y-101898809D01*
X229364380Y-102136904D01*
X229316761Y-102232142D01*
X229269142Y-102279761D01*
G04 #@! TO.C,J6*
X228364380Y-105248333D02*
X229078666Y-105248333D01*
X229221523Y-105295952D01*
X229316761Y-105391190D01*
X229364380Y-105534047D01*
X229364380Y-105629285D01*
X228364380Y-104343571D02*
X228364380Y-104534047D01*
X228412000Y-104629285D01*
X228459619Y-104676904D01*
X228602476Y-104772142D01*
X228792952Y-104819761D01*
X229173904Y-104819761D01*
X229269142Y-104772142D01*
X229316761Y-104724523D01*
X229364380Y-104629285D01*
X229364380Y-104438809D01*
X229316761Y-104343571D01*
X229269142Y-104295952D01*
X229173904Y-104248333D01*
X228935809Y-104248333D01*
X228840571Y-104295952D01*
X228792952Y-104343571D01*
X228745333Y-104438809D01*
X228745333Y-104629285D01*
X228792952Y-104724523D01*
X228840571Y-104772142D01*
X228935809Y-104819761D01*
G04 #@! TO.C,J7*
X208234880Y-102708333D02*
X208949166Y-102708333D01*
X209092023Y-102755952D01*
X209187261Y-102851190D01*
X209234880Y-102994047D01*
X209234880Y-103089285D01*
X208234880Y-102327380D02*
X208234880Y-101660714D01*
X209234880Y-102089285D01*
G04 #@! TO.C,J8*
X221232880Y-105311833D02*
X221947166Y-105311833D01*
X222090023Y-105359452D01*
X222185261Y-105454690D01*
X222232880Y-105597547D01*
X222232880Y-105692785D01*
X221661452Y-104692785D02*
X221613833Y-104788023D01*
X221566214Y-104835642D01*
X221470976Y-104883261D01*
X221423357Y-104883261D01*
X221328119Y-104835642D01*
X221280500Y-104788023D01*
X221232880Y-104692785D01*
X221232880Y-104502309D01*
X221280500Y-104407071D01*
X221328119Y-104359452D01*
X221423357Y-104311833D01*
X221470976Y-104311833D01*
X221566214Y-104359452D01*
X221613833Y-104407071D01*
X221661452Y-104502309D01*
X221661452Y-104692785D01*
X221709071Y-104788023D01*
X221756690Y-104835642D01*
X221851928Y-104883261D01*
X222042404Y-104883261D01*
X222137642Y-104835642D01*
X222185261Y-104788023D01*
X222232880Y-104692785D01*
X222232880Y-104502309D01*
X222185261Y-104407071D01*
X222137642Y-104359452D01*
X222042404Y-104311833D01*
X221851928Y-104311833D01*
X221756690Y-104359452D01*
X221709071Y-104407071D01*
X221661452Y-104502309D01*
G04 #@! TD*
M02*
