G04 #@! TF.GenerationSoftware,KiCad,Pcbnew,(5.0.2)-1*
G04 #@! TF.CreationDate,2019-01-19T16:51:56-05:00*
G04 #@! TF.ProjectId,2019-Pi-Power,32303139-2d50-4692-9d50-6f7765722e6b,rev?*
G04 #@! TF.SameCoordinates,Original*
G04 #@! TF.FileFunction,Soldermask,Bot*
G04 #@! TF.FilePolarity,Negative*
%FSLAX46Y46*%
G04 Gerber Fmt 4.6, Leading zero omitted, Abs format (unit mm)*
G04 Created by KiCad (PCBNEW (5.0.2)-1) date 1/19/2019 4:51:56 PM*
%MOMM*%
%LPD*%
G01*
G04 APERTURE LIST*
%ADD10C,0.150000*%
G04 APERTURE END LIST*
D10*
G36*
X261893778Y-145201879D02*
X262139466Y-145303646D01*
X262360578Y-145451389D01*
X262548611Y-145639422D01*
X262696354Y-145860534D01*
X262798121Y-146106222D01*
X262850000Y-146367035D01*
X262850000Y-146632965D01*
X262798121Y-146893778D01*
X262696354Y-147139466D01*
X262548611Y-147360578D01*
X262360578Y-147548611D01*
X262139466Y-147696354D01*
X261893778Y-147798121D01*
X261632965Y-147850000D01*
X261367035Y-147850000D01*
X261106222Y-147798121D01*
X260860534Y-147696354D01*
X260639422Y-147548611D01*
X260451389Y-147360578D01*
X260303646Y-147139466D01*
X260201879Y-146893778D01*
X260150000Y-146632965D01*
X260150000Y-146367035D01*
X260201879Y-146106222D01*
X260303646Y-145860534D01*
X260451389Y-145639422D01*
X260639422Y-145451389D01*
X260860534Y-145303646D01*
X261106222Y-145201879D01*
X261367035Y-145150000D01*
X261632965Y-145150000D01*
X261893778Y-145201879D01*
X261893778Y-145201879D01*
G37*
G36*
X203893778Y-145201879D02*
X204139466Y-145303646D01*
X204360578Y-145451389D01*
X204548611Y-145639422D01*
X204696354Y-145860534D01*
X204798121Y-146106222D01*
X204850000Y-146367035D01*
X204850000Y-146632965D01*
X204798121Y-146893778D01*
X204696354Y-147139466D01*
X204548611Y-147360578D01*
X204360578Y-147548611D01*
X204139466Y-147696354D01*
X203893778Y-147798121D01*
X203632965Y-147850000D01*
X203367035Y-147850000D01*
X203106222Y-147798121D01*
X202860534Y-147696354D01*
X202639422Y-147548611D01*
X202451389Y-147360578D01*
X202303646Y-147139466D01*
X202201879Y-146893778D01*
X202150000Y-146632965D01*
X202150000Y-146367035D01*
X202201879Y-146106222D01*
X202303646Y-145860534D01*
X202451389Y-145639422D01*
X202639422Y-145451389D01*
X202860534Y-145303646D01*
X203106222Y-145201879D01*
X203367035Y-145150000D01*
X203632965Y-145150000D01*
X203893778Y-145201879D01*
X203893778Y-145201879D01*
G37*
G36*
X253887630Y-145987299D02*
X254047855Y-146035903D01*
X254195520Y-146114831D01*
X254324949Y-146221051D01*
X254431169Y-146350480D01*
X254510097Y-146498145D01*
X254558701Y-146658370D01*
X254575112Y-146825000D01*
X254558701Y-146991630D01*
X254510097Y-147151855D01*
X254431169Y-147299520D01*
X254324949Y-147428949D01*
X254195520Y-147535169D01*
X254047855Y-147614097D01*
X253887630Y-147662701D01*
X253762752Y-147675000D01*
X253679248Y-147675000D01*
X253554370Y-147662701D01*
X253394145Y-147614097D01*
X253246480Y-147535169D01*
X253117051Y-147428949D01*
X253010831Y-147299520D01*
X252931903Y-147151855D01*
X252883299Y-146991630D01*
X252866888Y-146825000D01*
X252883299Y-146658370D01*
X252931903Y-146498145D01*
X253010831Y-146350480D01*
X253117051Y-146221051D01*
X253246480Y-146114831D01*
X253394145Y-146035903D01*
X253554370Y-145987299D01*
X253679248Y-145975000D01*
X253762752Y-145975000D01*
X253887630Y-145987299D01*
X253887630Y-145987299D01*
G37*
G36*
X256427630Y-145987299D02*
X256587855Y-146035903D01*
X256735520Y-146114831D01*
X256864949Y-146221051D01*
X256971169Y-146350480D01*
X257050097Y-146498145D01*
X257098701Y-146658370D01*
X257115112Y-146825000D01*
X257098701Y-146991630D01*
X257050097Y-147151855D01*
X256971169Y-147299520D01*
X256864949Y-147428949D01*
X256735520Y-147535169D01*
X256587855Y-147614097D01*
X256427630Y-147662701D01*
X256302752Y-147675000D01*
X256219248Y-147675000D01*
X256094370Y-147662701D01*
X255934145Y-147614097D01*
X255786480Y-147535169D01*
X255657051Y-147428949D01*
X255550831Y-147299520D01*
X255471903Y-147151855D01*
X255423299Y-146991630D01*
X255406888Y-146825000D01*
X255423299Y-146658370D01*
X255471903Y-146498145D01*
X255550831Y-146350480D01*
X255657051Y-146221051D01*
X255786480Y-146114831D01*
X255934145Y-146035903D01*
X256094370Y-145987299D01*
X256219248Y-145975000D01*
X256302752Y-145975000D01*
X256427630Y-145987299D01*
X256427630Y-145987299D01*
G37*
G36*
X251347630Y-145987299D02*
X251507855Y-146035903D01*
X251655520Y-146114831D01*
X251784949Y-146221051D01*
X251891169Y-146350480D01*
X251970097Y-146498145D01*
X252018701Y-146658370D01*
X252035112Y-146825000D01*
X252018701Y-146991630D01*
X251970097Y-147151855D01*
X251891169Y-147299520D01*
X251784949Y-147428949D01*
X251655520Y-147535169D01*
X251507855Y-147614097D01*
X251347630Y-147662701D01*
X251222752Y-147675000D01*
X251139248Y-147675000D01*
X251014370Y-147662701D01*
X250854145Y-147614097D01*
X250706480Y-147535169D01*
X250577051Y-147428949D01*
X250470831Y-147299520D01*
X250391903Y-147151855D01*
X250343299Y-146991630D01*
X250326888Y-146825000D01*
X250343299Y-146658370D01*
X250391903Y-146498145D01*
X250470831Y-146350480D01*
X250577051Y-146221051D01*
X250706480Y-146114831D01*
X250854145Y-146035903D01*
X251014370Y-145987299D01*
X251139248Y-145975000D01*
X251222752Y-145975000D01*
X251347630Y-145987299D01*
X251347630Y-145987299D01*
G37*
G36*
X249491000Y-147675000D02*
X247791000Y-147675000D01*
X247791000Y-145975000D01*
X249491000Y-145975000D01*
X249491000Y-147675000D01*
X249491000Y-147675000D01*
G37*
G36*
X238834000Y-145209500D02*
X235334000Y-145209500D01*
X235334000Y-141709500D01*
X238834000Y-141709500D01*
X238834000Y-145209500D01*
X238834000Y-145209500D01*
G37*
G36*
X253887630Y-143447299D02*
X254047855Y-143495903D01*
X254195520Y-143574831D01*
X254324949Y-143681051D01*
X254431169Y-143810480D01*
X254510097Y-143958145D01*
X254558701Y-144118370D01*
X254575112Y-144285000D01*
X254558701Y-144451630D01*
X254510097Y-144611855D01*
X254431169Y-144759520D01*
X254324949Y-144888949D01*
X254195520Y-144995169D01*
X254047855Y-145074097D01*
X253887630Y-145122701D01*
X253762752Y-145135000D01*
X253679248Y-145135000D01*
X253554370Y-145122701D01*
X253394145Y-145074097D01*
X253246480Y-144995169D01*
X253117051Y-144888949D01*
X253010831Y-144759520D01*
X252931903Y-144611855D01*
X252883299Y-144451630D01*
X252866888Y-144285000D01*
X252883299Y-144118370D01*
X252931903Y-143958145D01*
X253010831Y-143810480D01*
X253117051Y-143681051D01*
X253246480Y-143574831D01*
X253394145Y-143495903D01*
X253554370Y-143447299D01*
X253679248Y-143435000D01*
X253762752Y-143435000D01*
X253887630Y-143447299D01*
X253887630Y-143447299D01*
G37*
G36*
X256427630Y-143447299D02*
X256587855Y-143495903D01*
X256735520Y-143574831D01*
X256864949Y-143681051D01*
X256971169Y-143810480D01*
X257050097Y-143958145D01*
X257098701Y-144118370D01*
X257115112Y-144285000D01*
X257098701Y-144451630D01*
X257050097Y-144611855D01*
X256971169Y-144759520D01*
X256864949Y-144888949D01*
X256735520Y-144995169D01*
X256587855Y-145074097D01*
X256427630Y-145122701D01*
X256302752Y-145135000D01*
X256219248Y-145135000D01*
X256094370Y-145122701D01*
X255934145Y-145074097D01*
X255786480Y-144995169D01*
X255657051Y-144888949D01*
X255550831Y-144759520D01*
X255471903Y-144611855D01*
X255423299Y-144451630D01*
X255406888Y-144285000D01*
X255423299Y-144118370D01*
X255471903Y-143958145D01*
X255550831Y-143810480D01*
X255657051Y-143681051D01*
X255786480Y-143574831D01*
X255934145Y-143495903D01*
X256094370Y-143447299D01*
X256219248Y-143435000D01*
X256302752Y-143435000D01*
X256427630Y-143447299D01*
X256427630Y-143447299D01*
G37*
G36*
X248807630Y-143447299D02*
X248967855Y-143495903D01*
X249115520Y-143574831D01*
X249244949Y-143681051D01*
X249351169Y-143810480D01*
X249430097Y-143958145D01*
X249478701Y-144118370D01*
X249495112Y-144285000D01*
X249478701Y-144451630D01*
X249430097Y-144611855D01*
X249351169Y-144759520D01*
X249244949Y-144888949D01*
X249115520Y-144995169D01*
X248967855Y-145074097D01*
X248807630Y-145122701D01*
X248682752Y-145135000D01*
X248599248Y-145135000D01*
X248474370Y-145122701D01*
X248314145Y-145074097D01*
X248166480Y-144995169D01*
X248037051Y-144888949D01*
X247930831Y-144759520D01*
X247851903Y-144611855D01*
X247803299Y-144451630D01*
X247786888Y-144285000D01*
X247803299Y-144118370D01*
X247851903Y-143958145D01*
X247930831Y-143810480D01*
X248037051Y-143681051D01*
X248166480Y-143574831D01*
X248314145Y-143495903D01*
X248474370Y-143447299D01*
X248599248Y-143435000D01*
X248682752Y-143435000D01*
X248807630Y-143447299D01*
X248807630Y-143447299D01*
G37*
G36*
X251347630Y-143447299D02*
X251507855Y-143495903D01*
X251655520Y-143574831D01*
X251784949Y-143681051D01*
X251891169Y-143810480D01*
X251970097Y-143958145D01*
X252018701Y-144118370D01*
X252035112Y-144285000D01*
X252018701Y-144451630D01*
X251970097Y-144611855D01*
X251891169Y-144759520D01*
X251784949Y-144888949D01*
X251655520Y-144995169D01*
X251507855Y-145074097D01*
X251347630Y-145122701D01*
X251222752Y-145135000D01*
X251139248Y-145135000D01*
X251014370Y-145122701D01*
X250854145Y-145074097D01*
X250706480Y-144995169D01*
X250577051Y-144888949D01*
X250470831Y-144759520D01*
X250391903Y-144611855D01*
X250343299Y-144451630D01*
X250326888Y-144285000D01*
X250343299Y-144118370D01*
X250391903Y-143958145D01*
X250470831Y-143810480D01*
X250577051Y-143681051D01*
X250706480Y-143574831D01*
X250854145Y-143495903D01*
X251014370Y-143447299D01*
X251139248Y-143435000D01*
X251222752Y-143435000D01*
X251347630Y-143447299D01*
X251347630Y-143447299D01*
G37*
G36*
X243534000Y-142209500D02*
X240034000Y-142209500D01*
X240034000Y-138709500D01*
X243534000Y-138709500D01*
X243534000Y-142209500D01*
X243534000Y-142209500D01*
G37*
G36*
X255093460Y-137473858D02*
X255253621Y-137505716D01*
X255378604Y-137557486D01*
X255555356Y-137630699D01*
X255826916Y-137812150D01*
X256057850Y-138043084D01*
X256239301Y-138314644D01*
X256364284Y-138616380D01*
X256428000Y-138936700D01*
X256428000Y-139263300D01*
X256364284Y-139583620D01*
X256239301Y-139885356D01*
X256057850Y-140156916D01*
X255826916Y-140387850D01*
X255555356Y-140569301D01*
X255378604Y-140642514D01*
X255253621Y-140694284D01*
X255093460Y-140726142D01*
X254933300Y-140758000D01*
X254606700Y-140758000D01*
X254446540Y-140726142D01*
X254286379Y-140694284D01*
X254161396Y-140642514D01*
X253984644Y-140569301D01*
X253713084Y-140387850D01*
X253482150Y-140156916D01*
X253300699Y-139885356D01*
X253175716Y-139583620D01*
X253112000Y-139263300D01*
X253112000Y-138936700D01*
X253175716Y-138616380D01*
X253300699Y-138314644D01*
X253482150Y-138043084D01*
X253713084Y-137812150D01*
X253984644Y-137630699D01*
X254161396Y-137557486D01*
X254286379Y-137505716D01*
X254446540Y-137473858D01*
X254606700Y-137442000D01*
X254933300Y-137442000D01*
X255093460Y-137473858D01*
X255093460Y-137473858D01*
G37*
G36*
X238834000Y-139209500D02*
X235334000Y-139209500D01*
X235334000Y-135709500D01*
X238834000Y-135709500D01*
X238834000Y-139209500D01*
X238834000Y-139209500D01*
G37*
G36*
X252278266Y-135343438D02*
X252408203Y-135397259D01*
X252525153Y-135475403D01*
X252624597Y-135574847D01*
X252702741Y-135691797D01*
X252756562Y-135821734D01*
X252784000Y-135959676D01*
X252784000Y-136100324D01*
X252756562Y-136238266D01*
X252702741Y-136368203D01*
X252624597Y-136485153D01*
X252525153Y-136584597D01*
X252408203Y-136662741D01*
X252278266Y-136716562D01*
X252140324Y-136744000D01*
X251999676Y-136744000D01*
X251861734Y-136716562D01*
X251731797Y-136662741D01*
X251614847Y-136584597D01*
X251515403Y-136485153D01*
X251437259Y-136368203D01*
X251383438Y-136238266D01*
X251356000Y-136100324D01*
X251356000Y-135959676D01*
X251383438Y-135821734D01*
X251437259Y-135691797D01*
X251515403Y-135574847D01*
X251614847Y-135475403D01*
X251731797Y-135397259D01*
X251861734Y-135343438D01*
X251999676Y-135316000D01*
X252140324Y-135316000D01*
X252278266Y-135343438D01*
X252278266Y-135343438D01*
G37*
G36*
X252278266Y-132843438D02*
X252408203Y-132897259D01*
X252525153Y-132975403D01*
X252624597Y-133074847D01*
X252702741Y-133191797D01*
X252756562Y-133321734D01*
X252784000Y-133459676D01*
X252784000Y-133600324D01*
X252756562Y-133738266D01*
X252702741Y-133868203D01*
X252624597Y-133985153D01*
X252525153Y-134084597D01*
X252408203Y-134162741D01*
X252278266Y-134216562D01*
X252140324Y-134244000D01*
X251999676Y-134244000D01*
X251861734Y-134216562D01*
X251731797Y-134162741D01*
X251614847Y-134084597D01*
X251515403Y-133985153D01*
X251437259Y-133868203D01*
X251383438Y-133738266D01*
X251356000Y-133600324D01*
X251356000Y-133459676D01*
X251383438Y-133321734D01*
X251437259Y-133191797D01*
X251515403Y-133074847D01*
X251614847Y-132975403D01*
X251731797Y-132897259D01*
X251861734Y-132843438D01*
X251999676Y-132816000D01*
X252140324Y-132816000D01*
X252278266Y-132843438D01*
X252278266Y-132843438D01*
G37*
G36*
X252278266Y-130843438D02*
X252408203Y-130897259D01*
X252525153Y-130975403D01*
X252624597Y-131074847D01*
X252624599Y-131074850D01*
X252624600Y-131074851D01*
X252676617Y-131152700D01*
X252702741Y-131191797D01*
X252756562Y-131321734D01*
X252784000Y-131459676D01*
X252784000Y-131600324D01*
X252756562Y-131738266D01*
X252702741Y-131868203D01*
X252624597Y-131985153D01*
X252525153Y-132084597D01*
X252408203Y-132162741D01*
X252278266Y-132216562D01*
X252140324Y-132244000D01*
X251999676Y-132244000D01*
X251861734Y-132216562D01*
X251731797Y-132162741D01*
X251614847Y-132084597D01*
X251515403Y-131985153D01*
X251437259Y-131868203D01*
X251383438Y-131738266D01*
X251356000Y-131600324D01*
X251356000Y-131459676D01*
X251383438Y-131321734D01*
X251437259Y-131191797D01*
X251463383Y-131152700D01*
X251515400Y-131074851D01*
X251515401Y-131074850D01*
X251515403Y-131074847D01*
X251614847Y-130975403D01*
X251731797Y-130897259D01*
X251861734Y-130843438D01*
X251999676Y-130816000D01*
X252140324Y-130816000D01*
X252278266Y-130843438D01*
X252278266Y-130843438D01*
G37*
G36*
X236679130Y-129477299D02*
X236839355Y-129525903D01*
X236987020Y-129604831D01*
X237116449Y-129711051D01*
X237222669Y-129840480D01*
X237301597Y-129988145D01*
X237350201Y-130148370D01*
X237366612Y-130315000D01*
X237350201Y-130481630D01*
X237301597Y-130641855D01*
X237222669Y-130789520D01*
X237116449Y-130918949D01*
X236987020Y-131025169D01*
X236839355Y-131104097D01*
X236679130Y-131152701D01*
X236554252Y-131165000D01*
X236470748Y-131165000D01*
X236345870Y-131152701D01*
X236185645Y-131104097D01*
X236037980Y-131025169D01*
X235908551Y-130918949D01*
X235802331Y-130789520D01*
X235723403Y-130641855D01*
X235674799Y-130481630D01*
X235658388Y-130315000D01*
X235674799Y-130148370D01*
X235723403Y-129988145D01*
X235802331Y-129840480D01*
X235908551Y-129711051D01*
X236037980Y-129604831D01*
X236185645Y-129525903D01*
X236345870Y-129477299D01*
X236470748Y-129465000D01*
X236554252Y-129465000D01*
X236679130Y-129477299D01*
X236679130Y-129477299D01*
G37*
G36*
X239219130Y-129477299D02*
X239379355Y-129525903D01*
X239527020Y-129604831D01*
X239656449Y-129711051D01*
X239762669Y-129840480D01*
X239841597Y-129988145D01*
X239890201Y-130148370D01*
X239906612Y-130315000D01*
X239890201Y-130481630D01*
X239841597Y-130641855D01*
X239762669Y-130789520D01*
X239656449Y-130918949D01*
X239527020Y-131025169D01*
X239379355Y-131104097D01*
X239219130Y-131152701D01*
X239094252Y-131165000D01*
X239010748Y-131165000D01*
X238885870Y-131152701D01*
X238725645Y-131104097D01*
X238577980Y-131025169D01*
X238448551Y-130918949D01*
X238342331Y-130789520D01*
X238263403Y-130641855D01*
X238214799Y-130481630D01*
X238198388Y-130315000D01*
X238214799Y-130148370D01*
X238263403Y-129988145D01*
X238342331Y-129840480D01*
X238448551Y-129711051D01*
X238577980Y-129604831D01*
X238725645Y-129525903D01*
X238885870Y-129477299D01*
X239010748Y-129465000D01*
X239094252Y-129465000D01*
X239219130Y-129477299D01*
X239219130Y-129477299D01*
G37*
G36*
X234139130Y-129477299D02*
X234299355Y-129525903D01*
X234447020Y-129604831D01*
X234576449Y-129711051D01*
X234682669Y-129840480D01*
X234761597Y-129988145D01*
X234810201Y-130148370D01*
X234826612Y-130315000D01*
X234810201Y-130481630D01*
X234761597Y-130641855D01*
X234682669Y-130789520D01*
X234576449Y-130918949D01*
X234447020Y-131025169D01*
X234299355Y-131104097D01*
X234139130Y-131152701D01*
X234014252Y-131165000D01*
X233930748Y-131165000D01*
X233805870Y-131152701D01*
X233645645Y-131104097D01*
X233497980Y-131025169D01*
X233368551Y-130918949D01*
X233262331Y-130789520D01*
X233183403Y-130641855D01*
X233134799Y-130481630D01*
X233118388Y-130315000D01*
X233134799Y-130148370D01*
X233183403Y-129988145D01*
X233262331Y-129840480D01*
X233368551Y-129711051D01*
X233497980Y-129604831D01*
X233645645Y-129525903D01*
X233805870Y-129477299D01*
X233930748Y-129465000D01*
X234014252Y-129465000D01*
X234139130Y-129477299D01*
X234139130Y-129477299D01*
G37*
G36*
X231599130Y-129477299D02*
X231759355Y-129525903D01*
X231907020Y-129604831D01*
X232036449Y-129711051D01*
X232142669Y-129840480D01*
X232221597Y-129988145D01*
X232270201Y-130148370D01*
X232286612Y-130315000D01*
X232270201Y-130481630D01*
X232221597Y-130641855D01*
X232142669Y-130789520D01*
X232036449Y-130918949D01*
X231907020Y-131025169D01*
X231759355Y-131104097D01*
X231599130Y-131152701D01*
X231474252Y-131165000D01*
X231390748Y-131165000D01*
X231265870Y-131152701D01*
X231105645Y-131104097D01*
X230957980Y-131025169D01*
X230828551Y-130918949D01*
X230722331Y-130789520D01*
X230643403Y-130641855D01*
X230594799Y-130481630D01*
X230578388Y-130315000D01*
X230594799Y-130148370D01*
X230643403Y-129988145D01*
X230722331Y-129840480D01*
X230828551Y-129711051D01*
X230957980Y-129604831D01*
X231105645Y-129525903D01*
X231265870Y-129477299D01*
X231390748Y-129465000D01*
X231474252Y-129465000D01*
X231599130Y-129477299D01*
X231599130Y-129477299D01*
G37*
G36*
X252278266Y-128343438D02*
X252408203Y-128397259D01*
X252525153Y-128475403D01*
X252624597Y-128574847D01*
X252624599Y-128574850D01*
X252624600Y-128574851D01*
X252702739Y-128691794D01*
X252702741Y-128691797D01*
X252756562Y-128821734D01*
X252784000Y-128959676D01*
X252784000Y-129100324D01*
X252756562Y-129238266D01*
X252702741Y-129368203D01*
X252702739Y-129368206D01*
X252629845Y-129477300D01*
X252624597Y-129485153D01*
X252525153Y-129584597D01*
X252525150Y-129584599D01*
X252525149Y-129584600D01*
X252408206Y-129662739D01*
X252408203Y-129662741D01*
X252278266Y-129716562D01*
X252140324Y-129744000D01*
X251999676Y-129744000D01*
X251861734Y-129716562D01*
X251731797Y-129662741D01*
X251731794Y-129662739D01*
X251614851Y-129584600D01*
X251614850Y-129584599D01*
X251614847Y-129584597D01*
X251515403Y-129485153D01*
X251510156Y-129477300D01*
X251437261Y-129368206D01*
X251437259Y-129368203D01*
X251383438Y-129238266D01*
X251356000Y-129100324D01*
X251356000Y-128959676D01*
X251383438Y-128821734D01*
X251437259Y-128691797D01*
X251437261Y-128691794D01*
X251515400Y-128574851D01*
X251515401Y-128574850D01*
X251515403Y-128574847D01*
X251614847Y-128475403D01*
X251731797Y-128397259D01*
X251861734Y-128343438D01*
X251999676Y-128316000D01*
X252140324Y-128316000D01*
X252278266Y-128343438D01*
X252278266Y-128343438D01*
G37*
G36*
X239219130Y-126937299D02*
X239379355Y-126985903D01*
X239527020Y-127064831D01*
X239656449Y-127171051D01*
X239762669Y-127300480D01*
X239841597Y-127448145D01*
X239890201Y-127608370D01*
X239906612Y-127775000D01*
X239890201Y-127941630D01*
X239841597Y-128101855D01*
X239762669Y-128249520D01*
X239656449Y-128378949D01*
X239527020Y-128485169D01*
X239379355Y-128564097D01*
X239219130Y-128612701D01*
X239094252Y-128625000D01*
X239010748Y-128625000D01*
X238885870Y-128612701D01*
X238725645Y-128564097D01*
X238577980Y-128485169D01*
X238448551Y-128378949D01*
X238342331Y-128249520D01*
X238263403Y-128101855D01*
X238214799Y-127941630D01*
X238198388Y-127775000D01*
X238214799Y-127608370D01*
X238263403Y-127448145D01*
X238342331Y-127300480D01*
X238448551Y-127171051D01*
X238577980Y-127064831D01*
X238725645Y-126985903D01*
X238885870Y-126937299D01*
X239010748Y-126925000D01*
X239094252Y-126925000D01*
X239219130Y-126937299D01*
X239219130Y-126937299D01*
G37*
G36*
X234139130Y-126937299D02*
X234299355Y-126985903D01*
X234447020Y-127064831D01*
X234576449Y-127171051D01*
X234682669Y-127300480D01*
X234761597Y-127448145D01*
X234810201Y-127608370D01*
X234826612Y-127775000D01*
X234810201Y-127941630D01*
X234761597Y-128101855D01*
X234682669Y-128249520D01*
X234576449Y-128378949D01*
X234447020Y-128485169D01*
X234299355Y-128564097D01*
X234139130Y-128612701D01*
X234014252Y-128625000D01*
X233930748Y-128625000D01*
X233805870Y-128612701D01*
X233645645Y-128564097D01*
X233497980Y-128485169D01*
X233368551Y-128378949D01*
X233262331Y-128249520D01*
X233183403Y-128101855D01*
X233134799Y-127941630D01*
X233118388Y-127775000D01*
X233134799Y-127608370D01*
X233183403Y-127448145D01*
X233262331Y-127300480D01*
X233368551Y-127171051D01*
X233497980Y-127064831D01*
X233645645Y-126985903D01*
X233805870Y-126937299D01*
X233930748Y-126925000D01*
X234014252Y-126925000D01*
X234139130Y-126937299D01*
X234139130Y-126937299D01*
G37*
G36*
X236679130Y-126937299D02*
X236839355Y-126985903D01*
X236987020Y-127064831D01*
X237116449Y-127171051D01*
X237222669Y-127300480D01*
X237301597Y-127448145D01*
X237350201Y-127608370D01*
X237366612Y-127775000D01*
X237350201Y-127941630D01*
X237301597Y-128101855D01*
X237222669Y-128249520D01*
X237116449Y-128378949D01*
X236987020Y-128485169D01*
X236839355Y-128564097D01*
X236679130Y-128612701D01*
X236554252Y-128625000D01*
X236470748Y-128625000D01*
X236345870Y-128612701D01*
X236185645Y-128564097D01*
X236037980Y-128485169D01*
X235908551Y-128378949D01*
X235802331Y-128249520D01*
X235723403Y-128101855D01*
X235674799Y-127941630D01*
X235658388Y-127775000D01*
X235674799Y-127608370D01*
X235723403Y-127448145D01*
X235802331Y-127300480D01*
X235908551Y-127171051D01*
X236037980Y-127064831D01*
X236185645Y-126985903D01*
X236345870Y-126937299D01*
X236470748Y-126925000D01*
X236554252Y-126925000D01*
X236679130Y-126937299D01*
X236679130Y-126937299D01*
G37*
G36*
X241759130Y-126937299D02*
X241919355Y-126985903D01*
X242067020Y-127064831D01*
X242196449Y-127171051D01*
X242302669Y-127300480D01*
X242381597Y-127448145D01*
X242430201Y-127608370D01*
X242446612Y-127775000D01*
X242430201Y-127941630D01*
X242381597Y-128101855D01*
X242302669Y-128249520D01*
X242196449Y-128378949D01*
X242067020Y-128485169D01*
X241919355Y-128564097D01*
X241759130Y-128612701D01*
X241634252Y-128625000D01*
X241550748Y-128625000D01*
X241425870Y-128612701D01*
X241265645Y-128564097D01*
X241117980Y-128485169D01*
X240988551Y-128378949D01*
X240882331Y-128249520D01*
X240803403Y-128101855D01*
X240754799Y-127941630D01*
X240738388Y-127775000D01*
X240754799Y-127608370D01*
X240803403Y-127448145D01*
X240882331Y-127300480D01*
X240988551Y-127171051D01*
X241117980Y-127064831D01*
X241265645Y-126985903D01*
X241425870Y-126937299D01*
X241550748Y-126925000D01*
X241634252Y-126925000D01*
X241759130Y-126937299D01*
X241759130Y-126937299D01*
G37*
G36*
X231599130Y-126937299D02*
X231759355Y-126985903D01*
X231907020Y-127064831D01*
X232036449Y-127171051D01*
X232142669Y-127300480D01*
X232221597Y-127448145D01*
X232270201Y-127608370D01*
X232286612Y-127775000D01*
X232270201Y-127941630D01*
X232221597Y-128101855D01*
X232142669Y-128249520D01*
X232036449Y-128378949D01*
X231907020Y-128485169D01*
X231759355Y-128564097D01*
X231599130Y-128612701D01*
X231474252Y-128625000D01*
X231390748Y-128625000D01*
X231265870Y-128612701D01*
X231105645Y-128564097D01*
X230957980Y-128485169D01*
X230828551Y-128378949D01*
X230722331Y-128249520D01*
X230643403Y-128101855D01*
X230594799Y-127941630D01*
X230578388Y-127775000D01*
X230594799Y-127608370D01*
X230643403Y-127448145D01*
X230722331Y-127300480D01*
X230828551Y-127171051D01*
X230957980Y-127064831D01*
X231105645Y-126985903D01*
X231265870Y-126937299D01*
X231390748Y-126925000D01*
X231474252Y-126925000D01*
X231599130Y-126937299D01*
X231599130Y-126937299D01*
G37*
G36*
X255093460Y-124333858D02*
X255253621Y-124365716D01*
X255329871Y-124397300D01*
X255555356Y-124490699D01*
X255826916Y-124672150D01*
X256057850Y-124903084D01*
X256239301Y-125174644D01*
X256364284Y-125476380D01*
X256428000Y-125796700D01*
X256428000Y-126123300D01*
X256364284Y-126443620D01*
X256239301Y-126745356D01*
X256057850Y-127016916D01*
X255826916Y-127247850D01*
X255555356Y-127429301D01*
X255378604Y-127502514D01*
X255253621Y-127554284D01*
X255093460Y-127586142D01*
X254933300Y-127618000D01*
X254606700Y-127618000D01*
X254446540Y-127586142D01*
X254286379Y-127554284D01*
X254161396Y-127502514D01*
X253984644Y-127429301D01*
X253713084Y-127247850D01*
X253482150Y-127016916D01*
X253300699Y-126745356D01*
X253175716Y-126443620D01*
X253112000Y-126123300D01*
X253112000Y-125796700D01*
X253175716Y-125476380D01*
X253300699Y-125174644D01*
X253482150Y-124903084D01*
X253713084Y-124672150D01*
X253984644Y-124490699D01*
X254210129Y-124397300D01*
X254286379Y-124365716D01*
X254446540Y-124333858D01*
X254606700Y-124302000D01*
X254933300Y-124302000D01*
X255093460Y-124333858D01*
X255093460Y-124333858D01*
G37*
G36*
X244299130Y-124397299D02*
X244459355Y-124445903D01*
X244607020Y-124524831D01*
X244736449Y-124631051D01*
X244842669Y-124760480D01*
X244921597Y-124908145D01*
X244970201Y-125068370D01*
X244986612Y-125235000D01*
X244970201Y-125401630D01*
X244921597Y-125561855D01*
X244842669Y-125709520D01*
X244736449Y-125838949D01*
X244607020Y-125945169D01*
X244459355Y-126024097D01*
X244299130Y-126072701D01*
X244174252Y-126085000D01*
X244090748Y-126085000D01*
X243965870Y-126072701D01*
X243805645Y-126024097D01*
X243657980Y-125945169D01*
X243528551Y-125838949D01*
X243422331Y-125709520D01*
X243343403Y-125561855D01*
X243294799Y-125401630D01*
X243278388Y-125235000D01*
X243294799Y-125068370D01*
X243343403Y-124908145D01*
X243422331Y-124760480D01*
X243528551Y-124631051D01*
X243657980Y-124524831D01*
X243805645Y-124445903D01*
X243965870Y-124397299D01*
X244090748Y-124385000D01*
X244174252Y-124385000D01*
X244299130Y-124397299D01*
X244299130Y-124397299D01*
G37*
G36*
X246839130Y-124397299D02*
X246999355Y-124445903D01*
X247147020Y-124524831D01*
X247276449Y-124631051D01*
X247382669Y-124760480D01*
X247461597Y-124908145D01*
X247510201Y-125068370D01*
X247526612Y-125235000D01*
X247510201Y-125401630D01*
X247461597Y-125561855D01*
X247382669Y-125709520D01*
X247276449Y-125838949D01*
X247147020Y-125945169D01*
X246999355Y-126024097D01*
X246839130Y-126072701D01*
X246714252Y-126085000D01*
X246630748Y-126085000D01*
X246505870Y-126072701D01*
X246345645Y-126024097D01*
X246197980Y-125945169D01*
X246068551Y-125838949D01*
X245962331Y-125709520D01*
X245883403Y-125561855D01*
X245834799Y-125401630D01*
X245818388Y-125235000D01*
X245834799Y-125068370D01*
X245883403Y-124908145D01*
X245962331Y-124760480D01*
X246068551Y-124631051D01*
X246197980Y-124524831D01*
X246345645Y-124445903D01*
X246505870Y-124397299D01*
X246630748Y-124385000D01*
X246714252Y-124385000D01*
X246839130Y-124397299D01*
X246839130Y-124397299D01*
G37*
G36*
X231599130Y-124397299D02*
X231759355Y-124445903D01*
X231907020Y-124524831D01*
X232036449Y-124631051D01*
X232142669Y-124760480D01*
X232221597Y-124908145D01*
X232270201Y-125068370D01*
X232286612Y-125235000D01*
X232270201Y-125401630D01*
X232221597Y-125561855D01*
X232142669Y-125709520D01*
X232036449Y-125838949D01*
X231907020Y-125945169D01*
X231759355Y-126024097D01*
X231599130Y-126072701D01*
X231474252Y-126085000D01*
X231390748Y-126085000D01*
X231265870Y-126072701D01*
X231105645Y-126024097D01*
X230957980Y-125945169D01*
X230828551Y-125838949D01*
X230722331Y-125709520D01*
X230643403Y-125561855D01*
X230594799Y-125401630D01*
X230578388Y-125235000D01*
X230594799Y-125068370D01*
X230643403Y-124908145D01*
X230722331Y-124760480D01*
X230828551Y-124631051D01*
X230957980Y-124524831D01*
X231105645Y-124445903D01*
X231265870Y-124397299D01*
X231390748Y-124385000D01*
X231474252Y-124385000D01*
X231599130Y-124397299D01*
X231599130Y-124397299D01*
G37*
G36*
X236679130Y-124397299D02*
X236839355Y-124445903D01*
X236987020Y-124524831D01*
X237116449Y-124631051D01*
X237222669Y-124760480D01*
X237301597Y-124908145D01*
X237350201Y-125068370D01*
X237366612Y-125235000D01*
X237350201Y-125401630D01*
X237301597Y-125561855D01*
X237222669Y-125709520D01*
X237116449Y-125838949D01*
X236987020Y-125945169D01*
X236839355Y-126024097D01*
X236679130Y-126072701D01*
X236554252Y-126085000D01*
X236470748Y-126085000D01*
X236345870Y-126072701D01*
X236185645Y-126024097D01*
X236037980Y-125945169D01*
X235908551Y-125838949D01*
X235802331Y-125709520D01*
X235723403Y-125561855D01*
X235674799Y-125401630D01*
X235658388Y-125235000D01*
X235674799Y-125068370D01*
X235723403Y-124908145D01*
X235802331Y-124760480D01*
X235908551Y-124631051D01*
X236037980Y-124524831D01*
X236185645Y-124445903D01*
X236345870Y-124397299D01*
X236470748Y-124385000D01*
X236554252Y-124385000D01*
X236679130Y-124397299D01*
X236679130Y-124397299D01*
G37*
G36*
X241759130Y-124397299D02*
X241919355Y-124445903D01*
X242067020Y-124524831D01*
X242196449Y-124631051D01*
X242302669Y-124760480D01*
X242381597Y-124908145D01*
X242430201Y-125068370D01*
X242446612Y-125235000D01*
X242430201Y-125401630D01*
X242381597Y-125561855D01*
X242302669Y-125709520D01*
X242196449Y-125838949D01*
X242067020Y-125945169D01*
X241919355Y-126024097D01*
X241759130Y-126072701D01*
X241634252Y-126085000D01*
X241550748Y-126085000D01*
X241425870Y-126072701D01*
X241265645Y-126024097D01*
X241117980Y-125945169D01*
X240988551Y-125838949D01*
X240882331Y-125709520D01*
X240803403Y-125561855D01*
X240754799Y-125401630D01*
X240738388Y-125235000D01*
X240754799Y-125068370D01*
X240803403Y-124908145D01*
X240882331Y-124760480D01*
X240988551Y-124631051D01*
X241117980Y-124524831D01*
X241265645Y-124445903D01*
X241425870Y-124397299D01*
X241550748Y-124385000D01*
X241634252Y-124385000D01*
X241759130Y-124397299D01*
X241759130Y-124397299D01*
G37*
G36*
X239219130Y-124397299D02*
X239379355Y-124445903D01*
X239527020Y-124524831D01*
X239656449Y-124631051D01*
X239762669Y-124760480D01*
X239841597Y-124908145D01*
X239890201Y-125068370D01*
X239906612Y-125235000D01*
X239890201Y-125401630D01*
X239841597Y-125561855D01*
X239762669Y-125709520D01*
X239656449Y-125838949D01*
X239527020Y-125945169D01*
X239379355Y-126024097D01*
X239219130Y-126072701D01*
X239094252Y-126085000D01*
X239010748Y-126085000D01*
X238885870Y-126072701D01*
X238725645Y-126024097D01*
X238577980Y-125945169D01*
X238448551Y-125838949D01*
X238342331Y-125709520D01*
X238263403Y-125561855D01*
X238214799Y-125401630D01*
X238198388Y-125235000D01*
X238214799Y-125068370D01*
X238263403Y-124908145D01*
X238342331Y-124760480D01*
X238448551Y-124631051D01*
X238577980Y-124524831D01*
X238725645Y-124445903D01*
X238885870Y-124397299D01*
X239010748Y-124385000D01*
X239094252Y-124385000D01*
X239219130Y-124397299D01*
X239219130Y-124397299D01*
G37*
G36*
X234139130Y-124397299D02*
X234299355Y-124445903D01*
X234447020Y-124524831D01*
X234576449Y-124631051D01*
X234682669Y-124760480D01*
X234761597Y-124908145D01*
X234810201Y-125068370D01*
X234826612Y-125235000D01*
X234810201Y-125401630D01*
X234761597Y-125561855D01*
X234682669Y-125709520D01*
X234576449Y-125838949D01*
X234447020Y-125945169D01*
X234299355Y-126024097D01*
X234139130Y-126072701D01*
X234014252Y-126085000D01*
X233930748Y-126085000D01*
X233805870Y-126072701D01*
X233645645Y-126024097D01*
X233497980Y-125945169D01*
X233368551Y-125838949D01*
X233262331Y-125709520D01*
X233183403Y-125561855D01*
X233134799Y-125401630D01*
X233118388Y-125235000D01*
X233134799Y-125068370D01*
X233183403Y-124908145D01*
X233262331Y-124760480D01*
X233368551Y-124631051D01*
X233497980Y-124524831D01*
X233645645Y-124445903D01*
X233805870Y-124397299D01*
X233930748Y-124385000D01*
X234014252Y-124385000D01*
X234139130Y-124397299D01*
X234139130Y-124397299D01*
G37*
G36*
X239219130Y-121857299D02*
X239379355Y-121905903D01*
X239527020Y-121984831D01*
X239656449Y-122091051D01*
X239762669Y-122220480D01*
X239841597Y-122368145D01*
X239890201Y-122528370D01*
X239906612Y-122695000D01*
X239890201Y-122861630D01*
X239841597Y-123021855D01*
X239762669Y-123169520D01*
X239656449Y-123298949D01*
X239527020Y-123405169D01*
X239379355Y-123484097D01*
X239219130Y-123532701D01*
X239094252Y-123545000D01*
X239010748Y-123545000D01*
X238885870Y-123532701D01*
X238725645Y-123484097D01*
X238577980Y-123405169D01*
X238448551Y-123298949D01*
X238342331Y-123169520D01*
X238263403Y-123021855D01*
X238214799Y-122861630D01*
X238198388Y-122695000D01*
X238214799Y-122528370D01*
X238263403Y-122368145D01*
X238342331Y-122220480D01*
X238448551Y-122091051D01*
X238577980Y-121984831D01*
X238725645Y-121905903D01*
X238885870Y-121857299D01*
X239010748Y-121845000D01*
X239094252Y-121845000D01*
X239219130Y-121857299D01*
X239219130Y-121857299D01*
G37*
G36*
X244299130Y-121857299D02*
X244459355Y-121905903D01*
X244607020Y-121984831D01*
X244736449Y-122091051D01*
X244842669Y-122220480D01*
X244921597Y-122368145D01*
X244970201Y-122528370D01*
X244986612Y-122695000D01*
X244970201Y-122861630D01*
X244921597Y-123021855D01*
X244842669Y-123169520D01*
X244736449Y-123298949D01*
X244607020Y-123405169D01*
X244459355Y-123484097D01*
X244299130Y-123532701D01*
X244174252Y-123545000D01*
X244090748Y-123545000D01*
X243965870Y-123532701D01*
X243805645Y-123484097D01*
X243657980Y-123405169D01*
X243528551Y-123298949D01*
X243422331Y-123169520D01*
X243343403Y-123021855D01*
X243294799Y-122861630D01*
X243278388Y-122695000D01*
X243294799Y-122528370D01*
X243343403Y-122368145D01*
X243422331Y-122220480D01*
X243528551Y-122091051D01*
X243657980Y-121984831D01*
X243805645Y-121905903D01*
X243965870Y-121857299D01*
X244090748Y-121845000D01*
X244174252Y-121845000D01*
X244299130Y-121857299D01*
X244299130Y-121857299D01*
G37*
G36*
X241759130Y-121857299D02*
X241919355Y-121905903D01*
X242067020Y-121984831D01*
X242196449Y-122091051D01*
X242302669Y-122220480D01*
X242381597Y-122368145D01*
X242430201Y-122528370D01*
X242446612Y-122695000D01*
X242430201Y-122861630D01*
X242381597Y-123021855D01*
X242302669Y-123169520D01*
X242196449Y-123298949D01*
X242067020Y-123405169D01*
X241919355Y-123484097D01*
X241759130Y-123532701D01*
X241634252Y-123545000D01*
X241550748Y-123545000D01*
X241425870Y-123532701D01*
X241265645Y-123484097D01*
X241117980Y-123405169D01*
X240988551Y-123298949D01*
X240882331Y-123169520D01*
X240803403Y-123021855D01*
X240754799Y-122861630D01*
X240738388Y-122695000D01*
X240754799Y-122528370D01*
X240803403Y-122368145D01*
X240882331Y-122220480D01*
X240988551Y-122091051D01*
X241117980Y-121984831D01*
X241265645Y-121905903D01*
X241425870Y-121857299D01*
X241550748Y-121845000D01*
X241634252Y-121845000D01*
X241759130Y-121857299D01*
X241759130Y-121857299D01*
G37*
G36*
X231599130Y-121857299D02*
X231759355Y-121905903D01*
X231907020Y-121984831D01*
X232036449Y-122091051D01*
X232142669Y-122220480D01*
X232221597Y-122368145D01*
X232270201Y-122528370D01*
X232286612Y-122695000D01*
X232270201Y-122861630D01*
X232221597Y-123021855D01*
X232142669Y-123169520D01*
X232036449Y-123298949D01*
X231907020Y-123405169D01*
X231759355Y-123484097D01*
X231599130Y-123532701D01*
X231474252Y-123545000D01*
X231390748Y-123545000D01*
X231265870Y-123532701D01*
X231105645Y-123484097D01*
X230957980Y-123405169D01*
X230828551Y-123298949D01*
X230722331Y-123169520D01*
X230643403Y-123021855D01*
X230594799Y-122861630D01*
X230578388Y-122695000D01*
X230594799Y-122528370D01*
X230643403Y-122368145D01*
X230722331Y-122220480D01*
X230828551Y-122091051D01*
X230957980Y-121984831D01*
X231105645Y-121905903D01*
X231265870Y-121857299D01*
X231390748Y-121845000D01*
X231474252Y-121845000D01*
X231599130Y-121857299D01*
X231599130Y-121857299D01*
G37*
G36*
X236679130Y-121857299D02*
X236839355Y-121905903D01*
X236987020Y-121984831D01*
X237116449Y-122091051D01*
X237222669Y-122220480D01*
X237301597Y-122368145D01*
X237350201Y-122528370D01*
X237366612Y-122695000D01*
X237350201Y-122861630D01*
X237301597Y-123021855D01*
X237222669Y-123169520D01*
X237116449Y-123298949D01*
X236987020Y-123405169D01*
X236839355Y-123484097D01*
X236679130Y-123532701D01*
X236554252Y-123545000D01*
X236470748Y-123545000D01*
X236345870Y-123532701D01*
X236185645Y-123484097D01*
X236037980Y-123405169D01*
X235908551Y-123298949D01*
X235802331Y-123169520D01*
X235723403Y-123021855D01*
X235674799Y-122861630D01*
X235658388Y-122695000D01*
X235674799Y-122528370D01*
X235723403Y-122368145D01*
X235802331Y-122220480D01*
X235908551Y-122091051D01*
X236037980Y-121984831D01*
X236185645Y-121905903D01*
X236345870Y-121857299D01*
X236470748Y-121845000D01*
X236554252Y-121845000D01*
X236679130Y-121857299D01*
X236679130Y-121857299D01*
G37*
G36*
X246839130Y-121857299D02*
X246999355Y-121905903D01*
X247147020Y-121984831D01*
X247276449Y-122091051D01*
X247382669Y-122220480D01*
X247461597Y-122368145D01*
X247510201Y-122528370D01*
X247526612Y-122695000D01*
X247510201Y-122861630D01*
X247461597Y-123021855D01*
X247382669Y-123169520D01*
X247276449Y-123298949D01*
X247147020Y-123405169D01*
X246999355Y-123484097D01*
X246839130Y-123532701D01*
X246714252Y-123545000D01*
X246630748Y-123545000D01*
X246505870Y-123532701D01*
X246345645Y-123484097D01*
X246197980Y-123405169D01*
X246068551Y-123298949D01*
X245962331Y-123169520D01*
X245883403Y-123021855D01*
X245834799Y-122861630D01*
X245818388Y-122695000D01*
X245834799Y-122528370D01*
X245883403Y-122368145D01*
X245962331Y-122220480D01*
X246068551Y-122091051D01*
X246197980Y-121984831D01*
X246345645Y-121905903D01*
X246505870Y-121857299D01*
X246630748Y-121845000D01*
X246714252Y-121845000D01*
X246839130Y-121857299D01*
X246839130Y-121857299D01*
G37*
G36*
X234139130Y-121857299D02*
X234299355Y-121905903D01*
X234447020Y-121984831D01*
X234576449Y-122091051D01*
X234682669Y-122220480D01*
X234761597Y-122368145D01*
X234810201Y-122528370D01*
X234826612Y-122695000D01*
X234810201Y-122861630D01*
X234761597Y-123021855D01*
X234682669Y-123169520D01*
X234576449Y-123298949D01*
X234447020Y-123405169D01*
X234299355Y-123484097D01*
X234139130Y-123532701D01*
X234014252Y-123545000D01*
X233930748Y-123545000D01*
X233805870Y-123532701D01*
X233645645Y-123484097D01*
X233497980Y-123405169D01*
X233368551Y-123298949D01*
X233262331Y-123169520D01*
X233183403Y-123021855D01*
X233134799Y-122861630D01*
X233118388Y-122695000D01*
X233134799Y-122528370D01*
X233183403Y-122368145D01*
X233262331Y-122220480D01*
X233368551Y-122091051D01*
X233497980Y-121984831D01*
X233645645Y-121905903D01*
X233805870Y-121857299D01*
X233930748Y-121845000D01*
X234014252Y-121845000D01*
X234139130Y-121857299D01*
X234139130Y-121857299D01*
G37*
G36*
X231599130Y-119317299D02*
X231759355Y-119365903D01*
X231907020Y-119444831D01*
X232036449Y-119551051D01*
X232142669Y-119680480D01*
X232221597Y-119828145D01*
X232270201Y-119988370D01*
X232286612Y-120155000D01*
X232270201Y-120321630D01*
X232221597Y-120481855D01*
X232142669Y-120629520D01*
X232036449Y-120758949D01*
X231907020Y-120865169D01*
X231759355Y-120944097D01*
X231599130Y-120992701D01*
X231474252Y-121005000D01*
X231390748Y-121005000D01*
X231265870Y-120992701D01*
X231105645Y-120944097D01*
X230957980Y-120865169D01*
X230828551Y-120758949D01*
X230722331Y-120629520D01*
X230643403Y-120481855D01*
X230594799Y-120321630D01*
X230578388Y-120155000D01*
X230594799Y-119988370D01*
X230643403Y-119828145D01*
X230722331Y-119680480D01*
X230828551Y-119551051D01*
X230957980Y-119444831D01*
X231105645Y-119365903D01*
X231265870Y-119317299D01*
X231390748Y-119305000D01*
X231474252Y-119305000D01*
X231599130Y-119317299D01*
X231599130Y-119317299D01*
G37*
G36*
X216359130Y-119317299D02*
X216519355Y-119365903D01*
X216667020Y-119444831D01*
X216796449Y-119551051D01*
X216902669Y-119680480D01*
X216981597Y-119828145D01*
X217030201Y-119988370D01*
X217046612Y-120155000D01*
X217030201Y-120321630D01*
X216981597Y-120481855D01*
X216902669Y-120629520D01*
X216796449Y-120758949D01*
X216667020Y-120865169D01*
X216519355Y-120944097D01*
X216359130Y-120992701D01*
X216234252Y-121005000D01*
X216150748Y-121005000D01*
X216025870Y-120992701D01*
X215865645Y-120944097D01*
X215717980Y-120865169D01*
X215588551Y-120758949D01*
X215482331Y-120629520D01*
X215403403Y-120481855D01*
X215354799Y-120321630D01*
X215338388Y-120155000D01*
X215354799Y-119988370D01*
X215403403Y-119828145D01*
X215482331Y-119680480D01*
X215588551Y-119551051D01*
X215717980Y-119444831D01*
X215865645Y-119365903D01*
X216025870Y-119317299D01*
X216150748Y-119305000D01*
X216234252Y-119305000D01*
X216359130Y-119317299D01*
X216359130Y-119317299D01*
G37*
G36*
X218899130Y-119317299D02*
X219059355Y-119365903D01*
X219207020Y-119444831D01*
X219336449Y-119551051D01*
X219442669Y-119680480D01*
X219521597Y-119828145D01*
X219570201Y-119988370D01*
X219586612Y-120155000D01*
X219570201Y-120321630D01*
X219521597Y-120481855D01*
X219442669Y-120629520D01*
X219336449Y-120758949D01*
X219207020Y-120865169D01*
X219059355Y-120944097D01*
X218899130Y-120992701D01*
X218774252Y-121005000D01*
X218690748Y-121005000D01*
X218565870Y-120992701D01*
X218405645Y-120944097D01*
X218257980Y-120865169D01*
X218128551Y-120758949D01*
X218022331Y-120629520D01*
X217943403Y-120481855D01*
X217894799Y-120321630D01*
X217878388Y-120155000D01*
X217894799Y-119988370D01*
X217943403Y-119828145D01*
X218022331Y-119680480D01*
X218128551Y-119551051D01*
X218257980Y-119444831D01*
X218405645Y-119365903D01*
X218565870Y-119317299D01*
X218690748Y-119305000D01*
X218774252Y-119305000D01*
X218899130Y-119317299D01*
X218899130Y-119317299D01*
G37*
G36*
X246839130Y-119317299D02*
X246999355Y-119365903D01*
X247147020Y-119444831D01*
X247276449Y-119551051D01*
X247382669Y-119680480D01*
X247461597Y-119828145D01*
X247510201Y-119988370D01*
X247526612Y-120155000D01*
X247510201Y-120321630D01*
X247461597Y-120481855D01*
X247382669Y-120629520D01*
X247276449Y-120758949D01*
X247147020Y-120865169D01*
X246999355Y-120944097D01*
X246839130Y-120992701D01*
X246714252Y-121005000D01*
X246630748Y-121005000D01*
X246505870Y-120992701D01*
X246345645Y-120944097D01*
X246197980Y-120865169D01*
X246068551Y-120758949D01*
X245962331Y-120629520D01*
X245883403Y-120481855D01*
X245834799Y-120321630D01*
X245818388Y-120155000D01*
X245834799Y-119988370D01*
X245883403Y-119828145D01*
X245962331Y-119680480D01*
X246068551Y-119551051D01*
X246197980Y-119444831D01*
X246345645Y-119365903D01*
X246505870Y-119317299D01*
X246630748Y-119305000D01*
X246714252Y-119305000D01*
X246839130Y-119317299D01*
X246839130Y-119317299D01*
G37*
G36*
X244299130Y-119317299D02*
X244459355Y-119365903D01*
X244607020Y-119444831D01*
X244736449Y-119551051D01*
X244842669Y-119680480D01*
X244921597Y-119828145D01*
X244970201Y-119988370D01*
X244986612Y-120155000D01*
X244970201Y-120321630D01*
X244921597Y-120481855D01*
X244842669Y-120629520D01*
X244736449Y-120758949D01*
X244607020Y-120865169D01*
X244459355Y-120944097D01*
X244299130Y-120992701D01*
X244174252Y-121005000D01*
X244090748Y-121005000D01*
X243965870Y-120992701D01*
X243805645Y-120944097D01*
X243657980Y-120865169D01*
X243528551Y-120758949D01*
X243422331Y-120629520D01*
X243343403Y-120481855D01*
X243294799Y-120321630D01*
X243278388Y-120155000D01*
X243294799Y-119988370D01*
X243343403Y-119828145D01*
X243422331Y-119680480D01*
X243528551Y-119551051D01*
X243657980Y-119444831D01*
X243805645Y-119365903D01*
X243965870Y-119317299D01*
X244090748Y-119305000D01*
X244174252Y-119305000D01*
X244299130Y-119317299D01*
X244299130Y-119317299D01*
G37*
G36*
X241759130Y-119317299D02*
X241919355Y-119365903D01*
X242067020Y-119444831D01*
X242196449Y-119551051D01*
X242302669Y-119680480D01*
X242381597Y-119828145D01*
X242430201Y-119988370D01*
X242446612Y-120155000D01*
X242430201Y-120321630D01*
X242381597Y-120481855D01*
X242302669Y-120629520D01*
X242196449Y-120758949D01*
X242067020Y-120865169D01*
X241919355Y-120944097D01*
X241759130Y-120992701D01*
X241634252Y-121005000D01*
X241550748Y-121005000D01*
X241425870Y-120992701D01*
X241265645Y-120944097D01*
X241117980Y-120865169D01*
X240988551Y-120758949D01*
X240882331Y-120629520D01*
X240803403Y-120481855D01*
X240754799Y-120321630D01*
X240738388Y-120155000D01*
X240754799Y-119988370D01*
X240803403Y-119828145D01*
X240882331Y-119680480D01*
X240988551Y-119551051D01*
X241117980Y-119444831D01*
X241265645Y-119365903D01*
X241425870Y-119317299D01*
X241550748Y-119305000D01*
X241634252Y-119305000D01*
X241759130Y-119317299D01*
X241759130Y-119317299D01*
G37*
G36*
X239219130Y-119317299D02*
X239379355Y-119365903D01*
X239527020Y-119444831D01*
X239656449Y-119551051D01*
X239762669Y-119680480D01*
X239841597Y-119828145D01*
X239890201Y-119988370D01*
X239906612Y-120155000D01*
X239890201Y-120321630D01*
X239841597Y-120481855D01*
X239762669Y-120629520D01*
X239656449Y-120758949D01*
X239527020Y-120865169D01*
X239379355Y-120944097D01*
X239219130Y-120992701D01*
X239094252Y-121005000D01*
X239010748Y-121005000D01*
X238885870Y-120992701D01*
X238725645Y-120944097D01*
X238577980Y-120865169D01*
X238448551Y-120758949D01*
X238342331Y-120629520D01*
X238263403Y-120481855D01*
X238214799Y-120321630D01*
X238198388Y-120155000D01*
X238214799Y-119988370D01*
X238263403Y-119828145D01*
X238342331Y-119680480D01*
X238448551Y-119551051D01*
X238577980Y-119444831D01*
X238725645Y-119365903D01*
X238885870Y-119317299D01*
X239010748Y-119305000D01*
X239094252Y-119305000D01*
X239219130Y-119317299D01*
X239219130Y-119317299D01*
G37*
G36*
X234139130Y-119317299D02*
X234299355Y-119365903D01*
X234447020Y-119444831D01*
X234576449Y-119551051D01*
X234682669Y-119680480D01*
X234761597Y-119828145D01*
X234810201Y-119988370D01*
X234826612Y-120155000D01*
X234810201Y-120321630D01*
X234761597Y-120481855D01*
X234682669Y-120629520D01*
X234576449Y-120758949D01*
X234447020Y-120865169D01*
X234299355Y-120944097D01*
X234139130Y-120992701D01*
X234014252Y-121005000D01*
X233930748Y-121005000D01*
X233805870Y-120992701D01*
X233645645Y-120944097D01*
X233497980Y-120865169D01*
X233368551Y-120758949D01*
X233262331Y-120629520D01*
X233183403Y-120481855D01*
X233134799Y-120321630D01*
X233118388Y-120155000D01*
X233134799Y-119988370D01*
X233183403Y-119828145D01*
X233262331Y-119680480D01*
X233368551Y-119551051D01*
X233497980Y-119444831D01*
X233645645Y-119365903D01*
X233805870Y-119317299D01*
X233930748Y-119305000D01*
X234014252Y-119305000D01*
X234139130Y-119317299D01*
X234139130Y-119317299D01*
G37*
G36*
X223979130Y-119317299D02*
X224139355Y-119365903D01*
X224287020Y-119444831D01*
X224416449Y-119551051D01*
X224522669Y-119680480D01*
X224601597Y-119828145D01*
X224650201Y-119988370D01*
X224666612Y-120155000D01*
X224650201Y-120321630D01*
X224601597Y-120481855D01*
X224522669Y-120629520D01*
X224416449Y-120758949D01*
X224287020Y-120865169D01*
X224139355Y-120944097D01*
X223979130Y-120992701D01*
X223854252Y-121005000D01*
X223770748Y-121005000D01*
X223645870Y-120992701D01*
X223485645Y-120944097D01*
X223337980Y-120865169D01*
X223208551Y-120758949D01*
X223102331Y-120629520D01*
X223023403Y-120481855D01*
X222974799Y-120321630D01*
X222958388Y-120155000D01*
X222974799Y-119988370D01*
X223023403Y-119828145D01*
X223102331Y-119680480D01*
X223208551Y-119551051D01*
X223337980Y-119444831D01*
X223485645Y-119365903D01*
X223645870Y-119317299D01*
X223770748Y-119305000D01*
X223854252Y-119305000D01*
X223979130Y-119317299D01*
X223979130Y-119317299D01*
G37*
G36*
X229059130Y-119317299D02*
X229219355Y-119365903D01*
X229367020Y-119444831D01*
X229496449Y-119551051D01*
X229602669Y-119680480D01*
X229681597Y-119828145D01*
X229730201Y-119988370D01*
X229746612Y-120155000D01*
X229730201Y-120321630D01*
X229681597Y-120481855D01*
X229602669Y-120629520D01*
X229496449Y-120758949D01*
X229367020Y-120865169D01*
X229219355Y-120944097D01*
X229059130Y-120992701D01*
X228934252Y-121005000D01*
X228850748Y-121005000D01*
X228725870Y-120992701D01*
X228565645Y-120944097D01*
X228417980Y-120865169D01*
X228288551Y-120758949D01*
X228182331Y-120629520D01*
X228103403Y-120481855D01*
X228054799Y-120321630D01*
X228038388Y-120155000D01*
X228054799Y-119988370D01*
X228103403Y-119828145D01*
X228182331Y-119680480D01*
X228288551Y-119551051D01*
X228417980Y-119444831D01*
X228565645Y-119365903D01*
X228725870Y-119317299D01*
X228850748Y-119305000D01*
X228934252Y-119305000D01*
X229059130Y-119317299D01*
X229059130Y-119317299D01*
G37*
G36*
X226519130Y-119317299D02*
X226679355Y-119365903D01*
X226827020Y-119444831D01*
X226956449Y-119551051D01*
X227062669Y-119680480D01*
X227141597Y-119828145D01*
X227190201Y-119988370D01*
X227206612Y-120155000D01*
X227190201Y-120321630D01*
X227141597Y-120481855D01*
X227062669Y-120629520D01*
X226956449Y-120758949D01*
X226827020Y-120865169D01*
X226679355Y-120944097D01*
X226519130Y-120992701D01*
X226394252Y-121005000D01*
X226310748Y-121005000D01*
X226185870Y-120992701D01*
X226025645Y-120944097D01*
X225877980Y-120865169D01*
X225748551Y-120758949D01*
X225642331Y-120629520D01*
X225563403Y-120481855D01*
X225514799Y-120321630D01*
X225498388Y-120155000D01*
X225514799Y-119988370D01*
X225563403Y-119828145D01*
X225642331Y-119680480D01*
X225748551Y-119551051D01*
X225877980Y-119444831D01*
X226025645Y-119365903D01*
X226185870Y-119317299D01*
X226310748Y-119305000D01*
X226394252Y-119305000D01*
X226519130Y-119317299D01*
X226519130Y-119317299D01*
G37*
G36*
X221439130Y-119317299D02*
X221599355Y-119365903D01*
X221747020Y-119444831D01*
X221876449Y-119551051D01*
X221982669Y-119680480D01*
X222061597Y-119828145D01*
X222110201Y-119988370D01*
X222126612Y-120155000D01*
X222110201Y-120321630D01*
X222061597Y-120481855D01*
X221982669Y-120629520D01*
X221876449Y-120758949D01*
X221747020Y-120865169D01*
X221599355Y-120944097D01*
X221439130Y-120992701D01*
X221314252Y-121005000D01*
X221230748Y-121005000D01*
X221105870Y-120992701D01*
X220945645Y-120944097D01*
X220797980Y-120865169D01*
X220668551Y-120758949D01*
X220562331Y-120629520D01*
X220483403Y-120481855D01*
X220434799Y-120321630D01*
X220418388Y-120155000D01*
X220434799Y-119988370D01*
X220483403Y-119828145D01*
X220562331Y-119680480D01*
X220668551Y-119551051D01*
X220797980Y-119444831D01*
X220945645Y-119365903D01*
X221105870Y-119317299D01*
X221230748Y-119305000D01*
X221314252Y-119305000D01*
X221439130Y-119317299D01*
X221439130Y-119317299D01*
G37*
G36*
X236679130Y-119317299D02*
X236839355Y-119365903D01*
X236987020Y-119444831D01*
X237116449Y-119551051D01*
X237222669Y-119680480D01*
X237301597Y-119828145D01*
X237350201Y-119988370D01*
X237366612Y-120155000D01*
X237350201Y-120321630D01*
X237301597Y-120481855D01*
X237222669Y-120629520D01*
X237116449Y-120758949D01*
X236987020Y-120865169D01*
X236839355Y-120944097D01*
X236679130Y-120992701D01*
X236554252Y-121005000D01*
X236470748Y-121005000D01*
X236345870Y-120992701D01*
X236185645Y-120944097D01*
X236037980Y-120865169D01*
X235908551Y-120758949D01*
X235802331Y-120629520D01*
X235723403Y-120481855D01*
X235674799Y-120321630D01*
X235658388Y-120155000D01*
X235674799Y-119988370D01*
X235723403Y-119828145D01*
X235802331Y-119680480D01*
X235908551Y-119551051D01*
X236037980Y-119444831D01*
X236185645Y-119365903D01*
X236345870Y-119317299D01*
X236470748Y-119305000D01*
X236554252Y-119305000D01*
X236679130Y-119317299D01*
X236679130Y-119317299D01*
G37*
G36*
X255093460Y-116533858D02*
X255253621Y-116565716D01*
X255378604Y-116617486D01*
X255555356Y-116690699D01*
X255826916Y-116872150D01*
X256057850Y-117103084D01*
X256239301Y-117374644D01*
X256312514Y-117551396D01*
X256364284Y-117676379D01*
X256385220Y-117781630D01*
X256428000Y-117996700D01*
X256428000Y-118323300D01*
X256364284Y-118643620D01*
X256239301Y-118945356D01*
X256057850Y-119216916D01*
X255826916Y-119447850D01*
X255555356Y-119629301D01*
X255431796Y-119680481D01*
X255253621Y-119754284D01*
X255093460Y-119786142D01*
X254933300Y-119818000D01*
X254606700Y-119818000D01*
X254446540Y-119786142D01*
X254286379Y-119754284D01*
X254108204Y-119680481D01*
X253984644Y-119629301D01*
X253713084Y-119447850D01*
X253482150Y-119216916D01*
X253300699Y-118945356D01*
X253175716Y-118643620D01*
X253112000Y-118323300D01*
X253112000Y-117996700D01*
X253154780Y-117781630D01*
X253175716Y-117676379D01*
X253227486Y-117551396D01*
X253300699Y-117374644D01*
X253482150Y-117103084D01*
X253713084Y-116872150D01*
X253984644Y-116690699D01*
X254161396Y-116617486D01*
X254286379Y-116565716D01*
X254446540Y-116533858D01*
X254606700Y-116502000D01*
X254933300Y-116502000D01*
X255093460Y-116533858D01*
X255093460Y-116533858D01*
G37*
G36*
X236679130Y-116777299D02*
X236839355Y-116825903D01*
X236987020Y-116904831D01*
X237116449Y-117011051D01*
X237222669Y-117140480D01*
X237301597Y-117288145D01*
X237350201Y-117448370D01*
X237366612Y-117615000D01*
X237350201Y-117781630D01*
X237301597Y-117941855D01*
X237222669Y-118089520D01*
X237116449Y-118218949D01*
X236987020Y-118325169D01*
X236839355Y-118404097D01*
X236679130Y-118452701D01*
X236554252Y-118465000D01*
X236470748Y-118465000D01*
X236345870Y-118452701D01*
X236185645Y-118404097D01*
X236037980Y-118325169D01*
X235908551Y-118218949D01*
X235802331Y-118089520D01*
X235723403Y-117941855D01*
X235674799Y-117781630D01*
X235658388Y-117615000D01*
X235674799Y-117448370D01*
X235723403Y-117288145D01*
X235802331Y-117140480D01*
X235908551Y-117011051D01*
X236037980Y-116904831D01*
X236185645Y-116825903D01*
X236345870Y-116777299D01*
X236470748Y-116765000D01*
X236554252Y-116765000D01*
X236679130Y-116777299D01*
X236679130Y-116777299D01*
G37*
G36*
X231599130Y-116777299D02*
X231759355Y-116825903D01*
X231907020Y-116904831D01*
X232036449Y-117011051D01*
X232142669Y-117140480D01*
X232221597Y-117288145D01*
X232270201Y-117448370D01*
X232286612Y-117615000D01*
X232270201Y-117781630D01*
X232221597Y-117941855D01*
X232142669Y-118089520D01*
X232036449Y-118218949D01*
X231907020Y-118325169D01*
X231759355Y-118404097D01*
X231599130Y-118452701D01*
X231474252Y-118465000D01*
X231390748Y-118465000D01*
X231265870Y-118452701D01*
X231105645Y-118404097D01*
X230957980Y-118325169D01*
X230828551Y-118218949D01*
X230722331Y-118089520D01*
X230643403Y-117941855D01*
X230594799Y-117781630D01*
X230578388Y-117615000D01*
X230594799Y-117448370D01*
X230643403Y-117288145D01*
X230722331Y-117140480D01*
X230828551Y-117011051D01*
X230957980Y-116904831D01*
X231105645Y-116825903D01*
X231265870Y-116777299D01*
X231390748Y-116765000D01*
X231474252Y-116765000D01*
X231599130Y-116777299D01*
X231599130Y-116777299D01*
G37*
G36*
X216359130Y-116777299D02*
X216519355Y-116825903D01*
X216667020Y-116904831D01*
X216796449Y-117011051D01*
X216902669Y-117140480D01*
X216981597Y-117288145D01*
X217030201Y-117448370D01*
X217046612Y-117615000D01*
X217030201Y-117781630D01*
X216981597Y-117941855D01*
X216902669Y-118089520D01*
X216796449Y-118218949D01*
X216667020Y-118325169D01*
X216519355Y-118404097D01*
X216359130Y-118452701D01*
X216234252Y-118465000D01*
X216150748Y-118465000D01*
X216025870Y-118452701D01*
X215865645Y-118404097D01*
X215717980Y-118325169D01*
X215588551Y-118218949D01*
X215482331Y-118089520D01*
X215403403Y-117941855D01*
X215354799Y-117781630D01*
X215338388Y-117615000D01*
X215354799Y-117448370D01*
X215403403Y-117288145D01*
X215482331Y-117140480D01*
X215588551Y-117011051D01*
X215717980Y-116904831D01*
X215865645Y-116825903D01*
X216025870Y-116777299D01*
X216150748Y-116765000D01*
X216234252Y-116765000D01*
X216359130Y-116777299D01*
X216359130Y-116777299D01*
G37*
G36*
X218899130Y-116777299D02*
X219059355Y-116825903D01*
X219207020Y-116904831D01*
X219336449Y-117011051D01*
X219442669Y-117140480D01*
X219521597Y-117288145D01*
X219570201Y-117448370D01*
X219586612Y-117615000D01*
X219570201Y-117781630D01*
X219521597Y-117941855D01*
X219442669Y-118089520D01*
X219336449Y-118218949D01*
X219207020Y-118325169D01*
X219059355Y-118404097D01*
X218899130Y-118452701D01*
X218774252Y-118465000D01*
X218690748Y-118465000D01*
X218565870Y-118452701D01*
X218405645Y-118404097D01*
X218257980Y-118325169D01*
X218128551Y-118218949D01*
X218022331Y-118089520D01*
X217943403Y-117941855D01*
X217894799Y-117781630D01*
X217878388Y-117615000D01*
X217894799Y-117448370D01*
X217943403Y-117288145D01*
X218022331Y-117140480D01*
X218128551Y-117011051D01*
X218257980Y-116904831D01*
X218405645Y-116825903D01*
X218565870Y-116777299D01*
X218690748Y-116765000D01*
X218774252Y-116765000D01*
X218899130Y-116777299D01*
X218899130Y-116777299D01*
G37*
G36*
X223979130Y-116777299D02*
X224139355Y-116825903D01*
X224287020Y-116904831D01*
X224416449Y-117011051D01*
X224522669Y-117140480D01*
X224601597Y-117288145D01*
X224650201Y-117448370D01*
X224666612Y-117615000D01*
X224650201Y-117781630D01*
X224601597Y-117941855D01*
X224522669Y-118089520D01*
X224416449Y-118218949D01*
X224287020Y-118325169D01*
X224139355Y-118404097D01*
X223979130Y-118452701D01*
X223854252Y-118465000D01*
X223770748Y-118465000D01*
X223645870Y-118452701D01*
X223485645Y-118404097D01*
X223337980Y-118325169D01*
X223208551Y-118218949D01*
X223102331Y-118089520D01*
X223023403Y-117941855D01*
X222974799Y-117781630D01*
X222958388Y-117615000D01*
X222974799Y-117448370D01*
X223023403Y-117288145D01*
X223102331Y-117140480D01*
X223208551Y-117011051D01*
X223337980Y-116904831D01*
X223485645Y-116825903D01*
X223645870Y-116777299D01*
X223770748Y-116765000D01*
X223854252Y-116765000D01*
X223979130Y-116777299D01*
X223979130Y-116777299D01*
G37*
G36*
X229059130Y-116777299D02*
X229219355Y-116825903D01*
X229367020Y-116904831D01*
X229496449Y-117011051D01*
X229602669Y-117140480D01*
X229681597Y-117288145D01*
X229730201Y-117448370D01*
X229746612Y-117615000D01*
X229730201Y-117781630D01*
X229681597Y-117941855D01*
X229602669Y-118089520D01*
X229496449Y-118218949D01*
X229367020Y-118325169D01*
X229219355Y-118404097D01*
X229059130Y-118452701D01*
X228934252Y-118465000D01*
X228850748Y-118465000D01*
X228725870Y-118452701D01*
X228565645Y-118404097D01*
X228417980Y-118325169D01*
X228288551Y-118218949D01*
X228182331Y-118089520D01*
X228103403Y-117941855D01*
X228054799Y-117781630D01*
X228038388Y-117615000D01*
X228054799Y-117448370D01*
X228103403Y-117288145D01*
X228182331Y-117140480D01*
X228288551Y-117011051D01*
X228417980Y-116904831D01*
X228565645Y-116825903D01*
X228725870Y-116777299D01*
X228850748Y-116765000D01*
X228934252Y-116765000D01*
X229059130Y-116777299D01*
X229059130Y-116777299D01*
G37*
G36*
X213819130Y-116777299D02*
X213979355Y-116825903D01*
X214127020Y-116904831D01*
X214256449Y-117011051D01*
X214362669Y-117140480D01*
X214441597Y-117288145D01*
X214490201Y-117448370D01*
X214506612Y-117615000D01*
X214490201Y-117781630D01*
X214441597Y-117941855D01*
X214362669Y-118089520D01*
X214256449Y-118218949D01*
X214127020Y-118325169D01*
X213979355Y-118404097D01*
X213819130Y-118452701D01*
X213694252Y-118465000D01*
X213610748Y-118465000D01*
X213485870Y-118452701D01*
X213325645Y-118404097D01*
X213177980Y-118325169D01*
X213048551Y-118218949D01*
X212942331Y-118089520D01*
X212863403Y-117941855D01*
X212814799Y-117781630D01*
X212798388Y-117615000D01*
X212814799Y-117448370D01*
X212863403Y-117288145D01*
X212942331Y-117140480D01*
X213048551Y-117011051D01*
X213177980Y-116904831D01*
X213325645Y-116825903D01*
X213485870Y-116777299D01*
X213610748Y-116765000D01*
X213694252Y-116765000D01*
X213819130Y-116777299D01*
X213819130Y-116777299D01*
G37*
G36*
X241759130Y-116777299D02*
X241919355Y-116825903D01*
X242067020Y-116904831D01*
X242196449Y-117011051D01*
X242302669Y-117140480D01*
X242381597Y-117288145D01*
X242430201Y-117448370D01*
X242446612Y-117615000D01*
X242430201Y-117781630D01*
X242381597Y-117941855D01*
X242302669Y-118089520D01*
X242196449Y-118218949D01*
X242067020Y-118325169D01*
X241919355Y-118404097D01*
X241759130Y-118452701D01*
X241634252Y-118465000D01*
X241550748Y-118465000D01*
X241425870Y-118452701D01*
X241265645Y-118404097D01*
X241117980Y-118325169D01*
X240988551Y-118218949D01*
X240882331Y-118089520D01*
X240803403Y-117941855D01*
X240754799Y-117781630D01*
X240738388Y-117615000D01*
X240754799Y-117448370D01*
X240803403Y-117288145D01*
X240882331Y-117140480D01*
X240988551Y-117011051D01*
X241117980Y-116904831D01*
X241265645Y-116825903D01*
X241425870Y-116777299D01*
X241550748Y-116765000D01*
X241634252Y-116765000D01*
X241759130Y-116777299D01*
X241759130Y-116777299D01*
G37*
G36*
X244299130Y-116777299D02*
X244459355Y-116825903D01*
X244607020Y-116904831D01*
X244736449Y-117011051D01*
X244842669Y-117140480D01*
X244921597Y-117288145D01*
X244970201Y-117448370D01*
X244986612Y-117615000D01*
X244970201Y-117781630D01*
X244921597Y-117941855D01*
X244842669Y-118089520D01*
X244736449Y-118218949D01*
X244607020Y-118325169D01*
X244459355Y-118404097D01*
X244299130Y-118452701D01*
X244174252Y-118465000D01*
X244090748Y-118465000D01*
X243965870Y-118452701D01*
X243805645Y-118404097D01*
X243657980Y-118325169D01*
X243528551Y-118218949D01*
X243422331Y-118089520D01*
X243343403Y-117941855D01*
X243294799Y-117781630D01*
X243278388Y-117615000D01*
X243294799Y-117448370D01*
X243343403Y-117288145D01*
X243422331Y-117140480D01*
X243528551Y-117011051D01*
X243657980Y-116904831D01*
X243805645Y-116825903D01*
X243965870Y-116777299D01*
X244090748Y-116765000D01*
X244174252Y-116765000D01*
X244299130Y-116777299D01*
X244299130Y-116777299D01*
G37*
G36*
X246839130Y-116777299D02*
X246999355Y-116825903D01*
X247147020Y-116904831D01*
X247276449Y-117011051D01*
X247382669Y-117140480D01*
X247461597Y-117288145D01*
X247510201Y-117448370D01*
X247526612Y-117615000D01*
X247510201Y-117781630D01*
X247461597Y-117941855D01*
X247382669Y-118089520D01*
X247276449Y-118218949D01*
X247147020Y-118325169D01*
X246999355Y-118404097D01*
X246839130Y-118452701D01*
X246714252Y-118465000D01*
X246630748Y-118465000D01*
X246505870Y-118452701D01*
X246345645Y-118404097D01*
X246197980Y-118325169D01*
X246068551Y-118218949D01*
X245962331Y-118089520D01*
X245883403Y-117941855D01*
X245834799Y-117781630D01*
X245818388Y-117615000D01*
X245834799Y-117448370D01*
X245883403Y-117288145D01*
X245962331Y-117140480D01*
X246068551Y-117011051D01*
X246197980Y-116904831D01*
X246345645Y-116825903D01*
X246505870Y-116777299D01*
X246630748Y-116765000D01*
X246714252Y-116765000D01*
X246839130Y-116777299D01*
X246839130Y-116777299D01*
G37*
G36*
X239219130Y-116777299D02*
X239379355Y-116825903D01*
X239527020Y-116904831D01*
X239656449Y-117011051D01*
X239762669Y-117140480D01*
X239841597Y-117288145D01*
X239890201Y-117448370D01*
X239906612Y-117615000D01*
X239890201Y-117781630D01*
X239841597Y-117941855D01*
X239762669Y-118089520D01*
X239656449Y-118218949D01*
X239527020Y-118325169D01*
X239379355Y-118404097D01*
X239219130Y-118452701D01*
X239094252Y-118465000D01*
X239010748Y-118465000D01*
X238885870Y-118452701D01*
X238725645Y-118404097D01*
X238577980Y-118325169D01*
X238448551Y-118218949D01*
X238342331Y-118089520D01*
X238263403Y-117941855D01*
X238214799Y-117781630D01*
X238198388Y-117615000D01*
X238214799Y-117448370D01*
X238263403Y-117288145D01*
X238342331Y-117140480D01*
X238448551Y-117011051D01*
X238577980Y-116904831D01*
X238725645Y-116825903D01*
X238885870Y-116777299D01*
X239010748Y-116765000D01*
X239094252Y-116765000D01*
X239219130Y-116777299D01*
X239219130Y-116777299D01*
G37*
G36*
X221439130Y-116777299D02*
X221599355Y-116825903D01*
X221747020Y-116904831D01*
X221876449Y-117011051D01*
X221982669Y-117140480D01*
X222061597Y-117288145D01*
X222110201Y-117448370D01*
X222126612Y-117615000D01*
X222110201Y-117781630D01*
X222061597Y-117941855D01*
X221982669Y-118089520D01*
X221876449Y-118218949D01*
X221747020Y-118325169D01*
X221599355Y-118404097D01*
X221439130Y-118452701D01*
X221314252Y-118465000D01*
X221230748Y-118465000D01*
X221105870Y-118452701D01*
X220945645Y-118404097D01*
X220797980Y-118325169D01*
X220668551Y-118218949D01*
X220562331Y-118089520D01*
X220483403Y-117941855D01*
X220434799Y-117781630D01*
X220418388Y-117615000D01*
X220434799Y-117448370D01*
X220483403Y-117288145D01*
X220562331Y-117140480D01*
X220668551Y-117011051D01*
X220797980Y-116904831D01*
X220945645Y-116825903D01*
X221105870Y-116777299D01*
X221230748Y-116765000D01*
X221314252Y-116765000D01*
X221439130Y-116777299D01*
X221439130Y-116777299D01*
G37*
G36*
X234139130Y-116777299D02*
X234299355Y-116825903D01*
X234447020Y-116904831D01*
X234576449Y-117011051D01*
X234682669Y-117140480D01*
X234761597Y-117288145D01*
X234810201Y-117448370D01*
X234826612Y-117615000D01*
X234810201Y-117781630D01*
X234761597Y-117941855D01*
X234682669Y-118089520D01*
X234576449Y-118218949D01*
X234447020Y-118325169D01*
X234299355Y-118404097D01*
X234139130Y-118452701D01*
X234014252Y-118465000D01*
X233930748Y-118465000D01*
X233805870Y-118452701D01*
X233645645Y-118404097D01*
X233497980Y-118325169D01*
X233368551Y-118218949D01*
X233262331Y-118089520D01*
X233183403Y-117941855D01*
X233134799Y-117781630D01*
X233118388Y-117615000D01*
X233134799Y-117448370D01*
X233183403Y-117288145D01*
X233262331Y-117140480D01*
X233368551Y-117011051D01*
X233497980Y-116904831D01*
X233645645Y-116825903D01*
X233805870Y-116777299D01*
X233930748Y-116765000D01*
X234014252Y-116765000D01*
X234139130Y-116777299D01*
X234139130Y-116777299D01*
G37*
G36*
X226519130Y-116777299D02*
X226679355Y-116825903D01*
X226827020Y-116904831D01*
X226956449Y-117011051D01*
X227062669Y-117140480D01*
X227141597Y-117288145D01*
X227190201Y-117448370D01*
X227206612Y-117615000D01*
X227190201Y-117781630D01*
X227141597Y-117941855D01*
X227062669Y-118089520D01*
X226956449Y-118218949D01*
X226827020Y-118325169D01*
X226679355Y-118404097D01*
X226519130Y-118452701D01*
X226394252Y-118465000D01*
X226310748Y-118465000D01*
X226185870Y-118452701D01*
X226025645Y-118404097D01*
X225877980Y-118325169D01*
X225748551Y-118218949D01*
X225642331Y-118089520D01*
X225563403Y-117941855D01*
X225514799Y-117781630D01*
X225498388Y-117615000D01*
X225514799Y-117448370D01*
X225563403Y-117288145D01*
X225642331Y-117140480D01*
X225748551Y-117011051D01*
X225877980Y-116904831D01*
X226025645Y-116825903D01*
X226185870Y-116777299D01*
X226310748Y-116765000D01*
X226394252Y-116765000D01*
X226519130Y-116777299D01*
X226519130Y-116777299D01*
G37*
G36*
X213819130Y-114237299D02*
X213979355Y-114285903D01*
X214127020Y-114364831D01*
X214256449Y-114471051D01*
X214362669Y-114600480D01*
X214441597Y-114748145D01*
X214490201Y-114908370D01*
X214506612Y-115075000D01*
X214490201Y-115241630D01*
X214441597Y-115401855D01*
X214362669Y-115549520D01*
X214256449Y-115678949D01*
X214127020Y-115785169D01*
X213979355Y-115864097D01*
X213819130Y-115912701D01*
X213694252Y-115925000D01*
X213610748Y-115925000D01*
X213485870Y-115912701D01*
X213325645Y-115864097D01*
X213177980Y-115785169D01*
X213048551Y-115678949D01*
X212942331Y-115549520D01*
X212863403Y-115401855D01*
X212814799Y-115241630D01*
X212798388Y-115075000D01*
X212814799Y-114908370D01*
X212863403Y-114748145D01*
X212942331Y-114600480D01*
X213048551Y-114471051D01*
X213177980Y-114364831D01*
X213325645Y-114285903D01*
X213485870Y-114237299D01*
X213610748Y-114225000D01*
X213694252Y-114225000D01*
X213819130Y-114237299D01*
X213819130Y-114237299D01*
G37*
G36*
X246839130Y-114237299D02*
X246999355Y-114285903D01*
X247147020Y-114364831D01*
X247276449Y-114471051D01*
X247382669Y-114600480D01*
X247461597Y-114748145D01*
X247510201Y-114908370D01*
X247526612Y-115075000D01*
X247510201Y-115241630D01*
X247461597Y-115401855D01*
X247382669Y-115549520D01*
X247276449Y-115678949D01*
X247147020Y-115785169D01*
X246999355Y-115864097D01*
X246839130Y-115912701D01*
X246714252Y-115925000D01*
X246630748Y-115925000D01*
X246505870Y-115912701D01*
X246345645Y-115864097D01*
X246197980Y-115785169D01*
X246068551Y-115678949D01*
X245962331Y-115549520D01*
X245883403Y-115401855D01*
X245834799Y-115241630D01*
X245818388Y-115075000D01*
X245834799Y-114908370D01*
X245883403Y-114748145D01*
X245962331Y-114600480D01*
X246068551Y-114471051D01*
X246197980Y-114364831D01*
X246345645Y-114285903D01*
X246505870Y-114237299D01*
X246630748Y-114225000D01*
X246714252Y-114225000D01*
X246839130Y-114237299D01*
X246839130Y-114237299D01*
G37*
G36*
X234139130Y-114237299D02*
X234299355Y-114285903D01*
X234447020Y-114364831D01*
X234576449Y-114471051D01*
X234682669Y-114600480D01*
X234761597Y-114748145D01*
X234810201Y-114908370D01*
X234826612Y-115075000D01*
X234810201Y-115241630D01*
X234761597Y-115401855D01*
X234682669Y-115549520D01*
X234576449Y-115678949D01*
X234447020Y-115785169D01*
X234299355Y-115864097D01*
X234139130Y-115912701D01*
X234014252Y-115925000D01*
X233930748Y-115925000D01*
X233805870Y-115912701D01*
X233645645Y-115864097D01*
X233497980Y-115785169D01*
X233368551Y-115678949D01*
X233262331Y-115549520D01*
X233183403Y-115401855D01*
X233134799Y-115241630D01*
X233118388Y-115075000D01*
X233134799Y-114908370D01*
X233183403Y-114748145D01*
X233262331Y-114600480D01*
X233368551Y-114471051D01*
X233497980Y-114364831D01*
X233645645Y-114285903D01*
X233805870Y-114237299D01*
X233930748Y-114225000D01*
X234014252Y-114225000D01*
X234139130Y-114237299D01*
X234139130Y-114237299D01*
G37*
G36*
X231599130Y-114237299D02*
X231759355Y-114285903D01*
X231907020Y-114364831D01*
X232036449Y-114471051D01*
X232142669Y-114600480D01*
X232221597Y-114748145D01*
X232270201Y-114908370D01*
X232286612Y-115075000D01*
X232270201Y-115241630D01*
X232221597Y-115401855D01*
X232142669Y-115549520D01*
X232036449Y-115678949D01*
X231907020Y-115785169D01*
X231759355Y-115864097D01*
X231599130Y-115912701D01*
X231474252Y-115925000D01*
X231390748Y-115925000D01*
X231265870Y-115912701D01*
X231105645Y-115864097D01*
X230957980Y-115785169D01*
X230828551Y-115678949D01*
X230722331Y-115549520D01*
X230643403Y-115401855D01*
X230594799Y-115241630D01*
X230578388Y-115075000D01*
X230594799Y-114908370D01*
X230643403Y-114748145D01*
X230722331Y-114600480D01*
X230828551Y-114471051D01*
X230957980Y-114364831D01*
X231105645Y-114285903D01*
X231265870Y-114237299D01*
X231390748Y-114225000D01*
X231474252Y-114225000D01*
X231599130Y-114237299D01*
X231599130Y-114237299D01*
G37*
G36*
X216359130Y-114237299D02*
X216519355Y-114285903D01*
X216667020Y-114364831D01*
X216796449Y-114471051D01*
X216902669Y-114600480D01*
X216981597Y-114748145D01*
X217030201Y-114908370D01*
X217046612Y-115075000D01*
X217030201Y-115241630D01*
X216981597Y-115401855D01*
X216902669Y-115549520D01*
X216796449Y-115678949D01*
X216667020Y-115785169D01*
X216519355Y-115864097D01*
X216359130Y-115912701D01*
X216234252Y-115925000D01*
X216150748Y-115925000D01*
X216025870Y-115912701D01*
X215865645Y-115864097D01*
X215717980Y-115785169D01*
X215588551Y-115678949D01*
X215482331Y-115549520D01*
X215403403Y-115401855D01*
X215354799Y-115241630D01*
X215338388Y-115075000D01*
X215354799Y-114908370D01*
X215403403Y-114748145D01*
X215482331Y-114600480D01*
X215588551Y-114471051D01*
X215717980Y-114364831D01*
X215865645Y-114285903D01*
X216025870Y-114237299D01*
X216150748Y-114225000D01*
X216234252Y-114225000D01*
X216359130Y-114237299D01*
X216359130Y-114237299D01*
G37*
G36*
X218899130Y-114237299D02*
X219059355Y-114285903D01*
X219207020Y-114364831D01*
X219336449Y-114471051D01*
X219442669Y-114600480D01*
X219521597Y-114748145D01*
X219570201Y-114908370D01*
X219586612Y-115075000D01*
X219570201Y-115241630D01*
X219521597Y-115401855D01*
X219442669Y-115549520D01*
X219336449Y-115678949D01*
X219207020Y-115785169D01*
X219059355Y-115864097D01*
X218899130Y-115912701D01*
X218774252Y-115925000D01*
X218690748Y-115925000D01*
X218565870Y-115912701D01*
X218405645Y-115864097D01*
X218257980Y-115785169D01*
X218128551Y-115678949D01*
X218022331Y-115549520D01*
X217943403Y-115401855D01*
X217894799Y-115241630D01*
X217878388Y-115075000D01*
X217894799Y-114908370D01*
X217943403Y-114748145D01*
X218022331Y-114600480D01*
X218128551Y-114471051D01*
X218257980Y-114364831D01*
X218405645Y-114285903D01*
X218565870Y-114237299D01*
X218690748Y-114225000D01*
X218774252Y-114225000D01*
X218899130Y-114237299D01*
X218899130Y-114237299D01*
G37*
G36*
X223979130Y-114237299D02*
X224139355Y-114285903D01*
X224287020Y-114364831D01*
X224416449Y-114471051D01*
X224522669Y-114600480D01*
X224601597Y-114748145D01*
X224650201Y-114908370D01*
X224666612Y-115075000D01*
X224650201Y-115241630D01*
X224601597Y-115401855D01*
X224522669Y-115549520D01*
X224416449Y-115678949D01*
X224287020Y-115785169D01*
X224139355Y-115864097D01*
X223979130Y-115912701D01*
X223854252Y-115925000D01*
X223770748Y-115925000D01*
X223645870Y-115912701D01*
X223485645Y-115864097D01*
X223337980Y-115785169D01*
X223208551Y-115678949D01*
X223102331Y-115549520D01*
X223023403Y-115401855D01*
X222974799Y-115241630D01*
X222958388Y-115075000D01*
X222974799Y-114908370D01*
X223023403Y-114748145D01*
X223102331Y-114600480D01*
X223208551Y-114471051D01*
X223337980Y-114364831D01*
X223485645Y-114285903D01*
X223645870Y-114237299D01*
X223770748Y-114225000D01*
X223854252Y-114225000D01*
X223979130Y-114237299D01*
X223979130Y-114237299D01*
G37*
G36*
X226519130Y-114237299D02*
X226679355Y-114285903D01*
X226827020Y-114364831D01*
X226956449Y-114471051D01*
X227062669Y-114600480D01*
X227141597Y-114748145D01*
X227190201Y-114908370D01*
X227206612Y-115075000D01*
X227190201Y-115241630D01*
X227141597Y-115401855D01*
X227062669Y-115549520D01*
X226956449Y-115678949D01*
X226827020Y-115785169D01*
X226679355Y-115864097D01*
X226519130Y-115912701D01*
X226394252Y-115925000D01*
X226310748Y-115925000D01*
X226185870Y-115912701D01*
X226025645Y-115864097D01*
X225877980Y-115785169D01*
X225748551Y-115678949D01*
X225642331Y-115549520D01*
X225563403Y-115401855D01*
X225514799Y-115241630D01*
X225498388Y-115075000D01*
X225514799Y-114908370D01*
X225563403Y-114748145D01*
X225642331Y-114600480D01*
X225748551Y-114471051D01*
X225877980Y-114364831D01*
X226025645Y-114285903D01*
X226185870Y-114237299D01*
X226310748Y-114225000D01*
X226394252Y-114225000D01*
X226519130Y-114237299D01*
X226519130Y-114237299D01*
G37*
G36*
X229059130Y-114237299D02*
X229219355Y-114285903D01*
X229367020Y-114364831D01*
X229496449Y-114471051D01*
X229602669Y-114600480D01*
X229681597Y-114748145D01*
X229730201Y-114908370D01*
X229746612Y-115075000D01*
X229730201Y-115241630D01*
X229681597Y-115401855D01*
X229602669Y-115549520D01*
X229496449Y-115678949D01*
X229367020Y-115785169D01*
X229219355Y-115864097D01*
X229059130Y-115912701D01*
X228934252Y-115925000D01*
X228850748Y-115925000D01*
X228725870Y-115912701D01*
X228565645Y-115864097D01*
X228417980Y-115785169D01*
X228288551Y-115678949D01*
X228182331Y-115549520D01*
X228103403Y-115401855D01*
X228054799Y-115241630D01*
X228038388Y-115075000D01*
X228054799Y-114908370D01*
X228103403Y-114748145D01*
X228182331Y-114600480D01*
X228288551Y-114471051D01*
X228417980Y-114364831D01*
X228565645Y-114285903D01*
X228725870Y-114237299D01*
X228850748Y-114225000D01*
X228934252Y-114225000D01*
X229059130Y-114237299D01*
X229059130Y-114237299D01*
G37*
G36*
X221439130Y-114237299D02*
X221599355Y-114285903D01*
X221747020Y-114364831D01*
X221876449Y-114471051D01*
X221982669Y-114600480D01*
X222061597Y-114748145D01*
X222110201Y-114908370D01*
X222126612Y-115075000D01*
X222110201Y-115241630D01*
X222061597Y-115401855D01*
X221982669Y-115549520D01*
X221876449Y-115678949D01*
X221747020Y-115785169D01*
X221599355Y-115864097D01*
X221439130Y-115912701D01*
X221314252Y-115925000D01*
X221230748Y-115925000D01*
X221105870Y-115912701D01*
X220945645Y-115864097D01*
X220797980Y-115785169D01*
X220668551Y-115678949D01*
X220562331Y-115549520D01*
X220483403Y-115401855D01*
X220434799Y-115241630D01*
X220418388Y-115075000D01*
X220434799Y-114908370D01*
X220483403Y-114748145D01*
X220562331Y-114600480D01*
X220668551Y-114471051D01*
X220797980Y-114364831D01*
X220945645Y-114285903D01*
X221105870Y-114237299D01*
X221230748Y-114225000D01*
X221314252Y-114225000D01*
X221439130Y-114237299D01*
X221439130Y-114237299D01*
G37*
G36*
X236679130Y-114237299D02*
X236839355Y-114285903D01*
X236987020Y-114364831D01*
X237116449Y-114471051D01*
X237222669Y-114600480D01*
X237301597Y-114748145D01*
X237350201Y-114908370D01*
X237366612Y-115075000D01*
X237350201Y-115241630D01*
X237301597Y-115401855D01*
X237222669Y-115549520D01*
X237116449Y-115678949D01*
X236987020Y-115785169D01*
X236839355Y-115864097D01*
X236679130Y-115912701D01*
X236554252Y-115925000D01*
X236470748Y-115925000D01*
X236345870Y-115912701D01*
X236185645Y-115864097D01*
X236037980Y-115785169D01*
X235908551Y-115678949D01*
X235802331Y-115549520D01*
X235723403Y-115401855D01*
X235674799Y-115241630D01*
X235658388Y-115075000D01*
X235674799Y-114908370D01*
X235723403Y-114748145D01*
X235802331Y-114600480D01*
X235908551Y-114471051D01*
X236037980Y-114364831D01*
X236185645Y-114285903D01*
X236345870Y-114237299D01*
X236470748Y-114225000D01*
X236554252Y-114225000D01*
X236679130Y-114237299D01*
X236679130Y-114237299D01*
G37*
G36*
X241759130Y-114237299D02*
X241919355Y-114285903D01*
X242067020Y-114364831D01*
X242196449Y-114471051D01*
X242302669Y-114600480D01*
X242381597Y-114748145D01*
X242430201Y-114908370D01*
X242446612Y-115075000D01*
X242430201Y-115241630D01*
X242381597Y-115401855D01*
X242302669Y-115549520D01*
X242196449Y-115678949D01*
X242067020Y-115785169D01*
X241919355Y-115864097D01*
X241759130Y-115912701D01*
X241634252Y-115925000D01*
X241550748Y-115925000D01*
X241425870Y-115912701D01*
X241265645Y-115864097D01*
X241117980Y-115785169D01*
X240988551Y-115678949D01*
X240882331Y-115549520D01*
X240803403Y-115401855D01*
X240754799Y-115241630D01*
X240738388Y-115075000D01*
X240754799Y-114908370D01*
X240803403Y-114748145D01*
X240882331Y-114600480D01*
X240988551Y-114471051D01*
X241117980Y-114364831D01*
X241265645Y-114285903D01*
X241425870Y-114237299D01*
X241550748Y-114225000D01*
X241634252Y-114225000D01*
X241759130Y-114237299D01*
X241759130Y-114237299D01*
G37*
G36*
X244299130Y-114237299D02*
X244459355Y-114285903D01*
X244607020Y-114364831D01*
X244736449Y-114471051D01*
X244842669Y-114600480D01*
X244921597Y-114748145D01*
X244970201Y-114908370D01*
X244986612Y-115075000D01*
X244970201Y-115241630D01*
X244921597Y-115401855D01*
X244842669Y-115549520D01*
X244736449Y-115678949D01*
X244607020Y-115785169D01*
X244459355Y-115864097D01*
X244299130Y-115912701D01*
X244174252Y-115925000D01*
X244090748Y-115925000D01*
X243965870Y-115912701D01*
X243805645Y-115864097D01*
X243657980Y-115785169D01*
X243528551Y-115678949D01*
X243422331Y-115549520D01*
X243343403Y-115401855D01*
X243294799Y-115241630D01*
X243278388Y-115075000D01*
X243294799Y-114908370D01*
X243343403Y-114748145D01*
X243422331Y-114600480D01*
X243528551Y-114471051D01*
X243657980Y-114364831D01*
X243805645Y-114285903D01*
X243965870Y-114237299D01*
X244090748Y-114225000D01*
X244174252Y-114225000D01*
X244299130Y-114237299D01*
X244299130Y-114237299D01*
G37*
G36*
X239219130Y-114237299D02*
X239379355Y-114285903D01*
X239527020Y-114364831D01*
X239656449Y-114471051D01*
X239762669Y-114600480D01*
X239841597Y-114748145D01*
X239890201Y-114908370D01*
X239906612Y-115075000D01*
X239890201Y-115241630D01*
X239841597Y-115401855D01*
X239762669Y-115549520D01*
X239656449Y-115678949D01*
X239527020Y-115785169D01*
X239379355Y-115864097D01*
X239219130Y-115912701D01*
X239094252Y-115925000D01*
X239010748Y-115925000D01*
X238885870Y-115912701D01*
X238725645Y-115864097D01*
X238577980Y-115785169D01*
X238448551Y-115678949D01*
X238342331Y-115549520D01*
X238263403Y-115401855D01*
X238214799Y-115241630D01*
X238198388Y-115075000D01*
X238214799Y-114908370D01*
X238263403Y-114748145D01*
X238342331Y-114600480D01*
X238448551Y-114471051D01*
X238577980Y-114364831D01*
X238725645Y-114285903D01*
X238885870Y-114237299D01*
X239010748Y-114225000D01*
X239094252Y-114225000D01*
X239219130Y-114237299D01*
X239219130Y-114237299D01*
G37*
G36*
X252278266Y-114403438D02*
X252408203Y-114457259D01*
X252525153Y-114535403D01*
X252624597Y-114634847D01*
X252702741Y-114751797D01*
X252756562Y-114881734D01*
X252784000Y-115019676D01*
X252784000Y-115160324D01*
X252756562Y-115298266D01*
X252702741Y-115428203D01*
X252624597Y-115545153D01*
X252525153Y-115644597D01*
X252525150Y-115644599D01*
X252525149Y-115644600D01*
X252473742Y-115678949D01*
X252408203Y-115722741D01*
X252278266Y-115776562D01*
X252140324Y-115804000D01*
X251999676Y-115804000D01*
X251861734Y-115776562D01*
X251731797Y-115722741D01*
X251666258Y-115678949D01*
X251614851Y-115644600D01*
X251614850Y-115644599D01*
X251614847Y-115644597D01*
X251515403Y-115545153D01*
X251437259Y-115428203D01*
X251383438Y-115298266D01*
X251356000Y-115160324D01*
X251356000Y-115019676D01*
X251383438Y-114881734D01*
X251437259Y-114751797D01*
X251515403Y-114634847D01*
X251614847Y-114535403D01*
X251731797Y-114457259D01*
X251861734Y-114403438D01*
X251999676Y-114376000D01*
X252140324Y-114376000D01*
X252278266Y-114403438D01*
X252278266Y-114403438D01*
G37*
G36*
X246839130Y-111697299D02*
X246999355Y-111745903D01*
X247147020Y-111824831D01*
X247276449Y-111931051D01*
X247382669Y-112060480D01*
X247461597Y-112208145D01*
X247510201Y-112368370D01*
X247526612Y-112535000D01*
X247510201Y-112701630D01*
X247461597Y-112861855D01*
X247382669Y-113009520D01*
X247276449Y-113138949D01*
X247147020Y-113245169D01*
X246999355Y-113324097D01*
X246839130Y-113372701D01*
X246714252Y-113385000D01*
X246630748Y-113385000D01*
X246505870Y-113372701D01*
X246345645Y-113324097D01*
X246197980Y-113245169D01*
X246068551Y-113138949D01*
X245962331Y-113009520D01*
X245883403Y-112861855D01*
X245834799Y-112701630D01*
X245818388Y-112535000D01*
X245834799Y-112368370D01*
X245883403Y-112208145D01*
X245962331Y-112060480D01*
X246068551Y-111931051D01*
X246197980Y-111824831D01*
X246345645Y-111745903D01*
X246505870Y-111697299D01*
X246630748Y-111685000D01*
X246714252Y-111685000D01*
X246839130Y-111697299D01*
X246839130Y-111697299D01*
G37*
G36*
X244299130Y-111697299D02*
X244459355Y-111745903D01*
X244607020Y-111824831D01*
X244736449Y-111931051D01*
X244842669Y-112060480D01*
X244921597Y-112208145D01*
X244970201Y-112368370D01*
X244986612Y-112535000D01*
X244970201Y-112701630D01*
X244921597Y-112861855D01*
X244842669Y-113009520D01*
X244736449Y-113138949D01*
X244607020Y-113245169D01*
X244459355Y-113324097D01*
X244299130Y-113372701D01*
X244174252Y-113385000D01*
X244090748Y-113385000D01*
X243965870Y-113372701D01*
X243805645Y-113324097D01*
X243657980Y-113245169D01*
X243528551Y-113138949D01*
X243422331Y-113009520D01*
X243343403Y-112861855D01*
X243294799Y-112701630D01*
X243278388Y-112535000D01*
X243294799Y-112368370D01*
X243343403Y-112208145D01*
X243422331Y-112060480D01*
X243528551Y-111931051D01*
X243657980Y-111824831D01*
X243805645Y-111745903D01*
X243965870Y-111697299D01*
X244090748Y-111685000D01*
X244174252Y-111685000D01*
X244299130Y-111697299D01*
X244299130Y-111697299D01*
G37*
G36*
X241759130Y-111697299D02*
X241919355Y-111745903D01*
X242067020Y-111824831D01*
X242196449Y-111931051D01*
X242302669Y-112060480D01*
X242381597Y-112208145D01*
X242430201Y-112368370D01*
X242446612Y-112535000D01*
X242430201Y-112701630D01*
X242381597Y-112861855D01*
X242302669Y-113009520D01*
X242196449Y-113138949D01*
X242067020Y-113245169D01*
X241919355Y-113324097D01*
X241759130Y-113372701D01*
X241634252Y-113385000D01*
X241550748Y-113385000D01*
X241425870Y-113372701D01*
X241265645Y-113324097D01*
X241117980Y-113245169D01*
X240988551Y-113138949D01*
X240882331Y-113009520D01*
X240803403Y-112861855D01*
X240754799Y-112701630D01*
X240738388Y-112535000D01*
X240754799Y-112368370D01*
X240803403Y-112208145D01*
X240882331Y-112060480D01*
X240988551Y-111931051D01*
X241117980Y-111824831D01*
X241265645Y-111745903D01*
X241425870Y-111697299D01*
X241550748Y-111685000D01*
X241634252Y-111685000D01*
X241759130Y-111697299D01*
X241759130Y-111697299D01*
G37*
G36*
X239219130Y-111697299D02*
X239379355Y-111745903D01*
X239527020Y-111824831D01*
X239656449Y-111931051D01*
X239762669Y-112060480D01*
X239841597Y-112208145D01*
X239890201Y-112368370D01*
X239906612Y-112535000D01*
X239890201Y-112701630D01*
X239841597Y-112861855D01*
X239762669Y-113009520D01*
X239656449Y-113138949D01*
X239527020Y-113245169D01*
X239379355Y-113324097D01*
X239219130Y-113372701D01*
X239094252Y-113385000D01*
X239010748Y-113385000D01*
X238885870Y-113372701D01*
X238725645Y-113324097D01*
X238577980Y-113245169D01*
X238448551Y-113138949D01*
X238342331Y-113009520D01*
X238263403Y-112861855D01*
X238214799Y-112701630D01*
X238198388Y-112535000D01*
X238214799Y-112368370D01*
X238263403Y-112208145D01*
X238342331Y-112060480D01*
X238448551Y-111931051D01*
X238577980Y-111824831D01*
X238725645Y-111745903D01*
X238885870Y-111697299D01*
X239010748Y-111685000D01*
X239094252Y-111685000D01*
X239219130Y-111697299D01*
X239219130Y-111697299D01*
G37*
G36*
X236679130Y-111697299D02*
X236839355Y-111745903D01*
X236987020Y-111824831D01*
X237116449Y-111931051D01*
X237222669Y-112060480D01*
X237301597Y-112208145D01*
X237350201Y-112368370D01*
X237366612Y-112535000D01*
X237350201Y-112701630D01*
X237301597Y-112861855D01*
X237222669Y-113009520D01*
X237116449Y-113138949D01*
X236987020Y-113245169D01*
X236839355Y-113324097D01*
X236679130Y-113372701D01*
X236554252Y-113385000D01*
X236470748Y-113385000D01*
X236345870Y-113372701D01*
X236185645Y-113324097D01*
X236037980Y-113245169D01*
X235908551Y-113138949D01*
X235802331Y-113009520D01*
X235723403Y-112861855D01*
X235674799Y-112701630D01*
X235658388Y-112535000D01*
X235674799Y-112368370D01*
X235723403Y-112208145D01*
X235802331Y-112060480D01*
X235908551Y-111931051D01*
X236037980Y-111824831D01*
X236185645Y-111745903D01*
X236345870Y-111697299D01*
X236470748Y-111685000D01*
X236554252Y-111685000D01*
X236679130Y-111697299D01*
X236679130Y-111697299D01*
G37*
G36*
X234139130Y-111697299D02*
X234299355Y-111745903D01*
X234447020Y-111824831D01*
X234576449Y-111931051D01*
X234682669Y-112060480D01*
X234761597Y-112208145D01*
X234810201Y-112368370D01*
X234826612Y-112535000D01*
X234810201Y-112701630D01*
X234761597Y-112861855D01*
X234682669Y-113009520D01*
X234576449Y-113138949D01*
X234447020Y-113245169D01*
X234299355Y-113324097D01*
X234139130Y-113372701D01*
X234014252Y-113385000D01*
X233930748Y-113385000D01*
X233805870Y-113372701D01*
X233645645Y-113324097D01*
X233497980Y-113245169D01*
X233368551Y-113138949D01*
X233262331Y-113009520D01*
X233183403Y-112861855D01*
X233134799Y-112701630D01*
X233118388Y-112535000D01*
X233134799Y-112368370D01*
X233183403Y-112208145D01*
X233262331Y-112060480D01*
X233368551Y-111931051D01*
X233497980Y-111824831D01*
X233645645Y-111745903D01*
X233805870Y-111697299D01*
X233930748Y-111685000D01*
X234014252Y-111685000D01*
X234139130Y-111697299D01*
X234139130Y-111697299D01*
G37*
G36*
X231599130Y-111697299D02*
X231759355Y-111745903D01*
X231907020Y-111824831D01*
X232036449Y-111931051D01*
X232142669Y-112060480D01*
X232221597Y-112208145D01*
X232270201Y-112368370D01*
X232286612Y-112535000D01*
X232270201Y-112701630D01*
X232221597Y-112861855D01*
X232142669Y-113009520D01*
X232036449Y-113138949D01*
X231907020Y-113245169D01*
X231759355Y-113324097D01*
X231599130Y-113372701D01*
X231474252Y-113385000D01*
X231390748Y-113385000D01*
X231265870Y-113372701D01*
X231105645Y-113324097D01*
X230957980Y-113245169D01*
X230828551Y-113138949D01*
X230722331Y-113009520D01*
X230643403Y-112861855D01*
X230594799Y-112701630D01*
X230578388Y-112535000D01*
X230594799Y-112368370D01*
X230643403Y-112208145D01*
X230722331Y-112060480D01*
X230828551Y-111931051D01*
X230957980Y-111824831D01*
X231105645Y-111745903D01*
X231265870Y-111697299D01*
X231390748Y-111685000D01*
X231474252Y-111685000D01*
X231599130Y-111697299D01*
X231599130Y-111697299D01*
G37*
G36*
X226519130Y-111697299D02*
X226679355Y-111745903D01*
X226827020Y-111824831D01*
X226956449Y-111931051D01*
X227062669Y-112060480D01*
X227141597Y-112208145D01*
X227190201Y-112368370D01*
X227206612Y-112535000D01*
X227190201Y-112701630D01*
X227141597Y-112861855D01*
X227062669Y-113009520D01*
X226956449Y-113138949D01*
X226827020Y-113245169D01*
X226679355Y-113324097D01*
X226519130Y-113372701D01*
X226394252Y-113385000D01*
X226310748Y-113385000D01*
X226185870Y-113372701D01*
X226025645Y-113324097D01*
X225877980Y-113245169D01*
X225748551Y-113138949D01*
X225642331Y-113009520D01*
X225563403Y-112861855D01*
X225514799Y-112701630D01*
X225498388Y-112535000D01*
X225514799Y-112368370D01*
X225563403Y-112208145D01*
X225642331Y-112060480D01*
X225748551Y-111931051D01*
X225877980Y-111824831D01*
X226025645Y-111745903D01*
X226185870Y-111697299D01*
X226310748Y-111685000D01*
X226394252Y-111685000D01*
X226519130Y-111697299D01*
X226519130Y-111697299D01*
G37*
G36*
X229059130Y-111697299D02*
X229219355Y-111745903D01*
X229367020Y-111824831D01*
X229496449Y-111931051D01*
X229602669Y-112060480D01*
X229681597Y-112208145D01*
X229730201Y-112368370D01*
X229746612Y-112535000D01*
X229730201Y-112701630D01*
X229681597Y-112861855D01*
X229602669Y-113009520D01*
X229496449Y-113138949D01*
X229367020Y-113245169D01*
X229219355Y-113324097D01*
X229059130Y-113372701D01*
X228934252Y-113385000D01*
X228850748Y-113385000D01*
X228725870Y-113372701D01*
X228565645Y-113324097D01*
X228417980Y-113245169D01*
X228288551Y-113138949D01*
X228182331Y-113009520D01*
X228103403Y-112861855D01*
X228054799Y-112701630D01*
X228038388Y-112535000D01*
X228054799Y-112368370D01*
X228103403Y-112208145D01*
X228182331Y-112060480D01*
X228288551Y-111931051D01*
X228417980Y-111824831D01*
X228565645Y-111745903D01*
X228725870Y-111697299D01*
X228850748Y-111685000D01*
X228934252Y-111685000D01*
X229059130Y-111697299D01*
X229059130Y-111697299D01*
G37*
G36*
X213819130Y-111697299D02*
X213979355Y-111745903D01*
X214127020Y-111824831D01*
X214256449Y-111931051D01*
X214362669Y-112060480D01*
X214441597Y-112208145D01*
X214490201Y-112368370D01*
X214506612Y-112535000D01*
X214490201Y-112701630D01*
X214441597Y-112861855D01*
X214362669Y-113009520D01*
X214256449Y-113138949D01*
X214127020Y-113245169D01*
X213979355Y-113324097D01*
X213819130Y-113372701D01*
X213694252Y-113385000D01*
X213610748Y-113385000D01*
X213485870Y-113372701D01*
X213325645Y-113324097D01*
X213177980Y-113245169D01*
X213048551Y-113138949D01*
X212942331Y-113009520D01*
X212863403Y-112861855D01*
X212814799Y-112701630D01*
X212798388Y-112535000D01*
X212814799Y-112368370D01*
X212863403Y-112208145D01*
X212942331Y-112060480D01*
X213048551Y-111931051D01*
X213177980Y-111824831D01*
X213325645Y-111745903D01*
X213485870Y-111697299D01*
X213610748Y-111685000D01*
X213694252Y-111685000D01*
X213819130Y-111697299D01*
X213819130Y-111697299D01*
G37*
G36*
X221439130Y-111697299D02*
X221599355Y-111745903D01*
X221747020Y-111824831D01*
X221876449Y-111931051D01*
X221982669Y-112060480D01*
X222061597Y-112208145D01*
X222110201Y-112368370D01*
X222126612Y-112535000D01*
X222110201Y-112701630D01*
X222061597Y-112861855D01*
X221982669Y-113009520D01*
X221876449Y-113138949D01*
X221747020Y-113245169D01*
X221599355Y-113324097D01*
X221439130Y-113372701D01*
X221314252Y-113385000D01*
X221230748Y-113385000D01*
X221105870Y-113372701D01*
X220945645Y-113324097D01*
X220797980Y-113245169D01*
X220668551Y-113138949D01*
X220562331Y-113009520D01*
X220483403Y-112861855D01*
X220434799Y-112701630D01*
X220418388Y-112535000D01*
X220434799Y-112368370D01*
X220483403Y-112208145D01*
X220562331Y-112060480D01*
X220668551Y-111931051D01*
X220797980Y-111824831D01*
X220945645Y-111745903D01*
X221105870Y-111697299D01*
X221230748Y-111685000D01*
X221314252Y-111685000D01*
X221439130Y-111697299D01*
X221439130Y-111697299D01*
G37*
G36*
X218899130Y-111697299D02*
X219059355Y-111745903D01*
X219207020Y-111824831D01*
X219336449Y-111931051D01*
X219442669Y-112060480D01*
X219521597Y-112208145D01*
X219570201Y-112368370D01*
X219586612Y-112535000D01*
X219570201Y-112701630D01*
X219521597Y-112861855D01*
X219442669Y-113009520D01*
X219336449Y-113138949D01*
X219207020Y-113245169D01*
X219059355Y-113324097D01*
X218899130Y-113372701D01*
X218774252Y-113385000D01*
X218690748Y-113385000D01*
X218565870Y-113372701D01*
X218405645Y-113324097D01*
X218257980Y-113245169D01*
X218128551Y-113138949D01*
X218022331Y-113009520D01*
X217943403Y-112861855D01*
X217894799Y-112701630D01*
X217878388Y-112535000D01*
X217894799Y-112368370D01*
X217943403Y-112208145D01*
X218022331Y-112060480D01*
X218128551Y-111931051D01*
X218257980Y-111824831D01*
X218405645Y-111745903D01*
X218565870Y-111697299D01*
X218690748Y-111685000D01*
X218774252Y-111685000D01*
X218899130Y-111697299D01*
X218899130Y-111697299D01*
G37*
G36*
X223979130Y-111697299D02*
X224139355Y-111745903D01*
X224287020Y-111824831D01*
X224416449Y-111931051D01*
X224522669Y-112060480D01*
X224601597Y-112208145D01*
X224650201Y-112368370D01*
X224666612Y-112535000D01*
X224650201Y-112701630D01*
X224601597Y-112861855D01*
X224522669Y-113009520D01*
X224416449Y-113138949D01*
X224287020Y-113245169D01*
X224139355Y-113324097D01*
X223979130Y-113372701D01*
X223854252Y-113385000D01*
X223770748Y-113385000D01*
X223645870Y-113372701D01*
X223485645Y-113324097D01*
X223337980Y-113245169D01*
X223208551Y-113138949D01*
X223102331Y-113009520D01*
X223023403Y-112861855D01*
X222974799Y-112701630D01*
X222958388Y-112535000D01*
X222974799Y-112368370D01*
X223023403Y-112208145D01*
X223102331Y-112060480D01*
X223208551Y-111931051D01*
X223337980Y-111824831D01*
X223485645Y-111745903D01*
X223645870Y-111697299D01*
X223770748Y-111685000D01*
X223854252Y-111685000D01*
X223979130Y-111697299D01*
X223979130Y-111697299D01*
G37*
G36*
X216359130Y-111697299D02*
X216519355Y-111745903D01*
X216667020Y-111824831D01*
X216796449Y-111931051D01*
X216902669Y-112060480D01*
X216981597Y-112208145D01*
X217030201Y-112368370D01*
X217046612Y-112535000D01*
X217030201Y-112701630D01*
X216981597Y-112861855D01*
X216902669Y-113009520D01*
X216796449Y-113138949D01*
X216667020Y-113245169D01*
X216519355Y-113324097D01*
X216359130Y-113372701D01*
X216234252Y-113385000D01*
X216150748Y-113385000D01*
X216025870Y-113372701D01*
X215865645Y-113324097D01*
X215717980Y-113245169D01*
X215588551Y-113138949D01*
X215482331Y-113009520D01*
X215403403Y-112861855D01*
X215354799Y-112701630D01*
X215338388Y-112535000D01*
X215354799Y-112368370D01*
X215403403Y-112208145D01*
X215482331Y-112060480D01*
X215588551Y-111931051D01*
X215717980Y-111824831D01*
X215865645Y-111745903D01*
X216025870Y-111697299D01*
X216150748Y-111685000D01*
X216234252Y-111685000D01*
X216359130Y-111697299D01*
X216359130Y-111697299D01*
G37*
G36*
X252278266Y-111903438D02*
X252408203Y-111957259D01*
X252525153Y-112035403D01*
X252624597Y-112134847D01*
X252624599Y-112134850D01*
X252624600Y-112134851D01*
X252702739Y-112251794D01*
X252702741Y-112251797D01*
X252756562Y-112381734D01*
X252784000Y-112519676D01*
X252784000Y-112660324D01*
X252756562Y-112798266D01*
X252702741Y-112928203D01*
X252702739Y-112928206D01*
X252648407Y-113009520D01*
X252624597Y-113045153D01*
X252525153Y-113144597D01*
X252408203Y-113222741D01*
X252278266Y-113276562D01*
X252140324Y-113304000D01*
X251999676Y-113304000D01*
X251861734Y-113276562D01*
X251731797Y-113222741D01*
X251614847Y-113144597D01*
X251515403Y-113045153D01*
X251491594Y-113009520D01*
X251437261Y-112928206D01*
X251437259Y-112928203D01*
X251383438Y-112798266D01*
X251356000Y-112660324D01*
X251356000Y-112519676D01*
X251383438Y-112381734D01*
X251437259Y-112251797D01*
X251437261Y-112251794D01*
X251515400Y-112134851D01*
X251515401Y-112134850D01*
X251515403Y-112134847D01*
X251614847Y-112035403D01*
X251731797Y-111957259D01*
X251861734Y-111903438D01*
X251999676Y-111876000D01*
X252140324Y-111876000D01*
X252278266Y-111903438D01*
X252278266Y-111903438D01*
G37*
G36*
X252278266Y-109903438D02*
X252408203Y-109957259D01*
X252525153Y-110035403D01*
X252624597Y-110134847D01*
X252624599Y-110134850D01*
X252624600Y-110134851D01*
X252642493Y-110161630D01*
X252702741Y-110251797D01*
X252756562Y-110381734D01*
X252784000Y-110519676D01*
X252784000Y-110660324D01*
X252756562Y-110798266D01*
X252702741Y-110928203D01*
X252624597Y-111045153D01*
X252525153Y-111144597D01*
X252408203Y-111222741D01*
X252278266Y-111276562D01*
X252140324Y-111304000D01*
X251999676Y-111304000D01*
X251861734Y-111276562D01*
X251731797Y-111222741D01*
X251614847Y-111144597D01*
X251515403Y-111045153D01*
X251437259Y-110928203D01*
X251383438Y-110798266D01*
X251356000Y-110660324D01*
X251356000Y-110519676D01*
X251383438Y-110381734D01*
X251437259Y-110251797D01*
X251497507Y-110161630D01*
X251515400Y-110134851D01*
X251515401Y-110134850D01*
X251515403Y-110134847D01*
X251614847Y-110035403D01*
X251731797Y-109957259D01*
X251861734Y-109903438D01*
X251999676Y-109876000D01*
X252140324Y-109876000D01*
X252278266Y-109903438D01*
X252278266Y-109903438D01*
G37*
G36*
X213819130Y-109157299D02*
X213979355Y-109205903D01*
X214127020Y-109284831D01*
X214256449Y-109391051D01*
X214362669Y-109520480D01*
X214441597Y-109668145D01*
X214490201Y-109828370D01*
X214506612Y-109995000D01*
X214490201Y-110161630D01*
X214441597Y-110321855D01*
X214362669Y-110469520D01*
X214256449Y-110598949D01*
X214127020Y-110705169D01*
X213979355Y-110784097D01*
X213819130Y-110832701D01*
X213694252Y-110845000D01*
X213610748Y-110845000D01*
X213485870Y-110832701D01*
X213325645Y-110784097D01*
X213177980Y-110705169D01*
X213048551Y-110598949D01*
X212942331Y-110469520D01*
X212863403Y-110321855D01*
X212814799Y-110161630D01*
X212798388Y-109995000D01*
X212814799Y-109828370D01*
X212863403Y-109668145D01*
X212942331Y-109520480D01*
X213048551Y-109391051D01*
X213177980Y-109284831D01*
X213325645Y-109205903D01*
X213485870Y-109157299D01*
X213610748Y-109145000D01*
X213694252Y-109145000D01*
X213819130Y-109157299D01*
X213819130Y-109157299D01*
G37*
G36*
X239219130Y-109157299D02*
X239379355Y-109205903D01*
X239527020Y-109284831D01*
X239656449Y-109391051D01*
X239762669Y-109520480D01*
X239841597Y-109668145D01*
X239890201Y-109828370D01*
X239906612Y-109995000D01*
X239890201Y-110161630D01*
X239841597Y-110321855D01*
X239762669Y-110469520D01*
X239656449Y-110598949D01*
X239527020Y-110705169D01*
X239379355Y-110784097D01*
X239219130Y-110832701D01*
X239094252Y-110845000D01*
X239010748Y-110845000D01*
X238885870Y-110832701D01*
X238725645Y-110784097D01*
X238577980Y-110705169D01*
X238448551Y-110598949D01*
X238342331Y-110469520D01*
X238263403Y-110321855D01*
X238214799Y-110161630D01*
X238198388Y-109995000D01*
X238214799Y-109828370D01*
X238263403Y-109668145D01*
X238342331Y-109520480D01*
X238448551Y-109391051D01*
X238577980Y-109284831D01*
X238725645Y-109205903D01*
X238885870Y-109157299D01*
X239010748Y-109145000D01*
X239094252Y-109145000D01*
X239219130Y-109157299D01*
X239219130Y-109157299D01*
G37*
G36*
X241759130Y-109157299D02*
X241919355Y-109205903D01*
X242067020Y-109284831D01*
X242196449Y-109391051D01*
X242302669Y-109520480D01*
X242381597Y-109668145D01*
X242430201Y-109828370D01*
X242446612Y-109995000D01*
X242430201Y-110161630D01*
X242381597Y-110321855D01*
X242302669Y-110469520D01*
X242196449Y-110598949D01*
X242067020Y-110705169D01*
X241919355Y-110784097D01*
X241759130Y-110832701D01*
X241634252Y-110845000D01*
X241550748Y-110845000D01*
X241425870Y-110832701D01*
X241265645Y-110784097D01*
X241117980Y-110705169D01*
X240988551Y-110598949D01*
X240882331Y-110469520D01*
X240803403Y-110321855D01*
X240754799Y-110161630D01*
X240738388Y-109995000D01*
X240754799Y-109828370D01*
X240803403Y-109668145D01*
X240882331Y-109520480D01*
X240988551Y-109391051D01*
X241117980Y-109284831D01*
X241265645Y-109205903D01*
X241425870Y-109157299D01*
X241550748Y-109145000D01*
X241634252Y-109145000D01*
X241759130Y-109157299D01*
X241759130Y-109157299D01*
G37*
G36*
X236679130Y-109157299D02*
X236839355Y-109205903D01*
X236987020Y-109284831D01*
X237116449Y-109391051D01*
X237222669Y-109520480D01*
X237301597Y-109668145D01*
X237350201Y-109828370D01*
X237366612Y-109995000D01*
X237350201Y-110161630D01*
X237301597Y-110321855D01*
X237222669Y-110469520D01*
X237116449Y-110598949D01*
X236987020Y-110705169D01*
X236839355Y-110784097D01*
X236679130Y-110832701D01*
X236554252Y-110845000D01*
X236470748Y-110845000D01*
X236345870Y-110832701D01*
X236185645Y-110784097D01*
X236037980Y-110705169D01*
X235908551Y-110598949D01*
X235802331Y-110469520D01*
X235723403Y-110321855D01*
X235674799Y-110161630D01*
X235658388Y-109995000D01*
X235674799Y-109828370D01*
X235723403Y-109668145D01*
X235802331Y-109520480D01*
X235908551Y-109391051D01*
X236037980Y-109284831D01*
X236185645Y-109205903D01*
X236345870Y-109157299D01*
X236470748Y-109145000D01*
X236554252Y-109145000D01*
X236679130Y-109157299D01*
X236679130Y-109157299D01*
G37*
G36*
X244299130Y-109157299D02*
X244459355Y-109205903D01*
X244607020Y-109284831D01*
X244736449Y-109391051D01*
X244842669Y-109520480D01*
X244921597Y-109668145D01*
X244970201Y-109828370D01*
X244986612Y-109995000D01*
X244970201Y-110161630D01*
X244921597Y-110321855D01*
X244842669Y-110469520D01*
X244736449Y-110598949D01*
X244607020Y-110705169D01*
X244459355Y-110784097D01*
X244299130Y-110832701D01*
X244174252Y-110845000D01*
X244090748Y-110845000D01*
X243965870Y-110832701D01*
X243805645Y-110784097D01*
X243657980Y-110705169D01*
X243528551Y-110598949D01*
X243422331Y-110469520D01*
X243343403Y-110321855D01*
X243294799Y-110161630D01*
X243278388Y-109995000D01*
X243294799Y-109828370D01*
X243343403Y-109668145D01*
X243422331Y-109520480D01*
X243528551Y-109391051D01*
X243657980Y-109284831D01*
X243805645Y-109205903D01*
X243965870Y-109157299D01*
X244090748Y-109145000D01*
X244174252Y-109145000D01*
X244299130Y-109157299D01*
X244299130Y-109157299D01*
G37*
G36*
X246839130Y-109157299D02*
X246999355Y-109205903D01*
X247147020Y-109284831D01*
X247276449Y-109391051D01*
X247382669Y-109520480D01*
X247461597Y-109668145D01*
X247510201Y-109828370D01*
X247526612Y-109995000D01*
X247510201Y-110161630D01*
X247461597Y-110321855D01*
X247382669Y-110469520D01*
X247276449Y-110598949D01*
X247147020Y-110705169D01*
X246999355Y-110784097D01*
X246839130Y-110832701D01*
X246714252Y-110845000D01*
X246630748Y-110845000D01*
X246505870Y-110832701D01*
X246345645Y-110784097D01*
X246197980Y-110705169D01*
X246068551Y-110598949D01*
X245962331Y-110469520D01*
X245883403Y-110321855D01*
X245834799Y-110161630D01*
X245818388Y-109995000D01*
X245834799Y-109828370D01*
X245883403Y-109668145D01*
X245962331Y-109520480D01*
X246068551Y-109391051D01*
X246197980Y-109284831D01*
X246345645Y-109205903D01*
X246505870Y-109157299D01*
X246630748Y-109145000D01*
X246714252Y-109145000D01*
X246839130Y-109157299D01*
X246839130Y-109157299D01*
G37*
G36*
X234139130Y-109157299D02*
X234299355Y-109205903D01*
X234447020Y-109284831D01*
X234576449Y-109391051D01*
X234682669Y-109520480D01*
X234761597Y-109668145D01*
X234810201Y-109828370D01*
X234826612Y-109995000D01*
X234810201Y-110161630D01*
X234761597Y-110321855D01*
X234682669Y-110469520D01*
X234576449Y-110598949D01*
X234447020Y-110705169D01*
X234299355Y-110784097D01*
X234139130Y-110832701D01*
X234014252Y-110845000D01*
X233930748Y-110845000D01*
X233805870Y-110832701D01*
X233645645Y-110784097D01*
X233497980Y-110705169D01*
X233368551Y-110598949D01*
X233262331Y-110469520D01*
X233183403Y-110321855D01*
X233134799Y-110161630D01*
X233118388Y-109995000D01*
X233134799Y-109828370D01*
X233183403Y-109668145D01*
X233262331Y-109520480D01*
X233368551Y-109391051D01*
X233497980Y-109284831D01*
X233645645Y-109205903D01*
X233805870Y-109157299D01*
X233930748Y-109145000D01*
X234014252Y-109145000D01*
X234139130Y-109157299D01*
X234139130Y-109157299D01*
G37*
G36*
X216359130Y-109157299D02*
X216519355Y-109205903D01*
X216667020Y-109284831D01*
X216796449Y-109391051D01*
X216902669Y-109520480D01*
X216981597Y-109668145D01*
X217030201Y-109828370D01*
X217046612Y-109995000D01*
X217030201Y-110161630D01*
X216981597Y-110321855D01*
X216902669Y-110469520D01*
X216796449Y-110598949D01*
X216667020Y-110705169D01*
X216519355Y-110784097D01*
X216359130Y-110832701D01*
X216234252Y-110845000D01*
X216150748Y-110845000D01*
X216025870Y-110832701D01*
X215865645Y-110784097D01*
X215717980Y-110705169D01*
X215588551Y-110598949D01*
X215482331Y-110469520D01*
X215403403Y-110321855D01*
X215354799Y-110161630D01*
X215338388Y-109995000D01*
X215354799Y-109828370D01*
X215403403Y-109668145D01*
X215482331Y-109520480D01*
X215588551Y-109391051D01*
X215717980Y-109284831D01*
X215865645Y-109205903D01*
X216025870Y-109157299D01*
X216150748Y-109145000D01*
X216234252Y-109145000D01*
X216359130Y-109157299D01*
X216359130Y-109157299D01*
G37*
G36*
X218899130Y-109157299D02*
X219059355Y-109205903D01*
X219207020Y-109284831D01*
X219336449Y-109391051D01*
X219442669Y-109520480D01*
X219521597Y-109668145D01*
X219570201Y-109828370D01*
X219586612Y-109995000D01*
X219570201Y-110161630D01*
X219521597Y-110321855D01*
X219442669Y-110469520D01*
X219336449Y-110598949D01*
X219207020Y-110705169D01*
X219059355Y-110784097D01*
X218899130Y-110832701D01*
X218774252Y-110845000D01*
X218690748Y-110845000D01*
X218565870Y-110832701D01*
X218405645Y-110784097D01*
X218257980Y-110705169D01*
X218128551Y-110598949D01*
X218022331Y-110469520D01*
X217943403Y-110321855D01*
X217894799Y-110161630D01*
X217878388Y-109995000D01*
X217894799Y-109828370D01*
X217943403Y-109668145D01*
X218022331Y-109520480D01*
X218128551Y-109391051D01*
X218257980Y-109284831D01*
X218405645Y-109205903D01*
X218565870Y-109157299D01*
X218690748Y-109145000D01*
X218774252Y-109145000D01*
X218899130Y-109157299D01*
X218899130Y-109157299D01*
G37*
G36*
X221439130Y-109157299D02*
X221599355Y-109205903D01*
X221747020Y-109284831D01*
X221876449Y-109391051D01*
X221982669Y-109520480D01*
X222061597Y-109668145D01*
X222110201Y-109828370D01*
X222126612Y-109995000D01*
X222110201Y-110161630D01*
X222061597Y-110321855D01*
X221982669Y-110469520D01*
X221876449Y-110598949D01*
X221747020Y-110705169D01*
X221599355Y-110784097D01*
X221439130Y-110832701D01*
X221314252Y-110845000D01*
X221230748Y-110845000D01*
X221105870Y-110832701D01*
X220945645Y-110784097D01*
X220797980Y-110705169D01*
X220668551Y-110598949D01*
X220562331Y-110469520D01*
X220483403Y-110321855D01*
X220434799Y-110161630D01*
X220418388Y-109995000D01*
X220434799Y-109828370D01*
X220483403Y-109668145D01*
X220562331Y-109520480D01*
X220668551Y-109391051D01*
X220797980Y-109284831D01*
X220945645Y-109205903D01*
X221105870Y-109157299D01*
X221230748Y-109145000D01*
X221314252Y-109145000D01*
X221439130Y-109157299D01*
X221439130Y-109157299D01*
G37*
G36*
X223979130Y-109157299D02*
X224139355Y-109205903D01*
X224287020Y-109284831D01*
X224416449Y-109391051D01*
X224522669Y-109520480D01*
X224601597Y-109668145D01*
X224650201Y-109828370D01*
X224666612Y-109995000D01*
X224650201Y-110161630D01*
X224601597Y-110321855D01*
X224522669Y-110469520D01*
X224416449Y-110598949D01*
X224287020Y-110705169D01*
X224139355Y-110784097D01*
X223979130Y-110832701D01*
X223854252Y-110845000D01*
X223770748Y-110845000D01*
X223645870Y-110832701D01*
X223485645Y-110784097D01*
X223337980Y-110705169D01*
X223208551Y-110598949D01*
X223102331Y-110469520D01*
X223023403Y-110321855D01*
X222974799Y-110161630D01*
X222958388Y-109995000D01*
X222974799Y-109828370D01*
X223023403Y-109668145D01*
X223102331Y-109520480D01*
X223208551Y-109391051D01*
X223337980Y-109284831D01*
X223485645Y-109205903D01*
X223645870Y-109157299D01*
X223770748Y-109145000D01*
X223854252Y-109145000D01*
X223979130Y-109157299D01*
X223979130Y-109157299D01*
G37*
G36*
X226519130Y-109157299D02*
X226679355Y-109205903D01*
X226827020Y-109284831D01*
X226956449Y-109391051D01*
X227062669Y-109520480D01*
X227141597Y-109668145D01*
X227190201Y-109828370D01*
X227206612Y-109995000D01*
X227190201Y-110161630D01*
X227141597Y-110321855D01*
X227062669Y-110469520D01*
X226956449Y-110598949D01*
X226827020Y-110705169D01*
X226679355Y-110784097D01*
X226519130Y-110832701D01*
X226394252Y-110845000D01*
X226310748Y-110845000D01*
X226185870Y-110832701D01*
X226025645Y-110784097D01*
X225877980Y-110705169D01*
X225748551Y-110598949D01*
X225642331Y-110469520D01*
X225563403Y-110321855D01*
X225514799Y-110161630D01*
X225498388Y-109995000D01*
X225514799Y-109828370D01*
X225563403Y-109668145D01*
X225642331Y-109520480D01*
X225748551Y-109391051D01*
X225877980Y-109284831D01*
X226025645Y-109205903D01*
X226185870Y-109157299D01*
X226310748Y-109145000D01*
X226394252Y-109145000D01*
X226519130Y-109157299D01*
X226519130Y-109157299D01*
G37*
G36*
X231599130Y-109157299D02*
X231759355Y-109205903D01*
X231907020Y-109284831D01*
X232036449Y-109391051D01*
X232142669Y-109520480D01*
X232221597Y-109668145D01*
X232270201Y-109828370D01*
X232286612Y-109995000D01*
X232270201Y-110161630D01*
X232221597Y-110321855D01*
X232142669Y-110469520D01*
X232036449Y-110598949D01*
X231907020Y-110705169D01*
X231759355Y-110784097D01*
X231599130Y-110832701D01*
X231474252Y-110845000D01*
X231390748Y-110845000D01*
X231265870Y-110832701D01*
X231105645Y-110784097D01*
X230957980Y-110705169D01*
X230828551Y-110598949D01*
X230722331Y-110469520D01*
X230643403Y-110321855D01*
X230594799Y-110161630D01*
X230578388Y-109995000D01*
X230594799Y-109828370D01*
X230643403Y-109668145D01*
X230722331Y-109520480D01*
X230828551Y-109391051D01*
X230957980Y-109284831D01*
X231105645Y-109205903D01*
X231265870Y-109157299D01*
X231390748Y-109145000D01*
X231474252Y-109145000D01*
X231599130Y-109157299D01*
X231599130Y-109157299D01*
G37*
G36*
X229059130Y-109157299D02*
X229219355Y-109205903D01*
X229367020Y-109284831D01*
X229496449Y-109391051D01*
X229602669Y-109520480D01*
X229681597Y-109668145D01*
X229730201Y-109828370D01*
X229746612Y-109995000D01*
X229730201Y-110161630D01*
X229681597Y-110321855D01*
X229602669Y-110469520D01*
X229496449Y-110598949D01*
X229367020Y-110705169D01*
X229219355Y-110784097D01*
X229059130Y-110832701D01*
X228934252Y-110845000D01*
X228850748Y-110845000D01*
X228725870Y-110832701D01*
X228565645Y-110784097D01*
X228417980Y-110705169D01*
X228288551Y-110598949D01*
X228182331Y-110469520D01*
X228103403Y-110321855D01*
X228054799Y-110161630D01*
X228038388Y-109995000D01*
X228054799Y-109828370D01*
X228103403Y-109668145D01*
X228182331Y-109520480D01*
X228288551Y-109391051D01*
X228417980Y-109284831D01*
X228565645Y-109205903D01*
X228725870Y-109157299D01*
X228850748Y-109145000D01*
X228934252Y-109145000D01*
X229059130Y-109157299D01*
X229059130Y-109157299D01*
G37*
G36*
X252278266Y-107403438D02*
X252408203Y-107457259D01*
X252525153Y-107535403D01*
X252624597Y-107634847D01*
X252702741Y-107751797D01*
X252756562Y-107881734D01*
X252784000Y-108019676D01*
X252784000Y-108160324D01*
X252756562Y-108298266D01*
X252702741Y-108428203D01*
X252624597Y-108545153D01*
X252525153Y-108644597D01*
X252408203Y-108722741D01*
X252278266Y-108776562D01*
X252140324Y-108804000D01*
X251999676Y-108804000D01*
X251861734Y-108776562D01*
X251731797Y-108722741D01*
X251614847Y-108644597D01*
X251515403Y-108545153D01*
X251437259Y-108428203D01*
X251383438Y-108298266D01*
X251356000Y-108160324D01*
X251356000Y-108019676D01*
X251383438Y-107881734D01*
X251437259Y-107751797D01*
X251515403Y-107634847D01*
X251614847Y-107535403D01*
X251731797Y-107457259D01*
X251861734Y-107403438D01*
X251999676Y-107376000D01*
X252140324Y-107376000D01*
X252278266Y-107403438D01*
X252278266Y-107403438D01*
G37*
G36*
X218899130Y-106617299D02*
X219059355Y-106665903D01*
X219207020Y-106744831D01*
X219336449Y-106851051D01*
X219442669Y-106980480D01*
X219521597Y-107128145D01*
X219570201Y-107288370D01*
X219586612Y-107455000D01*
X219570201Y-107621630D01*
X219521597Y-107781855D01*
X219442669Y-107929520D01*
X219336449Y-108058949D01*
X219207020Y-108165169D01*
X219059355Y-108244097D01*
X218899130Y-108292701D01*
X218774252Y-108305000D01*
X218690748Y-108305000D01*
X218565870Y-108292701D01*
X218405645Y-108244097D01*
X218257980Y-108165169D01*
X218128551Y-108058949D01*
X218022331Y-107929520D01*
X217943403Y-107781855D01*
X217894799Y-107621630D01*
X217878388Y-107455000D01*
X217894799Y-107288370D01*
X217943403Y-107128145D01*
X218022331Y-106980480D01*
X218128551Y-106851051D01*
X218257980Y-106744831D01*
X218405645Y-106665903D01*
X218565870Y-106617299D01*
X218690748Y-106605000D01*
X218774252Y-106605000D01*
X218899130Y-106617299D01*
X218899130Y-106617299D01*
G37*
G36*
X241759130Y-106617299D02*
X241919355Y-106665903D01*
X242067020Y-106744831D01*
X242196449Y-106851051D01*
X242302669Y-106980480D01*
X242381597Y-107128145D01*
X242430201Y-107288370D01*
X242446612Y-107455000D01*
X242430201Y-107621630D01*
X242381597Y-107781855D01*
X242302669Y-107929520D01*
X242196449Y-108058949D01*
X242067020Y-108165169D01*
X241919355Y-108244097D01*
X241759130Y-108292701D01*
X241634252Y-108305000D01*
X241550748Y-108305000D01*
X241425870Y-108292701D01*
X241265645Y-108244097D01*
X241117980Y-108165169D01*
X240988551Y-108058949D01*
X240882331Y-107929520D01*
X240803403Y-107781855D01*
X240754799Y-107621630D01*
X240738388Y-107455000D01*
X240754799Y-107288370D01*
X240803403Y-107128145D01*
X240882331Y-106980480D01*
X240988551Y-106851051D01*
X241117980Y-106744831D01*
X241265645Y-106665903D01*
X241425870Y-106617299D01*
X241550748Y-106605000D01*
X241634252Y-106605000D01*
X241759130Y-106617299D01*
X241759130Y-106617299D01*
G37*
G36*
X244299130Y-106617299D02*
X244459355Y-106665903D01*
X244607020Y-106744831D01*
X244736449Y-106851051D01*
X244842669Y-106980480D01*
X244921597Y-107128145D01*
X244970201Y-107288370D01*
X244986612Y-107455000D01*
X244970201Y-107621630D01*
X244921597Y-107781855D01*
X244842669Y-107929520D01*
X244736449Y-108058949D01*
X244607020Y-108165169D01*
X244459355Y-108244097D01*
X244299130Y-108292701D01*
X244174252Y-108305000D01*
X244090748Y-108305000D01*
X243965870Y-108292701D01*
X243805645Y-108244097D01*
X243657980Y-108165169D01*
X243528551Y-108058949D01*
X243422331Y-107929520D01*
X243343403Y-107781855D01*
X243294799Y-107621630D01*
X243278388Y-107455000D01*
X243294799Y-107288370D01*
X243343403Y-107128145D01*
X243422331Y-106980480D01*
X243528551Y-106851051D01*
X243657980Y-106744831D01*
X243805645Y-106665903D01*
X243965870Y-106617299D01*
X244090748Y-106605000D01*
X244174252Y-106605000D01*
X244299130Y-106617299D01*
X244299130Y-106617299D01*
G37*
G36*
X246839130Y-106617299D02*
X246999355Y-106665903D01*
X247147020Y-106744831D01*
X247276449Y-106851051D01*
X247382669Y-106980480D01*
X247461597Y-107128145D01*
X247510201Y-107288370D01*
X247526612Y-107455000D01*
X247510201Y-107621630D01*
X247461597Y-107781855D01*
X247382669Y-107929520D01*
X247276449Y-108058949D01*
X247147020Y-108165169D01*
X246999355Y-108244097D01*
X246839130Y-108292701D01*
X246714252Y-108305000D01*
X246630748Y-108305000D01*
X246505870Y-108292701D01*
X246345645Y-108244097D01*
X246197980Y-108165169D01*
X246068551Y-108058949D01*
X245962331Y-107929520D01*
X245883403Y-107781855D01*
X245834799Y-107621630D01*
X245818388Y-107455000D01*
X245834799Y-107288370D01*
X245883403Y-107128145D01*
X245962331Y-106980480D01*
X246068551Y-106851051D01*
X246197980Y-106744831D01*
X246345645Y-106665903D01*
X246505870Y-106617299D01*
X246630748Y-106605000D01*
X246714252Y-106605000D01*
X246839130Y-106617299D01*
X246839130Y-106617299D01*
G37*
G36*
X229059130Y-106617299D02*
X229219355Y-106665903D01*
X229367020Y-106744831D01*
X229496449Y-106851051D01*
X229602669Y-106980480D01*
X229681597Y-107128145D01*
X229730201Y-107288370D01*
X229746612Y-107455000D01*
X229730201Y-107621630D01*
X229681597Y-107781855D01*
X229602669Y-107929520D01*
X229496449Y-108058949D01*
X229367020Y-108165169D01*
X229219355Y-108244097D01*
X229059130Y-108292701D01*
X228934252Y-108305000D01*
X228850748Y-108305000D01*
X228725870Y-108292701D01*
X228565645Y-108244097D01*
X228417980Y-108165169D01*
X228288551Y-108058949D01*
X228182331Y-107929520D01*
X228103403Y-107781855D01*
X228054799Y-107621630D01*
X228038388Y-107455000D01*
X228054799Y-107288370D01*
X228103403Y-107128145D01*
X228182331Y-106980480D01*
X228288551Y-106851051D01*
X228417980Y-106744831D01*
X228565645Y-106665903D01*
X228725870Y-106617299D01*
X228850748Y-106605000D01*
X228934252Y-106605000D01*
X229059130Y-106617299D01*
X229059130Y-106617299D01*
G37*
G36*
X226519130Y-106617299D02*
X226679355Y-106665903D01*
X226827020Y-106744831D01*
X226956449Y-106851051D01*
X227062669Y-106980480D01*
X227141597Y-107128145D01*
X227190201Y-107288370D01*
X227206612Y-107455000D01*
X227190201Y-107621630D01*
X227141597Y-107781855D01*
X227062669Y-107929520D01*
X226956449Y-108058949D01*
X226827020Y-108165169D01*
X226679355Y-108244097D01*
X226519130Y-108292701D01*
X226394252Y-108305000D01*
X226310748Y-108305000D01*
X226185870Y-108292701D01*
X226025645Y-108244097D01*
X225877980Y-108165169D01*
X225748551Y-108058949D01*
X225642331Y-107929520D01*
X225563403Y-107781855D01*
X225514799Y-107621630D01*
X225498388Y-107455000D01*
X225514799Y-107288370D01*
X225563403Y-107128145D01*
X225642331Y-106980480D01*
X225748551Y-106851051D01*
X225877980Y-106744831D01*
X226025645Y-106665903D01*
X226185870Y-106617299D01*
X226310748Y-106605000D01*
X226394252Y-106605000D01*
X226519130Y-106617299D01*
X226519130Y-106617299D01*
G37*
G36*
X223979130Y-106617299D02*
X224139355Y-106665903D01*
X224287020Y-106744831D01*
X224416449Y-106851051D01*
X224522669Y-106980480D01*
X224601597Y-107128145D01*
X224650201Y-107288370D01*
X224666612Y-107455000D01*
X224650201Y-107621630D01*
X224601597Y-107781855D01*
X224522669Y-107929520D01*
X224416449Y-108058949D01*
X224287020Y-108165169D01*
X224139355Y-108244097D01*
X223979130Y-108292701D01*
X223854252Y-108305000D01*
X223770748Y-108305000D01*
X223645870Y-108292701D01*
X223485645Y-108244097D01*
X223337980Y-108165169D01*
X223208551Y-108058949D01*
X223102331Y-107929520D01*
X223023403Y-107781855D01*
X222974799Y-107621630D01*
X222958388Y-107455000D01*
X222974799Y-107288370D01*
X223023403Y-107128145D01*
X223102331Y-106980480D01*
X223208551Y-106851051D01*
X223337980Y-106744831D01*
X223485645Y-106665903D01*
X223645870Y-106617299D01*
X223770748Y-106605000D01*
X223854252Y-106605000D01*
X223979130Y-106617299D01*
X223979130Y-106617299D01*
G37*
G36*
X216359130Y-106617299D02*
X216519355Y-106665903D01*
X216667020Y-106744831D01*
X216796449Y-106851051D01*
X216902669Y-106980480D01*
X216981597Y-107128145D01*
X217030201Y-107288370D01*
X217046612Y-107455000D01*
X217030201Y-107621630D01*
X216981597Y-107781855D01*
X216902669Y-107929520D01*
X216796449Y-108058949D01*
X216667020Y-108165169D01*
X216519355Y-108244097D01*
X216359130Y-108292701D01*
X216234252Y-108305000D01*
X216150748Y-108305000D01*
X216025870Y-108292701D01*
X215865645Y-108244097D01*
X215717980Y-108165169D01*
X215588551Y-108058949D01*
X215482331Y-107929520D01*
X215403403Y-107781855D01*
X215354799Y-107621630D01*
X215338388Y-107455000D01*
X215354799Y-107288370D01*
X215403403Y-107128145D01*
X215482331Y-106980480D01*
X215588551Y-106851051D01*
X215717980Y-106744831D01*
X215865645Y-106665903D01*
X216025870Y-106617299D01*
X216150748Y-106605000D01*
X216234252Y-106605000D01*
X216359130Y-106617299D01*
X216359130Y-106617299D01*
G37*
G36*
X213819130Y-106617299D02*
X213979355Y-106665903D01*
X214127020Y-106744831D01*
X214256449Y-106851051D01*
X214362669Y-106980480D01*
X214441597Y-107128145D01*
X214490201Y-107288370D01*
X214506612Y-107455000D01*
X214490201Y-107621630D01*
X214441597Y-107781855D01*
X214362669Y-107929520D01*
X214256449Y-108058949D01*
X214127020Y-108165169D01*
X213979355Y-108244097D01*
X213819130Y-108292701D01*
X213694252Y-108305000D01*
X213610748Y-108305000D01*
X213485870Y-108292701D01*
X213325645Y-108244097D01*
X213177980Y-108165169D01*
X213048551Y-108058949D01*
X212942331Y-107929520D01*
X212863403Y-107781855D01*
X212814799Y-107621630D01*
X212798388Y-107455000D01*
X212814799Y-107288370D01*
X212863403Y-107128145D01*
X212942331Y-106980480D01*
X213048551Y-106851051D01*
X213177980Y-106744831D01*
X213325645Y-106665903D01*
X213485870Y-106617299D01*
X213610748Y-106605000D01*
X213694252Y-106605000D01*
X213819130Y-106617299D01*
X213819130Y-106617299D01*
G37*
G36*
X221439130Y-106617299D02*
X221599355Y-106665903D01*
X221747020Y-106744831D01*
X221876449Y-106851051D01*
X221982669Y-106980480D01*
X222061597Y-107128145D01*
X222110201Y-107288370D01*
X222126612Y-107455000D01*
X222110201Y-107621630D01*
X222061597Y-107781855D01*
X221982669Y-107929520D01*
X221876449Y-108058949D01*
X221747020Y-108165169D01*
X221599355Y-108244097D01*
X221439130Y-108292701D01*
X221314252Y-108305000D01*
X221230748Y-108305000D01*
X221105870Y-108292701D01*
X220945645Y-108244097D01*
X220797980Y-108165169D01*
X220668551Y-108058949D01*
X220562331Y-107929520D01*
X220483403Y-107781855D01*
X220434799Y-107621630D01*
X220418388Y-107455000D01*
X220434799Y-107288370D01*
X220483403Y-107128145D01*
X220562331Y-106980480D01*
X220668551Y-106851051D01*
X220797980Y-106744831D01*
X220945645Y-106665903D01*
X221105870Y-106617299D01*
X221230748Y-106605000D01*
X221314252Y-106605000D01*
X221439130Y-106617299D01*
X221439130Y-106617299D01*
G37*
G36*
X255093460Y-103393858D02*
X255253621Y-103425716D01*
X255378604Y-103477486D01*
X255555356Y-103550699D01*
X255826916Y-103732150D01*
X256057850Y-103963084D01*
X256239301Y-104234644D01*
X256364284Y-104536380D01*
X256428000Y-104856700D01*
X256428000Y-105183300D01*
X256364284Y-105503620D01*
X256239301Y-105805356D01*
X256057850Y-106076916D01*
X255826916Y-106307850D01*
X255555356Y-106489301D01*
X255378604Y-106562514D01*
X255253621Y-106614284D01*
X255093460Y-106646142D01*
X254933300Y-106678000D01*
X254606700Y-106678000D01*
X254446540Y-106646142D01*
X254286379Y-106614284D01*
X254161396Y-106562514D01*
X253984644Y-106489301D01*
X253713084Y-106307850D01*
X253482150Y-106076916D01*
X253300699Y-105805356D01*
X253175716Y-105503620D01*
X253112000Y-105183300D01*
X253112000Y-104856700D01*
X253175716Y-104536380D01*
X253300699Y-104234644D01*
X253482150Y-103963084D01*
X253713084Y-103732150D01*
X253984644Y-103550699D01*
X254161396Y-103477486D01*
X254286379Y-103425716D01*
X254446540Y-103393858D01*
X254606700Y-103362000D01*
X254933300Y-103362000D01*
X255093460Y-103393858D01*
X255093460Y-103393858D01*
G37*
G36*
X226836630Y-104077299D02*
X226996855Y-104125903D01*
X227144520Y-104204831D01*
X227273949Y-104311051D01*
X227380169Y-104440480D01*
X227459097Y-104588145D01*
X227507701Y-104748370D01*
X227524112Y-104915000D01*
X227507701Y-105081630D01*
X227459097Y-105241855D01*
X227380169Y-105389520D01*
X227273949Y-105518949D01*
X227144520Y-105625169D01*
X226996855Y-105704097D01*
X226836630Y-105752701D01*
X226711752Y-105765000D01*
X226628248Y-105765000D01*
X226503370Y-105752701D01*
X226343145Y-105704097D01*
X226195480Y-105625169D01*
X226066051Y-105518949D01*
X225959831Y-105389520D01*
X225880903Y-105241855D01*
X225832299Y-105081630D01*
X225815888Y-104915000D01*
X225832299Y-104748370D01*
X225880903Y-104588145D01*
X225959831Y-104440480D01*
X226066051Y-104311051D01*
X226195480Y-104204831D01*
X226343145Y-104125903D01*
X226503370Y-104077299D01*
X226628248Y-104065000D01*
X226711752Y-104065000D01*
X226836630Y-104077299D01*
X226836630Y-104077299D01*
G37*
G36*
X239028630Y-104077299D02*
X239188855Y-104125903D01*
X239336520Y-104204831D01*
X239465949Y-104311051D01*
X239572169Y-104440480D01*
X239651097Y-104588145D01*
X239699701Y-104748370D01*
X239716112Y-104915000D01*
X239699701Y-105081630D01*
X239651097Y-105241855D01*
X239572169Y-105389520D01*
X239465949Y-105518949D01*
X239336520Y-105625169D01*
X239188855Y-105704097D01*
X239028630Y-105752701D01*
X238903752Y-105765000D01*
X238820248Y-105765000D01*
X238695370Y-105752701D01*
X238535145Y-105704097D01*
X238387480Y-105625169D01*
X238258051Y-105518949D01*
X238151831Y-105389520D01*
X238072903Y-105241855D01*
X238024299Y-105081630D01*
X238007888Y-104915000D01*
X238024299Y-104748370D01*
X238072903Y-104588145D01*
X238151831Y-104440480D01*
X238258051Y-104311051D01*
X238387480Y-104204831D01*
X238535145Y-104125903D01*
X238695370Y-104077299D01*
X238820248Y-104065000D01*
X238903752Y-104065000D01*
X239028630Y-104077299D01*
X239028630Y-104077299D01*
G37*
G36*
X236488630Y-104077299D02*
X236648855Y-104125903D01*
X236796520Y-104204831D01*
X236925949Y-104311051D01*
X237032169Y-104440480D01*
X237111097Y-104588145D01*
X237159701Y-104748370D01*
X237176112Y-104915000D01*
X237159701Y-105081630D01*
X237111097Y-105241855D01*
X237032169Y-105389520D01*
X236925949Y-105518949D01*
X236796520Y-105625169D01*
X236648855Y-105704097D01*
X236488630Y-105752701D01*
X236363752Y-105765000D01*
X236280248Y-105765000D01*
X236155370Y-105752701D01*
X235995145Y-105704097D01*
X235847480Y-105625169D01*
X235718051Y-105518949D01*
X235611831Y-105389520D01*
X235532903Y-105241855D01*
X235484299Y-105081630D01*
X235467888Y-104915000D01*
X235484299Y-104748370D01*
X235532903Y-104588145D01*
X235611831Y-104440480D01*
X235718051Y-104311051D01*
X235847480Y-104204831D01*
X235995145Y-104125903D01*
X236155370Y-104077299D01*
X236280248Y-104065000D01*
X236363752Y-104065000D01*
X236488630Y-104077299D01*
X236488630Y-104077299D01*
G37*
G36*
X233948630Y-104077299D02*
X234108855Y-104125903D01*
X234256520Y-104204831D01*
X234385949Y-104311051D01*
X234492169Y-104440480D01*
X234571097Y-104588145D01*
X234619701Y-104748370D01*
X234636112Y-104915000D01*
X234619701Y-105081630D01*
X234571097Y-105241855D01*
X234492169Y-105389520D01*
X234385949Y-105518949D01*
X234256520Y-105625169D01*
X234108855Y-105704097D01*
X233948630Y-105752701D01*
X233823752Y-105765000D01*
X233740248Y-105765000D01*
X233615370Y-105752701D01*
X233455145Y-105704097D01*
X233307480Y-105625169D01*
X233178051Y-105518949D01*
X233071831Y-105389520D01*
X232992903Y-105241855D01*
X232944299Y-105081630D01*
X232927888Y-104915000D01*
X232944299Y-104748370D01*
X232992903Y-104588145D01*
X233071831Y-104440480D01*
X233178051Y-104311051D01*
X233307480Y-104204831D01*
X233455145Y-104125903D01*
X233615370Y-104077299D01*
X233740248Y-104065000D01*
X233823752Y-104065000D01*
X233948630Y-104077299D01*
X233948630Y-104077299D01*
G37*
G36*
X232092000Y-105765000D02*
X230392000Y-105765000D01*
X230392000Y-104065000D01*
X232092000Y-104065000D01*
X232092000Y-105765000D01*
X232092000Y-105765000D01*
G37*
G36*
X224980000Y-105765000D02*
X223280000Y-105765000D01*
X223280000Y-104065000D01*
X224980000Y-104065000D01*
X224980000Y-105765000D01*
X224980000Y-105765000D01*
G37*
G36*
X213819130Y-104077299D02*
X213979355Y-104125903D01*
X214127020Y-104204831D01*
X214256449Y-104311051D01*
X214362669Y-104440480D01*
X214441597Y-104588145D01*
X214490201Y-104748370D01*
X214506612Y-104915000D01*
X214490201Y-105081630D01*
X214441597Y-105241855D01*
X214362669Y-105389520D01*
X214256449Y-105518949D01*
X214127020Y-105625169D01*
X213979355Y-105704097D01*
X213819130Y-105752701D01*
X213694252Y-105765000D01*
X213610748Y-105765000D01*
X213485870Y-105752701D01*
X213325645Y-105704097D01*
X213177980Y-105625169D01*
X213048551Y-105518949D01*
X212942331Y-105389520D01*
X212863403Y-105241855D01*
X212814799Y-105081630D01*
X212798388Y-104915000D01*
X212814799Y-104748370D01*
X212863403Y-104588145D01*
X212942331Y-104440480D01*
X213048551Y-104311051D01*
X213177980Y-104204831D01*
X213325645Y-104125903D01*
X213485870Y-104077299D01*
X213610748Y-104065000D01*
X213694252Y-104065000D01*
X213819130Y-104077299D01*
X213819130Y-104077299D01*
G37*
G36*
X216359130Y-104077299D02*
X216519355Y-104125903D01*
X216667020Y-104204831D01*
X216796449Y-104311051D01*
X216902669Y-104440480D01*
X216981597Y-104588145D01*
X217030201Y-104748370D01*
X217046612Y-104915000D01*
X217030201Y-105081630D01*
X216981597Y-105241855D01*
X216902669Y-105389520D01*
X216796449Y-105518949D01*
X216667020Y-105625169D01*
X216519355Y-105704097D01*
X216359130Y-105752701D01*
X216234252Y-105765000D01*
X216150748Y-105765000D01*
X216025870Y-105752701D01*
X215865645Y-105704097D01*
X215717980Y-105625169D01*
X215588551Y-105518949D01*
X215482331Y-105389520D01*
X215403403Y-105241855D01*
X215354799Y-105081630D01*
X215338388Y-104915000D01*
X215354799Y-104748370D01*
X215403403Y-104588145D01*
X215482331Y-104440480D01*
X215588551Y-104311051D01*
X215717980Y-104204831D01*
X215865645Y-104125903D01*
X216025870Y-104077299D01*
X216150748Y-104065000D01*
X216234252Y-104065000D01*
X216359130Y-104077299D01*
X216359130Y-104077299D01*
G37*
G36*
X218899130Y-104077299D02*
X219059355Y-104125903D01*
X219207020Y-104204831D01*
X219336449Y-104311051D01*
X219442669Y-104440480D01*
X219521597Y-104588145D01*
X219570201Y-104748370D01*
X219586612Y-104915000D01*
X219570201Y-105081630D01*
X219521597Y-105241855D01*
X219442669Y-105389520D01*
X219336449Y-105518949D01*
X219207020Y-105625169D01*
X219059355Y-105704097D01*
X218899130Y-105752701D01*
X218774252Y-105765000D01*
X218690748Y-105765000D01*
X218565870Y-105752701D01*
X218405645Y-105704097D01*
X218257980Y-105625169D01*
X218128551Y-105518949D01*
X218022331Y-105389520D01*
X217943403Y-105241855D01*
X217894799Y-105081630D01*
X217878388Y-104915000D01*
X217894799Y-104748370D01*
X217943403Y-104588145D01*
X218022331Y-104440480D01*
X218128551Y-104311051D01*
X218257980Y-104204831D01*
X218405645Y-104125903D01*
X218565870Y-104077299D01*
X218690748Y-104065000D01*
X218774252Y-104065000D01*
X218899130Y-104077299D01*
X218899130Y-104077299D01*
G37*
G36*
X211962500Y-103225000D02*
X210262500Y-103225000D01*
X210262500Y-101525000D01*
X211962500Y-101525000D01*
X211962500Y-103225000D01*
X211962500Y-103225000D01*
G37*
G36*
X213819130Y-101537299D02*
X213979355Y-101585903D01*
X214127020Y-101664831D01*
X214256449Y-101771051D01*
X214362669Y-101900480D01*
X214441597Y-102048145D01*
X214490201Y-102208370D01*
X214506612Y-102375000D01*
X214490201Y-102541630D01*
X214441597Y-102701855D01*
X214362669Y-102849520D01*
X214256449Y-102978949D01*
X214127020Y-103085169D01*
X213979355Y-103164097D01*
X213819130Y-103212701D01*
X213694252Y-103225000D01*
X213610748Y-103225000D01*
X213485870Y-103212701D01*
X213325645Y-103164097D01*
X213177980Y-103085169D01*
X213048551Y-102978949D01*
X212942331Y-102849520D01*
X212863403Y-102701855D01*
X212814799Y-102541630D01*
X212798388Y-102375000D01*
X212814799Y-102208370D01*
X212863403Y-102048145D01*
X212942331Y-101900480D01*
X213048551Y-101771051D01*
X213177980Y-101664831D01*
X213325645Y-101585903D01*
X213485870Y-101537299D01*
X213610748Y-101525000D01*
X213694252Y-101525000D01*
X213819130Y-101537299D01*
X213819130Y-101537299D01*
G37*
G36*
X216359130Y-101537299D02*
X216519355Y-101585903D01*
X216667020Y-101664831D01*
X216796449Y-101771051D01*
X216902669Y-101900480D01*
X216981597Y-102048145D01*
X217030201Y-102208370D01*
X217046612Y-102375000D01*
X217030201Y-102541630D01*
X216981597Y-102701855D01*
X216902669Y-102849520D01*
X216796449Y-102978949D01*
X216667020Y-103085169D01*
X216519355Y-103164097D01*
X216359130Y-103212701D01*
X216234252Y-103225000D01*
X216150748Y-103225000D01*
X216025870Y-103212701D01*
X215865645Y-103164097D01*
X215717980Y-103085169D01*
X215588551Y-102978949D01*
X215482331Y-102849520D01*
X215403403Y-102701855D01*
X215354799Y-102541630D01*
X215338388Y-102375000D01*
X215354799Y-102208370D01*
X215403403Y-102048145D01*
X215482331Y-101900480D01*
X215588551Y-101771051D01*
X215717980Y-101664831D01*
X215865645Y-101585903D01*
X216025870Y-101537299D01*
X216150748Y-101525000D01*
X216234252Y-101525000D01*
X216359130Y-101537299D01*
X216359130Y-101537299D01*
G37*
G36*
X218899130Y-101537299D02*
X219059355Y-101585903D01*
X219207020Y-101664831D01*
X219336449Y-101771051D01*
X219442669Y-101900480D01*
X219521597Y-102048145D01*
X219570201Y-102208370D01*
X219586612Y-102375000D01*
X219570201Y-102541630D01*
X219521597Y-102701855D01*
X219442669Y-102849520D01*
X219336449Y-102978949D01*
X219207020Y-103085169D01*
X219059355Y-103164097D01*
X218899130Y-103212701D01*
X218774252Y-103225000D01*
X218690748Y-103225000D01*
X218565870Y-103212701D01*
X218405645Y-103164097D01*
X218257980Y-103085169D01*
X218128551Y-102978949D01*
X218022331Y-102849520D01*
X217943403Y-102701855D01*
X217894799Y-102541630D01*
X217878388Y-102375000D01*
X217894799Y-102208370D01*
X217943403Y-102048145D01*
X218022331Y-101900480D01*
X218128551Y-101771051D01*
X218257980Y-101664831D01*
X218405645Y-101585903D01*
X218565870Y-101537299D01*
X218690748Y-101525000D01*
X218774252Y-101525000D01*
X218899130Y-101537299D01*
X218899130Y-101537299D01*
G37*
G36*
X239028630Y-101537299D02*
X239188855Y-101585903D01*
X239336520Y-101664831D01*
X239465949Y-101771051D01*
X239572169Y-101900480D01*
X239651097Y-102048145D01*
X239699701Y-102208370D01*
X239716112Y-102375000D01*
X239699701Y-102541630D01*
X239651097Y-102701855D01*
X239572169Y-102849520D01*
X239465949Y-102978949D01*
X239336520Y-103085169D01*
X239188855Y-103164097D01*
X239028630Y-103212701D01*
X238903752Y-103225000D01*
X238820248Y-103225000D01*
X238695370Y-103212701D01*
X238535145Y-103164097D01*
X238387480Y-103085169D01*
X238258051Y-102978949D01*
X238151831Y-102849520D01*
X238072903Y-102701855D01*
X238024299Y-102541630D01*
X238007888Y-102375000D01*
X238024299Y-102208370D01*
X238072903Y-102048145D01*
X238151831Y-101900480D01*
X238258051Y-101771051D01*
X238387480Y-101664831D01*
X238535145Y-101585903D01*
X238695370Y-101537299D01*
X238820248Y-101525000D01*
X238903752Y-101525000D01*
X239028630Y-101537299D01*
X239028630Y-101537299D01*
G37*
G36*
X236488630Y-101537299D02*
X236648855Y-101585903D01*
X236796520Y-101664831D01*
X236925949Y-101771051D01*
X237032169Y-101900480D01*
X237111097Y-102048145D01*
X237159701Y-102208370D01*
X237176112Y-102375000D01*
X237159701Y-102541630D01*
X237111097Y-102701855D01*
X237032169Y-102849520D01*
X236925949Y-102978949D01*
X236796520Y-103085169D01*
X236648855Y-103164097D01*
X236488630Y-103212701D01*
X236363752Y-103225000D01*
X236280248Y-103225000D01*
X236155370Y-103212701D01*
X235995145Y-103164097D01*
X235847480Y-103085169D01*
X235718051Y-102978949D01*
X235611831Y-102849520D01*
X235532903Y-102701855D01*
X235484299Y-102541630D01*
X235467888Y-102375000D01*
X235484299Y-102208370D01*
X235532903Y-102048145D01*
X235611831Y-101900480D01*
X235718051Y-101771051D01*
X235847480Y-101664831D01*
X235995145Y-101585903D01*
X236155370Y-101537299D01*
X236280248Y-101525000D01*
X236363752Y-101525000D01*
X236488630Y-101537299D01*
X236488630Y-101537299D01*
G37*
G36*
X233948630Y-101537299D02*
X234108855Y-101585903D01*
X234256520Y-101664831D01*
X234385949Y-101771051D01*
X234492169Y-101900480D01*
X234571097Y-102048145D01*
X234619701Y-102208370D01*
X234636112Y-102375000D01*
X234619701Y-102541630D01*
X234571097Y-102701855D01*
X234492169Y-102849520D01*
X234385949Y-102978949D01*
X234256520Y-103085169D01*
X234108855Y-103164097D01*
X233948630Y-103212701D01*
X233823752Y-103225000D01*
X233740248Y-103225000D01*
X233615370Y-103212701D01*
X233455145Y-103164097D01*
X233307480Y-103085169D01*
X233178051Y-102978949D01*
X233071831Y-102849520D01*
X232992903Y-102701855D01*
X232944299Y-102541630D01*
X232927888Y-102375000D01*
X232944299Y-102208370D01*
X232992903Y-102048145D01*
X233071831Y-101900480D01*
X233178051Y-101771051D01*
X233307480Y-101664831D01*
X233455145Y-101585903D01*
X233615370Y-101537299D01*
X233740248Y-101525000D01*
X233823752Y-101525000D01*
X233948630Y-101537299D01*
X233948630Y-101537299D01*
G37*
G36*
X232092000Y-103225000D02*
X230392000Y-103225000D01*
X230392000Y-101525000D01*
X232092000Y-101525000D01*
X232092000Y-103225000D01*
X232092000Y-103225000D01*
G37*
G36*
X224296630Y-101537299D02*
X224456855Y-101585903D01*
X224604520Y-101664831D01*
X224733949Y-101771051D01*
X224840169Y-101900480D01*
X224919097Y-102048145D01*
X224967701Y-102208370D01*
X224984112Y-102375000D01*
X224967701Y-102541630D01*
X224919097Y-102701855D01*
X224840169Y-102849520D01*
X224733949Y-102978949D01*
X224604520Y-103085169D01*
X224456855Y-103164097D01*
X224296630Y-103212701D01*
X224171752Y-103225000D01*
X224088248Y-103225000D01*
X223963370Y-103212701D01*
X223803145Y-103164097D01*
X223655480Y-103085169D01*
X223526051Y-102978949D01*
X223419831Y-102849520D01*
X223340903Y-102701855D01*
X223292299Y-102541630D01*
X223275888Y-102375000D01*
X223292299Y-102208370D01*
X223340903Y-102048145D01*
X223419831Y-101900480D01*
X223526051Y-101771051D01*
X223655480Y-101664831D01*
X223803145Y-101585903D01*
X223963370Y-101537299D01*
X224088248Y-101525000D01*
X224171752Y-101525000D01*
X224296630Y-101537299D01*
X224296630Y-101537299D01*
G37*
G36*
X226836630Y-101537299D02*
X226996855Y-101585903D01*
X227144520Y-101664831D01*
X227273949Y-101771051D01*
X227380169Y-101900480D01*
X227459097Y-102048145D01*
X227507701Y-102208370D01*
X227524112Y-102375000D01*
X227507701Y-102541630D01*
X227459097Y-102701855D01*
X227380169Y-102849520D01*
X227273949Y-102978949D01*
X227144520Y-103085169D01*
X226996855Y-103164097D01*
X226836630Y-103212701D01*
X226711752Y-103225000D01*
X226628248Y-103225000D01*
X226503370Y-103212701D01*
X226343145Y-103164097D01*
X226195480Y-103085169D01*
X226066051Y-102978949D01*
X225959831Y-102849520D01*
X225880903Y-102701855D01*
X225832299Y-102541630D01*
X225815888Y-102375000D01*
X225832299Y-102208370D01*
X225880903Y-102048145D01*
X225959831Y-101900480D01*
X226066051Y-101771051D01*
X226195480Y-101664831D01*
X226343145Y-101585903D01*
X226503370Y-101537299D01*
X226628248Y-101525000D01*
X226711752Y-101525000D01*
X226836630Y-101537299D01*
X226836630Y-101537299D01*
G37*
G36*
X211047224Y-97930128D02*
X211179175Y-97970155D01*
X211300781Y-98035155D01*
X211407370Y-98122630D01*
X211494845Y-98229219D01*
X211559845Y-98350825D01*
X211599872Y-98482777D01*
X211610000Y-98585611D01*
X211610000Y-98954390D01*
X211599872Y-99057224D01*
X211559845Y-99189175D01*
X211494845Y-99310781D01*
X211407369Y-99417370D01*
X211300780Y-99504845D01*
X211179174Y-99569845D01*
X211047223Y-99609872D01*
X210910000Y-99623387D01*
X210772776Y-99609872D01*
X210640825Y-99569845D01*
X210519219Y-99504845D01*
X210412630Y-99417369D01*
X210325155Y-99310780D01*
X210260155Y-99189174D01*
X210220128Y-99057223D01*
X210210000Y-98954389D01*
X210210000Y-98585610D01*
X210220128Y-98482776D01*
X210260155Y-98350825D01*
X210325155Y-98229219D01*
X210412631Y-98122630D01*
X210519220Y-98035155D01*
X210640826Y-97970155D01*
X210772777Y-97930128D01*
X210910000Y-97916613D01*
X211047224Y-97930128D01*
X211047224Y-97930128D01*
G37*
G36*
X213587224Y-97930128D02*
X213719175Y-97970155D01*
X213840781Y-98035155D01*
X213947370Y-98122630D01*
X214034845Y-98229219D01*
X214099845Y-98350825D01*
X214139872Y-98482777D01*
X214150000Y-98585611D01*
X214150000Y-98954390D01*
X214139872Y-99057224D01*
X214099845Y-99189175D01*
X214034845Y-99310781D01*
X213947369Y-99417370D01*
X213840780Y-99504845D01*
X213719174Y-99569845D01*
X213587223Y-99609872D01*
X213450000Y-99623387D01*
X213312776Y-99609872D01*
X213180825Y-99569845D01*
X213059219Y-99504845D01*
X212952630Y-99417369D01*
X212865155Y-99310780D01*
X212800155Y-99189174D01*
X212760128Y-99057223D01*
X212750000Y-98954389D01*
X212750000Y-98585610D01*
X212760128Y-98482776D01*
X212800155Y-98350825D01*
X212865155Y-98229219D01*
X212952631Y-98122630D01*
X213059220Y-98035155D01*
X213180826Y-97970155D01*
X213312777Y-97930128D01*
X213450000Y-97916613D01*
X213587224Y-97930128D01*
X213587224Y-97930128D01*
G37*
G36*
X216127224Y-97930128D02*
X216259175Y-97970155D01*
X216380781Y-98035155D01*
X216487370Y-98122630D01*
X216574845Y-98229219D01*
X216639845Y-98350825D01*
X216679872Y-98482777D01*
X216690000Y-98585611D01*
X216690000Y-98954390D01*
X216679872Y-99057224D01*
X216639845Y-99189175D01*
X216574845Y-99310781D01*
X216487369Y-99417370D01*
X216380780Y-99504845D01*
X216259174Y-99569845D01*
X216127223Y-99609872D01*
X215990000Y-99623387D01*
X215852776Y-99609872D01*
X215720825Y-99569845D01*
X215599219Y-99504845D01*
X215492630Y-99417369D01*
X215405155Y-99310780D01*
X215340155Y-99189174D01*
X215300128Y-99057223D01*
X215290000Y-98954389D01*
X215290000Y-98585610D01*
X215300128Y-98482776D01*
X215340155Y-98350825D01*
X215405155Y-98229219D01*
X215492631Y-98122630D01*
X215599220Y-98035155D01*
X215720826Y-97970155D01*
X215852777Y-97930128D01*
X215990000Y-97916613D01*
X216127224Y-97930128D01*
X216127224Y-97930128D01*
G37*
G36*
X218667224Y-97930128D02*
X218799175Y-97970155D01*
X218920781Y-98035155D01*
X219027370Y-98122630D01*
X219114845Y-98229219D01*
X219179845Y-98350825D01*
X219219872Y-98482777D01*
X219230000Y-98585611D01*
X219230000Y-98954390D01*
X219219872Y-99057224D01*
X219179845Y-99189175D01*
X219114845Y-99310781D01*
X219027369Y-99417370D01*
X218920780Y-99504845D01*
X218799174Y-99569845D01*
X218667223Y-99609872D01*
X218530000Y-99623387D01*
X218392776Y-99609872D01*
X218260825Y-99569845D01*
X218139219Y-99504845D01*
X218032630Y-99417369D01*
X217945155Y-99310780D01*
X217880155Y-99189174D01*
X217840128Y-99057223D01*
X217830000Y-98954389D01*
X217830000Y-98585610D01*
X217840128Y-98482776D01*
X217880155Y-98350825D01*
X217945155Y-98229219D01*
X218032631Y-98122630D01*
X218139220Y-98035155D01*
X218260826Y-97970155D01*
X218392777Y-97930128D01*
X218530000Y-97916613D01*
X218667224Y-97930128D01*
X218667224Y-97930128D01*
G37*
G36*
X221207224Y-97930128D02*
X221339175Y-97970155D01*
X221460781Y-98035155D01*
X221567370Y-98122630D01*
X221654845Y-98229219D01*
X221719845Y-98350825D01*
X221759872Y-98482777D01*
X221770000Y-98585611D01*
X221770000Y-98954390D01*
X221759872Y-99057224D01*
X221719845Y-99189175D01*
X221654845Y-99310781D01*
X221567369Y-99417370D01*
X221460780Y-99504845D01*
X221339174Y-99569845D01*
X221207223Y-99609872D01*
X221070000Y-99623387D01*
X220932776Y-99609872D01*
X220800825Y-99569845D01*
X220679219Y-99504845D01*
X220572630Y-99417369D01*
X220485155Y-99310780D01*
X220420155Y-99189174D01*
X220380128Y-99057223D01*
X220370000Y-98954389D01*
X220370000Y-98585610D01*
X220380128Y-98482776D01*
X220420155Y-98350825D01*
X220485155Y-98229219D01*
X220572631Y-98122630D01*
X220679220Y-98035155D01*
X220800826Y-97970155D01*
X220932777Y-97930128D01*
X221070000Y-97916613D01*
X221207224Y-97930128D01*
X221207224Y-97930128D01*
G37*
G36*
X256767224Y-97930128D02*
X256899175Y-97970155D01*
X257020781Y-98035155D01*
X257127370Y-98122630D01*
X257214845Y-98229219D01*
X257279845Y-98350825D01*
X257319872Y-98482777D01*
X257330000Y-98585611D01*
X257330000Y-98954390D01*
X257319872Y-99057224D01*
X257279845Y-99189175D01*
X257214845Y-99310781D01*
X257127369Y-99417370D01*
X257020780Y-99504845D01*
X256899174Y-99569845D01*
X256767223Y-99609872D01*
X256630000Y-99623387D01*
X256492776Y-99609872D01*
X256360825Y-99569845D01*
X256239219Y-99504845D01*
X256132630Y-99417369D01*
X256045155Y-99310780D01*
X255980155Y-99189174D01*
X255940128Y-99057223D01*
X255930000Y-98954389D01*
X255930000Y-98585610D01*
X255940128Y-98482776D01*
X255980155Y-98350825D01*
X256045155Y-98229219D01*
X256132631Y-98122630D01*
X256239220Y-98035155D01*
X256360826Y-97970155D01*
X256492777Y-97930128D01*
X256630000Y-97916613D01*
X256767224Y-97930128D01*
X256767224Y-97930128D01*
G37*
G36*
X223747224Y-97930128D02*
X223879175Y-97970155D01*
X224000781Y-98035155D01*
X224107370Y-98122630D01*
X224194845Y-98229219D01*
X224259845Y-98350825D01*
X224299872Y-98482777D01*
X224310000Y-98585611D01*
X224310000Y-98954390D01*
X224299872Y-99057224D01*
X224259845Y-99189175D01*
X224194845Y-99310781D01*
X224107369Y-99417370D01*
X224000780Y-99504845D01*
X223879174Y-99569845D01*
X223747223Y-99609872D01*
X223610000Y-99623387D01*
X223472776Y-99609872D01*
X223340825Y-99569845D01*
X223219219Y-99504845D01*
X223112630Y-99417369D01*
X223025155Y-99310780D01*
X222960155Y-99189174D01*
X222920128Y-99057223D01*
X222910000Y-98954389D01*
X222910000Y-98585610D01*
X222920128Y-98482776D01*
X222960155Y-98350825D01*
X223025155Y-98229219D01*
X223112631Y-98122630D01*
X223219220Y-98035155D01*
X223340826Y-97970155D01*
X223472777Y-97930128D01*
X223610000Y-97916613D01*
X223747224Y-97930128D01*
X223747224Y-97930128D01*
G37*
G36*
X236447224Y-97930128D02*
X236579175Y-97970155D01*
X236700781Y-98035155D01*
X236807370Y-98122630D01*
X236894845Y-98229219D01*
X236959845Y-98350825D01*
X236999872Y-98482777D01*
X237010000Y-98585611D01*
X237010000Y-98954390D01*
X236999872Y-99057224D01*
X236959845Y-99189175D01*
X236894845Y-99310781D01*
X236807369Y-99417370D01*
X236700780Y-99504845D01*
X236579174Y-99569845D01*
X236447223Y-99609872D01*
X236310000Y-99623387D01*
X236172776Y-99609872D01*
X236040825Y-99569845D01*
X235919219Y-99504845D01*
X235812630Y-99417369D01*
X235725155Y-99310780D01*
X235660155Y-99189174D01*
X235620128Y-99057223D01*
X235610000Y-98954389D01*
X235610000Y-98585610D01*
X235620128Y-98482776D01*
X235660155Y-98350825D01*
X235725155Y-98229219D01*
X235812631Y-98122630D01*
X235919220Y-98035155D01*
X236040826Y-97970155D01*
X236172777Y-97930128D01*
X236310000Y-97916613D01*
X236447224Y-97930128D01*
X236447224Y-97930128D01*
G37*
G36*
X244067224Y-97930128D02*
X244199175Y-97970155D01*
X244320781Y-98035155D01*
X244427370Y-98122630D01*
X244514845Y-98229219D01*
X244579845Y-98350825D01*
X244619872Y-98482777D01*
X244630000Y-98585611D01*
X244630000Y-98954390D01*
X244619872Y-99057224D01*
X244579845Y-99189175D01*
X244514845Y-99310781D01*
X244427369Y-99417370D01*
X244320780Y-99504845D01*
X244199174Y-99569845D01*
X244067223Y-99609872D01*
X243930000Y-99623387D01*
X243792776Y-99609872D01*
X243660825Y-99569845D01*
X243539219Y-99504845D01*
X243432630Y-99417369D01*
X243345155Y-99310780D01*
X243280155Y-99189174D01*
X243240128Y-99057223D01*
X243230000Y-98954389D01*
X243230000Y-98585610D01*
X243240128Y-98482776D01*
X243280155Y-98350825D01*
X243345155Y-98229219D01*
X243432631Y-98122630D01*
X243539220Y-98035155D01*
X243660826Y-97970155D01*
X243792777Y-97930128D01*
X243930000Y-97916613D01*
X244067224Y-97930128D01*
X244067224Y-97930128D01*
G37*
G36*
X246607224Y-97930128D02*
X246739175Y-97970155D01*
X246860781Y-98035155D01*
X246967370Y-98122630D01*
X247054845Y-98229219D01*
X247119845Y-98350825D01*
X247159872Y-98482777D01*
X247170000Y-98585611D01*
X247170000Y-98954390D01*
X247159872Y-99057224D01*
X247119845Y-99189175D01*
X247054845Y-99310781D01*
X246967369Y-99417370D01*
X246860780Y-99504845D01*
X246739174Y-99569845D01*
X246607223Y-99609872D01*
X246470000Y-99623387D01*
X246332776Y-99609872D01*
X246200825Y-99569845D01*
X246079219Y-99504845D01*
X245972630Y-99417369D01*
X245885155Y-99310780D01*
X245820155Y-99189174D01*
X245780128Y-99057223D01*
X245770000Y-98954389D01*
X245770000Y-98585610D01*
X245780128Y-98482776D01*
X245820155Y-98350825D01*
X245885155Y-98229219D01*
X245972631Y-98122630D01*
X246079220Y-98035155D01*
X246200826Y-97970155D01*
X246332777Y-97930128D01*
X246470000Y-97916613D01*
X246607224Y-97930128D01*
X246607224Y-97930128D01*
G37*
G36*
X231367224Y-97930128D02*
X231499175Y-97970155D01*
X231620781Y-98035155D01*
X231727370Y-98122630D01*
X231814845Y-98229219D01*
X231879845Y-98350825D01*
X231919872Y-98482777D01*
X231930000Y-98585611D01*
X231930000Y-98954390D01*
X231919872Y-99057224D01*
X231879845Y-99189175D01*
X231814845Y-99310781D01*
X231727369Y-99417370D01*
X231620780Y-99504845D01*
X231499174Y-99569845D01*
X231367223Y-99609872D01*
X231230000Y-99623387D01*
X231092776Y-99609872D01*
X230960825Y-99569845D01*
X230839219Y-99504845D01*
X230732630Y-99417369D01*
X230645155Y-99310780D01*
X230580155Y-99189174D01*
X230540128Y-99057223D01*
X230530000Y-98954389D01*
X230530000Y-98585610D01*
X230540128Y-98482776D01*
X230580155Y-98350825D01*
X230645155Y-98229219D01*
X230732631Y-98122630D01*
X230839220Y-98035155D01*
X230960826Y-97970155D01*
X231092777Y-97930128D01*
X231230000Y-97916613D01*
X231367224Y-97930128D01*
X231367224Y-97930128D01*
G37*
G36*
X249147224Y-97930128D02*
X249279175Y-97970155D01*
X249400781Y-98035155D01*
X249507370Y-98122630D01*
X249594845Y-98229219D01*
X249659845Y-98350825D01*
X249699872Y-98482777D01*
X249710000Y-98585611D01*
X249710000Y-98954390D01*
X249699872Y-99057224D01*
X249659845Y-99189175D01*
X249594845Y-99310781D01*
X249507369Y-99417370D01*
X249400780Y-99504845D01*
X249279174Y-99569845D01*
X249147223Y-99609872D01*
X249010000Y-99623387D01*
X248872776Y-99609872D01*
X248740825Y-99569845D01*
X248619219Y-99504845D01*
X248512630Y-99417369D01*
X248425155Y-99310780D01*
X248360155Y-99189174D01*
X248320128Y-99057223D01*
X248310000Y-98954389D01*
X248310000Y-98585610D01*
X248320128Y-98482776D01*
X248360155Y-98350825D01*
X248425155Y-98229219D01*
X248512631Y-98122630D01*
X248619220Y-98035155D01*
X248740826Y-97970155D01*
X248872777Y-97930128D01*
X249010000Y-97916613D01*
X249147224Y-97930128D01*
X249147224Y-97930128D01*
G37*
G36*
X228827224Y-97930128D02*
X228959175Y-97970155D01*
X229080781Y-98035155D01*
X229187370Y-98122630D01*
X229274845Y-98229219D01*
X229339845Y-98350825D01*
X229379872Y-98482777D01*
X229390000Y-98585611D01*
X229390000Y-98954390D01*
X229379872Y-99057224D01*
X229339845Y-99189175D01*
X229274845Y-99310781D01*
X229187369Y-99417370D01*
X229080780Y-99504845D01*
X228959174Y-99569845D01*
X228827223Y-99609872D01*
X228690000Y-99623387D01*
X228552776Y-99609872D01*
X228420825Y-99569845D01*
X228299219Y-99504845D01*
X228192630Y-99417369D01*
X228105155Y-99310780D01*
X228040155Y-99189174D01*
X228000128Y-99057223D01*
X227990000Y-98954389D01*
X227990000Y-98585610D01*
X228000128Y-98482776D01*
X228040155Y-98350825D01*
X228105155Y-98229219D01*
X228192631Y-98122630D01*
X228299220Y-98035155D01*
X228420826Y-97970155D01*
X228552777Y-97930128D01*
X228690000Y-97916613D01*
X228827224Y-97930128D01*
X228827224Y-97930128D01*
G37*
G36*
X251687224Y-97930128D02*
X251819175Y-97970155D01*
X251940781Y-98035155D01*
X252047370Y-98122630D01*
X252134845Y-98229219D01*
X252199845Y-98350825D01*
X252239872Y-98482777D01*
X252250000Y-98585611D01*
X252250000Y-98954390D01*
X252239872Y-99057224D01*
X252199845Y-99189175D01*
X252134845Y-99310781D01*
X252047369Y-99417370D01*
X251940780Y-99504845D01*
X251819174Y-99569845D01*
X251687223Y-99609872D01*
X251550000Y-99623387D01*
X251412776Y-99609872D01*
X251280825Y-99569845D01*
X251159219Y-99504845D01*
X251052630Y-99417369D01*
X250965155Y-99310780D01*
X250900155Y-99189174D01*
X250860128Y-99057223D01*
X250850000Y-98954389D01*
X250850000Y-98585610D01*
X250860128Y-98482776D01*
X250900155Y-98350825D01*
X250965155Y-98229219D01*
X251052631Y-98122630D01*
X251159220Y-98035155D01*
X251280826Y-97970155D01*
X251412777Y-97930128D01*
X251550000Y-97916613D01*
X251687224Y-97930128D01*
X251687224Y-97930128D01*
G37*
G36*
X238987224Y-97930128D02*
X239119175Y-97970155D01*
X239240781Y-98035155D01*
X239347370Y-98122630D01*
X239434845Y-98229219D01*
X239499845Y-98350825D01*
X239539872Y-98482777D01*
X239550000Y-98585611D01*
X239550000Y-98954390D01*
X239539872Y-99057224D01*
X239499845Y-99189175D01*
X239434845Y-99310781D01*
X239347369Y-99417370D01*
X239240780Y-99504845D01*
X239119174Y-99569845D01*
X238987223Y-99609872D01*
X238850000Y-99623387D01*
X238712776Y-99609872D01*
X238580825Y-99569845D01*
X238459219Y-99504845D01*
X238352630Y-99417369D01*
X238265155Y-99310780D01*
X238200155Y-99189174D01*
X238160128Y-99057223D01*
X238150000Y-98954389D01*
X238150000Y-98585610D01*
X238160128Y-98482776D01*
X238200155Y-98350825D01*
X238265155Y-98229219D01*
X238352631Y-98122630D01*
X238459220Y-98035155D01*
X238580826Y-97970155D01*
X238712777Y-97930128D01*
X238850000Y-97916613D01*
X238987224Y-97930128D01*
X238987224Y-97930128D01*
G37*
G36*
X226287224Y-97930128D02*
X226419175Y-97970155D01*
X226540781Y-98035155D01*
X226647370Y-98122630D01*
X226734845Y-98229219D01*
X226799845Y-98350825D01*
X226839872Y-98482777D01*
X226850000Y-98585611D01*
X226850000Y-98954390D01*
X226839872Y-99057224D01*
X226799845Y-99189175D01*
X226734845Y-99310781D01*
X226647369Y-99417370D01*
X226540780Y-99504845D01*
X226419174Y-99569845D01*
X226287223Y-99609872D01*
X226150000Y-99623387D01*
X226012776Y-99609872D01*
X225880825Y-99569845D01*
X225759219Y-99504845D01*
X225652630Y-99417369D01*
X225565155Y-99310780D01*
X225500155Y-99189174D01*
X225460128Y-99057223D01*
X225450000Y-98954389D01*
X225450000Y-98585610D01*
X225460128Y-98482776D01*
X225500155Y-98350825D01*
X225565155Y-98229219D01*
X225652631Y-98122630D01*
X225759220Y-98035155D01*
X225880826Y-97970155D01*
X226012777Y-97930128D01*
X226150000Y-97916613D01*
X226287224Y-97930128D01*
X226287224Y-97930128D01*
G37*
G36*
X241527224Y-97930128D02*
X241659175Y-97970155D01*
X241780781Y-98035155D01*
X241887370Y-98122630D01*
X241974845Y-98229219D01*
X242039845Y-98350825D01*
X242079872Y-98482777D01*
X242090000Y-98585611D01*
X242090000Y-98954390D01*
X242079872Y-99057224D01*
X242039845Y-99189175D01*
X241974845Y-99310781D01*
X241887369Y-99417370D01*
X241780780Y-99504845D01*
X241659174Y-99569845D01*
X241527223Y-99609872D01*
X241390000Y-99623387D01*
X241252776Y-99609872D01*
X241120825Y-99569845D01*
X240999219Y-99504845D01*
X240892630Y-99417369D01*
X240805155Y-99310780D01*
X240740155Y-99189174D01*
X240700128Y-99057223D01*
X240690000Y-98954389D01*
X240690000Y-98585610D01*
X240700128Y-98482776D01*
X240740155Y-98350825D01*
X240805155Y-98229219D01*
X240892631Y-98122630D01*
X240999220Y-98035155D01*
X241120826Y-97970155D01*
X241252777Y-97930128D01*
X241390000Y-97916613D01*
X241527224Y-97930128D01*
X241527224Y-97930128D01*
G37*
G36*
X254227224Y-97930128D02*
X254359175Y-97970155D01*
X254480781Y-98035155D01*
X254587370Y-98122630D01*
X254674845Y-98229219D01*
X254739845Y-98350825D01*
X254779872Y-98482777D01*
X254790000Y-98585611D01*
X254790000Y-98954390D01*
X254779872Y-99057224D01*
X254739845Y-99189175D01*
X254674845Y-99310781D01*
X254587369Y-99417370D01*
X254480780Y-99504845D01*
X254359174Y-99569845D01*
X254227223Y-99609872D01*
X254090000Y-99623387D01*
X253952776Y-99609872D01*
X253820825Y-99569845D01*
X253699219Y-99504845D01*
X253592630Y-99417369D01*
X253505155Y-99310780D01*
X253440155Y-99189174D01*
X253400128Y-99057223D01*
X253390000Y-98954389D01*
X253390000Y-98585610D01*
X253400128Y-98482776D01*
X253440155Y-98350825D01*
X253505155Y-98229219D01*
X253592631Y-98122630D01*
X253699220Y-98035155D01*
X253820826Y-97970155D01*
X253952777Y-97930128D01*
X254090000Y-97916613D01*
X254227224Y-97930128D01*
X254227224Y-97930128D01*
G37*
G36*
X233907224Y-97930128D02*
X234039175Y-97970155D01*
X234160781Y-98035155D01*
X234267370Y-98122630D01*
X234354845Y-98229219D01*
X234419845Y-98350825D01*
X234459872Y-98482777D01*
X234470000Y-98585611D01*
X234470000Y-98954390D01*
X234459872Y-99057224D01*
X234419845Y-99189175D01*
X234354845Y-99310781D01*
X234267369Y-99417370D01*
X234160780Y-99504845D01*
X234039174Y-99569845D01*
X233907223Y-99609872D01*
X233770000Y-99623387D01*
X233632776Y-99609872D01*
X233500825Y-99569845D01*
X233379219Y-99504845D01*
X233272630Y-99417369D01*
X233185155Y-99310780D01*
X233120155Y-99189174D01*
X233080128Y-99057223D01*
X233070000Y-98954389D01*
X233070000Y-98585610D01*
X233080128Y-98482776D01*
X233120155Y-98350825D01*
X233185155Y-98229219D01*
X233272631Y-98122630D01*
X233379220Y-98035155D01*
X233500826Y-97970155D01*
X233632777Y-97930128D01*
X233770000Y-97916613D01*
X233907224Y-97930128D01*
X233907224Y-97930128D01*
G37*
G36*
X209070000Y-99620000D02*
X207670000Y-99620000D01*
X207670000Y-97920000D01*
X209070000Y-97920000D01*
X209070000Y-99620000D01*
X209070000Y-99620000D01*
G37*
G36*
X203893778Y-96201879D02*
X204139466Y-96303646D01*
X204360578Y-96451389D01*
X204548611Y-96639422D01*
X204696354Y-96860534D01*
X204798121Y-97106222D01*
X204850000Y-97367035D01*
X204850000Y-97632965D01*
X204798121Y-97893778D01*
X204696354Y-98139466D01*
X204548611Y-98360578D01*
X204360578Y-98548611D01*
X204139466Y-98696354D01*
X203893778Y-98798121D01*
X203632965Y-98850000D01*
X203367035Y-98850000D01*
X203106222Y-98798121D01*
X202860534Y-98696354D01*
X202639422Y-98548611D01*
X202451389Y-98360578D01*
X202303646Y-98139466D01*
X202201879Y-97893778D01*
X202150000Y-97632965D01*
X202150000Y-97367035D01*
X202201879Y-97106222D01*
X202303646Y-96860534D01*
X202451389Y-96639422D01*
X202639422Y-96451389D01*
X202860534Y-96303646D01*
X203106222Y-96201879D01*
X203367035Y-96150000D01*
X203632965Y-96150000D01*
X203893778Y-96201879D01*
X203893778Y-96201879D01*
G37*
G36*
X261893778Y-96201879D02*
X262139466Y-96303646D01*
X262360578Y-96451389D01*
X262548611Y-96639422D01*
X262696354Y-96860534D01*
X262798121Y-97106222D01*
X262850000Y-97367035D01*
X262850000Y-97632965D01*
X262798121Y-97893778D01*
X262696354Y-98139466D01*
X262548611Y-98360578D01*
X262360578Y-98548611D01*
X262139466Y-98696354D01*
X261893778Y-98798121D01*
X261632965Y-98850000D01*
X261367035Y-98850000D01*
X261106222Y-98798121D01*
X260860534Y-98696354D01*
X260639422Y-98548611D01*
X260451389Y-98360578D01*
X260303646Y-98139466D01*
X260201879Y-97893778D01*
X260150000Y-97632965D01*
X260150000Y-97367035D01*
X260201879Y-97106222D01*
X260303646Y-96860534D01*
X260451389Y-96639422D01*
X260639422Y-96451389D01*
X260860534Y-96303646D01*
X261106222Y-96201879D01*
X261367035Y-96150000D01*
X261632965Y-96150000D01*
X261893778Y-96201879D01*
X261893778Y-96201879D01*
G37*
G36*
X256767224Y-95390128D02*
X256899175Y-95430155D01*
X257020781Y-95495155D01*
X257127370Y-95582630D01*
X257214845Y-95689219D01*
X257279845Y-95810825D01*
X257319872Y-95942777D01*
X257330000Y-96045611D01*
X257330000Y-96414390D01*
X257319872Y-96517224D01*
X257279845Y-96649175D01*
X257214845Y-96770781D01*
X257127369Y-96877370D01*
X257020780Y-96964845D01*
X256899174Y-97029845D01*
X256767223Y-97069872D01*
X256630000Y-97083387D01*
X256492776Y-97069872D01*
X256360825Y-97029845D01*
X256239219Y-96964845D01*
X256132630Y-96877369D01*
X256045155Y-96770780D01*
X255980155Y-96649174D01*
X255940128Y-96517223D01*
X255930000Y-96414389D01*
X255930000Y-96045610D01*
X255940128Y-95942776D01*
X255980155Y-95810825D01*
X256045155Y-95689219D01*
X256132631Y-95582630D01*
X256239220Y-95495155D01*
X256360826Y-95430155D01*
X256492777Y-95390128D01*
X256630000Y-95376613D01*
X256767224Y-95390128D01*
X256767224Y-95390128D01*
G37*
G36*
X218667224Y-95390128D02*
X218799175Y-95430155D01*
X218920781Y-95495155D01*
X219027370Y-95582630D01*
X219114845Y-95689219D01*
X219179845Y-95810825D01*
X219219872Y-95942777D01*
X219230000Y-96045611D01*
X219230000Y-96414390D01*
X219219872Y-96517224D01*
X219179845Y-96649175D01*
X219114845Y-96770781D01*
X219027369Y-96877370D01*
X218920780Y-96964845D01*
X218799174Y-97029845D01*
X218667223Y-97069872D01*
X218530000Y-97083387D01*
X218392776Y-97069872D01*
X218260825Y-97029845D01*
X218139219Y-96964845D01*
X218032630Y-96877369D01*
X217945155Y-96770780D01*
X217880155Y-96649174D01*
X217840128Y-96517223D01*
X217830000Y-96414389D01*
X217830000Y-96045610D01*
X217840128Y-95942776D01*
X217880155Y-95810825D01*
X217945155Y-95689219D01*
X218032631Y-95582630D01*
X218139220Y-95495155D01*
X218260826Y-95430155D01*
X218392777Y-95390128D01*
X218530000Y-95376613D01*
X218667224Y-95390128D01*
X218667224Y-95390128D01*
G37*
G36*
X216127224Y-95390128D02*
X216259175Y-95430155D01*
X216380781Y-95495155D01*
X216487370Y-95582630D01*
X216574845Y-95689219D01*
X216639845Y-95810825D01*
X216679872Y-95942777D01*
X216690000Y-96045611D01*
X216690000Y-96414390D01*
X216679872Y-96517224D01*
X216639845Y-96649175D01*
X216574845Y-96770781D01*
X216487369Y-96877370D01*
X216380780Y-96964845D01*
X216259174Y-97029845D01*
X216127223Y-97069872D01*
X215990000Y-97083387D01*
X215852776Y-97069872D01*
X215720825Y-97029845D01*
X215599219Y-96964845D01*
X215492630Y-96877369D01*
X215405155Y-96770780D01*
X215340155Y-96649174D01*
X215300128Y-96517223D01*
X215290000Y-96414389D01*
X215290000Y-96045610D01*
X215300128Y-95942776D01*
X215340155Y-95810825D01*
X215405155Y-95689219D01*
X215492631Y-95582630D01*
X215599220Y-95495155D01*
X215720826Y-95430155D01*
X215852777Y-95390128D01*
X215990000Y-95376613D01*
X216127224Y-95390128D01*
X216127224Y-95390128D01*
G37*
G36*
X213587224Y-95390128D02*
X213719175Y-95430155D01*
X213840781Y-95495155D01*
X213947370Y-95582630D01*
X214034845Y-95689219D01*
X214099845Y-95810825D01*
X214139872Y-95942777D01*
X214150000Y-96045611D01*
X214150000Y-96414390D01*
X214139872Y-96517224D01*
X214099845Y-96649175D01*
X214034845Y-96770781D01*
X213947369Y-96877370D01*
X213840780Y-96964845D01*
X213719174Y-97029845D01*
X213587223Y-97069872D01*
X213450000Y-97083387D01*
X213312776Y-97069872D01*
X213180825Y-97029845D01*
X213059219Y-96964845D01*
X212952630Y-96877369D01*
X212865155Y-96770780D01*
X212800155Y-96649174D01*
X212760128Y-96517223D01*
X212750000Y-96414389D01*
X212750000Y-96045610D01*
X212760128Y-95942776D01*
X212800155Y-95810825D01*
X212865155Y-95689219D01*
X212952631Y-95582630D01*
X213059220Y-95495155D01*
X213180826Y-95430155D01*
X213312777Y-95390128D01*
X213450000Y-95376613D01*
X213587224Y-95390128D01*
X213587224Y-95390128D01*
G37*
G36*
X211047224Y-95390128D02*
X211179175Y-95430155D01*
X211300781Y-95495155D01*
X211407370Y-95582630D01*
X211494845Y-95689219D01*
X211559845Y-95810825D01*
X211599872Y-95942777D01*
X211610000Y-96045611D01*
X211610000Y-96414390D01*
X211599872Y-96517224D01*
X211559845Y-96649175D01*
X211494845Y-96770781D01*
X211407369Y-96877370D01*
X211300780Y-96964845D01*
X211179174Y-97029845D01*
X211047223Y-97069872D01*
X210910000Y-97083387D01*
X210772776Y-97069872D01*
X210640825Y-97029845D01*
X210519219Y-96964845D01*
X210412630Y-96877369D01*
X210325155Y-96770780D01*
X210260155Y-96649174D01*
X210220128Y-96517223D01*
X210210000Y-96414389D01*
X210210000Y-96045610D01*
X210220128Y-95942776D01*
X210260155Y-95810825D01*
X210325155Y-95689219D01*
X210412631Y-95582630D01*
X210519220Y-95495155D01*
X210640826Y-95430155D01*
X210772777Y-95390128D01*
X210910000Y-95376613D01*
X211047224Y-95390128D01*
X211047224Y-95390128D01*
G37*
G36*
X208507224Y-95390128D02*
X208639175Y-95430155D01*
X208760781Y-95495155D01*
X208867370Y-95582630D01*
X208954845Y-95689219D01*
X209019845Y-95810825D01*
X209059872Y-95942777D01*
X209070000Y-96045611D01*
X209070000Y-96414390D01*
X209059872Y-96517224D01*
X209019845Y-96649175D01*
X208954845Y-96770781D01*
X208867369Y-96877370D01*
X208760780Y-96964845D01*
X208639174Y-97029845D01*
X208507223Y-97069872D01*
X208370000Y-97083387D01*
X208232776Y-97069872D01*
X208100825Y-97029845D01*
X207979219Y-96964845D01*
X207872630Y-96877369D01*
X207785155Y-96770780D01*
X207720155Y-96649174D01*
X207680128Y-96517223D01*
X207670000Y-96414389D01*
X207670000Y-96045610D01*
X207680128Y-95942776D01*
X207720155Y-95810825D01*
X207785155Y-95689219D01*
X207872631Y-95582630D01*
X207979220Y-95495155D01*
X208100826Y-95430155D01*
X208232777Y-95390128D01*
X208370000Y-95376613D01*
X208507224Y-95390128D01*
X208507224Y-95390128D01*
G37*
G36*
X254227224Y-95390128D02*
X254359175Y-95430155D01*
X254480781Y-95495155D01*
X254587370Y-95582630D01*
X254674845Y-95689219D01*
X254739845Y-95810825D01*
X254779872Y-95942777D01*
X254790000Y-96045611D01*
X254790000Y-96414390D01*
X254779872Y-96517224D01*
X254739845Y-96649175D01*
X254674845Y-96770781D01*
X254587369Y-96877370D01*
X254480780Y-96964845D01*
X254359174Y-97029845D01*
X254227223Y-97069872D01*
X254090000Y-97083387D01*
X253952776Y-97069872D01*
X253820825Y-97029845D01*
X253699219Y-96964845D01*
X253592630Y-96877369D01*
X253505155Y-96770780D01*
X253440155Y-96649174D01*
X253400128Y-96517223D01*
X253390000Y-96414389D01*
X253390000Y-96045610D01*
X253400128Y-95942776D01*
X253440155Y-95810825D01*
X253505155Y-95689219D01*
X253592631Y-95582630D01*
X253699220Y-95495155D01*
X253820826Y-95430155D01*
X253952777Y-95390128D01*
X254090000Y-95376613D01*
X254227224Y-95390128D01*
X254227224Y-95390128D01*
G37*
G36*
X223747224Y-95390128D02*
X223879175Y-95430155D01*
X224000781Y-95495155D01*
X224107370Y-95582630D01*
X224194845Y-95689219D01*
X224259845Y-95810825D01*
X224299872Y-95942777D01*
X224310000Y-96045611D01*
X224310000Y-96414390D01*
X224299872Y-96517224D01*
X224259845Y-96649175D01*
X224194845Y-96770781D01*
X224107369Y-96877370D01*
X224000780Y-96964845D01*
X223879174Y-97029845D01*
X223747223Y-97069872D01*
X223610000Y-97083387D01*
X223472776Y-97069872D01*
X223340825Y-97029845D01*
X223219219Y-96964845D01*
X223112630Y-96877369D01*
X223025155Y-96770780D01*
X222960155Y-96649174D01*
X222920128Y-96517223D01*
X222910000Y-96414389D01*
X222910000Y-96045610D01*
X222920128Y-95942776D01*
X222960155Y-95810825D01*
X223025155Y-95689219D01*
X223112631Y-95582630D01*
X223219220Y-95495155D01*
X223340826Y-95430155D01*
X223472777Y-95390128D01*
X223610000Y-95376613D01*
X223747224Y-95390128D01*
X223747224Y-95390128D01*
G37*
G36*
X221207224Y-95390128D02*
X221339175Y-95430155D01*
X221460781Y-95495155D01*
X221567370Y-95582630D01*
X221654845Y-95689219D01*
X221719845Y-95810825D01*
X221759872Y-95942777D01*
X221770000Y-96045611D01*
X221770000Y-96414390D01*
X221759872Y-96517224D01*
X221719845Y-96649175D01*
X221654845Y-96770781D01*
X221567369Y-96877370D01*
X221460780Y-96964845D01*
X221339174Y-97029845D01*
X221207223Y-97069872D01*
X221070000Y-97083387D01*
X220932776Y-97069872D01*
X220800825Y-97029845D01*
X220679219Y-96964845D01*
X220572630Y-96877369D01*
X220485155Y-96770780D01*
X220420155Y-96649174D01*
X220380128Y-96517223D01*
X220370000Y-96414389D01*
X220370000Y-96045610D01*
X220380128Y-95942776D01*
X220420155Y-95810825D01*
X220485155Y-95689219D01*
X220572631Y-95582630D01*
X220679220Y-95495155D01*
X220800826Y-95430155D01*
X220932777Y-95390128D01*
X221070000Y-95376613D01*
X221207224Y-95390128D01*
X221207224Y-95390128D01*
G37*
G36*
X236447224Y-95390128D02*
X236579175Y-95430155D01*
X236700781Y-95495155D01*
X236807370Y-95582630D01*
X236894845Y-95689219D01*
X236959845Y-95810825D01*
X236999872Y-95942777D01*
X237010000Y-96045611D01*
X237010000Y-96414390D01*
X236999872Y-96517224D01*
X236959845Y-96649175D01*
X236894845Y-96770781D01*
X236807369Y-96877370D01*
X236700780Y-96964845D01*
X236579174Y-97029845D01*
X236447223Y-97069872D01*
X236310000Y-97083387D01*
X236172776Y-97069872D01*
X236040825Y-97029845D01*
X235919219Y-96964845D01*
X235812630Y-96877369D01*
X235725155Y-96770780D01*
X235660155Y-96649174D01*
X235620128Y-96517223D01*
X235610000Y-96414389D01*
X235610000Y-96045610D01*
X235620128Y-95942776D01*
X235660155Y-95810825D01*
X235725155Y-95689219D01*
X235812631Y-95582630D01*
X235919220Y-95495155D01*
X236040826Y-95430155D01*
X236172777Y-95390128D01*
X236310000Y-95376613D01*
X236447224Y-95390128D01*
X236447224Y-95390128D01*
G37*
G36*
X241527224Y-95390128D02*
X241659175Y-95430155D01*
X241780781Y-95495155D01*
X241887370Y-95582630D01*
X241974845Y-95689219D01*
X242039845Y-95810825D01*
X242079872Y-95942777D01*
X242090000Y-96045611D01*
X242090000Y-96414390D01*
X242079872Y-96517224D01*
X242039845Y-96649175D01*
X241974845Y-96770781D01*
X241887369Y-96877370D01*
X241780780Y-96964845D01*
X241659174Y-97029845D01*
X241527223Y-97069872D01*
X241390000Y-97083387D01*
X241252776Y-97069872D01*
X241120825Y-97029845D01*
X240999219Y-96964845D01*
X240892630Y-96877369D01*
X240805155Y-96770780D01*
X240740155Y-96649174D01*
X240700128Y-96517223D01*
X240690000Y-96414389D01*
X240690000Y-96045610D01*
X240700128Y-95942776D01*
X240740155Y-95810825D01*
X240805155Y-95689219D01*
X240892631Y-95582630D01*
X240999220Y-95495155D01*
X241120826Y-95430155D01*
X241252777Y-95390128D01*
X241390000Y-95376613D01*
X241527224Y-95390128D01*
X241527224Y-95390128D01*
G37*
G36*
X233907224Y-95390128D02*
X234039175Y-95430155D01*
X234160781Y-95495155D01*
X234267370Y-95582630D01*
X234354845Y-95689219D01*
X234419845Y-95810825D01*
X234459872Y-95942777D01*
X234470000Y-96045611D01*
X234470000Y-96414390D01*
X234459872Y-96517224D01*
X234419845Y-96649175D01*
X234354845Y-96770781D01*
X234267369Y-96877370D01*
X234160780Y-96964845D01*
X234039174Y-97029845D01*
X233907223Y-97069872D01*
X233770000Y-97083387D01*
X233632776Y-97069872D01*
X233500825Y-97029845D01*
X233379219Y-96964845D01*
X233272630Y-96877369D01*
X233185155Y-96770780D01*
X233120155Y-96649174D01*
X233080128Y-96517223D01*
X233070000Y-96414389D01*
X233070000Y-96045610D01*
X233080128Y-95942776D01*
X233120155Y-95810825D01*
X233185155Y-95689219D01*
X233272631Y-95582630D01*
X233379220Y-95495155D01*
X233500826Y-95430155D01*
X233632777Y-95390128D01*
X233770000Y-95376613D01*
X233907224Y-95390128D01*
X233907224Y-95390128D01*
G37*
G36*
X244067224Y-95390128D02*
X244199175Y-95430155D01*
X244320781Y-95495155D01*
X244427370Y-95582630D01*
X244514845Y-95689219D01*
X244579845Y-95810825D01*
X244619872Y-95942777D01*
X244630000Y-96045611D01*
X244630000Y-96414390D01*
X244619872Y-96517224D01*
X244579845Y-96649175D01*
X244514845Y-96770781D01*
X244427369Y-96877370D01*
X244320780Y-96964845D01*
X244199174Y-97029845D01*
X244067223Y-97069872D01*
X243930000Y-97083387D01*
X243792776Y-97069872D01*
X243660825Y-97029845D01*
X243539219Y-96964845D01*
X243432630Y-96877369D01*
X243345155Y-96770780D01*
X243280155Y-96649174D01*
X243240128Y-96517223D01*
X243230000Y-96414389D01*
X243230000Y-96045610D01*
X243240128Y-95942776D01*
X243280155Y-95810825D01*
X243345155Y-95689219D01*
X243432631Y-95582630D01*
X243539220Y-95495155D01*
X243660826Y-95430155D01*
X243792777Y-95390128D01*
X243930000Y-95376613D01*
X244067224Y-95390128D01*
X244067224Y-95390128D01*
G37*
G36*
X231367224Y-95390128D02*
X231499175Y-95430155D01*
X231620781Y-95495155D01*
X231727370Y-95582630D01*
X231814845Y-95689219D01*
X231879845Y-95810825D01*
X231919872Y-95942777D01*
X231930000Y-96045611D01*
X231930000Y-96414390D01*
X231919872Y-96517224D01*
X231879845Y-96649175D01*
X231814845Y-96770781D01*
X231727369Y-96877370D01*
X231620780Y-96964845D01*
X231499174Y-97029845D01*
X231367223Y-97069872D01*
X231230000Y-97083387D01*
X231092776Y-97069872D01*
X230960825Y-97029845D01*
X230839219Y-96964845D01*
X230732630Y-96877369D01*
X230645155Y-96770780D01*
X230580155Y-96649174D01*
X230540128Y-96517223D01*
X230530000Y-96414389D01*
X230530000Y-96045610D01*
X230540128Y-95942776D01*
X230580155Y-95810825D01*
X230645155Y-95689219D01*
X230732631Y-95582630D01*
X230839220Y-95495155D01*
X230960826Y-95430155D01*
X231092777Y-95390128D01*
X231230000Y-95376613D01*
X231367224Y-95390128D01*
X231367224Y-95390128D01*
G37*
G36*
X238987224Y-95390128D02*
X239119175Y-95430155D01*
X239240781Y-95495155D01*
X239347370Y-95582630D01*
X239434845Y-95689219D01*
X239499845Y-95810825D01*
X239539872Y-95942777D01*
X239550000Y-96045611D01*
X239550000Y-96414390D01*
X239539872Y-96517224D01*
X239499845Y-96649175D01*
X239434845Y-96770781D01*
X239347369Y-96877370D01*
X239240780Y-96964845D01*
X239119174Y-97029845D01*
X238987223Y-97069872D01*
X238850000Y-97083387D01*
X238712776Y-97069872D01*
X238580825Y-97029845D01*
X238459219Y-96964845D01*
X238352630Y-96877369D01*
X238265155Y-96770780D01*
X238200155Y-96649174D01*
X238160128Y-96517223D01*
X238150000Y-96414389D01*
X238150000Y-96045610D01*
X238160128Y-95942776D01*
X238200155Y-95810825D01*
X238265155Y-95689219D01*
X238352631Y-95582630D01*
X238459220Y-95495155D01*
X238580826Y-95430155D01*
X238712777Y-95390128D01*
X238850000Y-95376613D01*
X238987224Y-95390128D01*
X238987224Y-95390128D01*
G37*
G36*
X228827224Y-95390128D02*
X228959175Y-95430155D01*
X229080781Y-95495155D01*
X229187370Y-95582630D01*
X229274845Y-95689219D01*
X229339845Y-95810825D01*
X229379872Y-95942777D01*
X229390000Y-96045611D01*
X229390000Y-96414390D01*
X229379872Y-96517224D01*
X229339845Y-96649175D01*
X229274845Y-96770781D01*
X229187369Y-96877370D01*
X229080780Y-96964845D01*
X228959174Y-97029845D01*
X228827223Y-97069872D01*
X228690000Y-97083387D01*
X228552776Y-97069872D01*
X228420825Y-97029845D01*
X228299219Y-96964845D01*
X228192630Y-96877369D01*
X228105155Y-96770780D01*
X228040155Y-96649174D01*
X228000128Y-96517223D01*
X227990000Y-96414389D01*
X227990000Y-96045610D01*
X228000128Y-95942776D01*
X228040155Y-95810825D01*
X228105155Y-95689219D01*
X228192631Y-95582630D01*
X228299220Y-95495155D01*
X228420826Y-95430155D01*
X228552777Y-95390128D01*
X228690000Y-95376613D01*
X228827224Y-95390128D01*
X228827224Y-95390128D01*
G37*
G36*
X249147224Y-95390128D02*
X249279175Y-95430155D01*
X249400781Y-95495155D01*
X249507370Y-95582630D01*
X249594845Y-95689219D01*
X249659845Y-95810825D01*
X249699872Y-95942777D01*
X249710000Y-96045611D01*
X249710000Y-96414390D01*
X249699872Y-96517224D01*
X249659845Y-96649175D01*
X249594845Y-96770781D01*
X249507369Y-96877370D01*
X249400780Y-96964845D01*
X249279174Y-97029845D01*
X249147223Y-97069872D01*
X249010000Y-97083387D01*
X248872776Y-97069872D01*
X248740825Y-97029845D01*
X248619219Y-96964845D01*
X248512630Y-96877369D01*
X248425155Y-96770780D01*
X248360155Y-96649174D01*
X248320128Y-96517223D01*
X248310000Y-96414389D01*
X248310000Y-96045610D01*
X248320128Y-95942776D01*
X248360155Y-95810825D01*
X248425155Y-95689219D01*
X248512631Y-95582630D01*
X248619220Y-95495155D01*
X248740826Y-95430155D01*
X248872777Y-95390128D01*
X249010000Y-95376613D01*
X249147224Y-95390128D01*
X249147224Y-95390128D01*
G37*
G36*
X226287224Y-95390128D02*
X226419175Y-95430155D01*
X226540781Y-95495155D01*
X226647370Y-95582630D01*
X226734845Y-95689219D01*
X226799845Y-95810825D01*
X226839872Y-95942777D01*
X226850000Y-96045611D01*
X226850000Y-96414390D01*
X226839872Y-96517224D01*
X226799845Y-96649175D01*
X226734845Y-96770781D01*
X226647369Y-96877370D01*
X226540780Y-96964845D01*
X226419174Y-97029845D01*
X226287223Y-97069872D01*
X226150000Y-97083387D01*
X226012776Y-97069872D01*
X225880825Y-97029845D01*
X225759219Y-96964845D01*
X225652630Y-96877369D01*
X225565155Y-96770780D01*
X225500155Y-96649174D01*
X225460128Y-96517223D01*
X225450000Y-96414389D01*
X225450000Y-96045610D01*
X225460128Y-95942776D01*
X225500155Y-95810825D01*
X225565155Y-95689219D01*
X225652631Y-95582630D01*
X225759220Y-95495155D01*
X225880826Y-95430155D01*
X226012777Y-95390128D01*
X226150000Y-95376613D01*
X226287224Y-95390128D01*
X226287224Y-95390128D01*
G37*
G36*
X251687224Y-95390128D02*
X251819175Y-95430155D01*
X251940781Y-95495155D01*
X252047370Y-95582630D01*
X252134845Y-95689219D01*
X252199845Y-95810825D01*
X252239872Y-95942777D01*
X252250000Y-96045611D01*
X252250000Y-96414390D01*
X252239872Y-96517224D01*
X252199845Y-96649175D01*
X252134845Y-96770781D01*
X252047369Y-96877370D01*
X251940780Y-96964845D01*
X251819174Y-97029845D01*
X251687223Y-97069872D01*
X251550000Y-97083387D01*
X251412776Y-97069872D01*
X251280825Y-97029845D01*
X251159219Y-96964845D01*
X251052630Y-96877369D01*
X250965155Y-96770780D01*
X250900155Y-96649174D01*
X250860128Y-96517223D01*
X250850000Y-96414389D01*
X250850000Y-96045610D01*
X250860128Y-95942776D01*
X250900155Y-95810825D01*
X250965155Y-95689219D01*
X251052631Y-95582630D01*
X251159220Y-95495155D01*
X251280826Y-95430155D01*
X251412777Y-95390128D01*
X251550000Y-95376613D01*
X251687224Y-95390128D01*
X251687224Y-95390128D01*
G37*
G36*
X246607224Y-95390128D02*
X246739175Y-95430155D01*
X246860781Y-95495155D01*
X246967370Y-95582630D01*
X247054845Y-95689219D01*
X247119845Y-95810825D01*
X247159872Y-95942777D01*
X247170000Y-96045611D01*
X247170000Y-96414390D01*
X247159872Y-96517224D01*
X247119845Y-96649175D01*
X247054845Y-96770781D01*
X246967369Y-96877370D01*
X246860780Y-96964845D01*
X246739174Y-97029845D01*
X246607223Y-97069872D01*
X246470000Y-97083387D01*
X246332776Y-97069872D01*
X246200825Y-97029845D01*
X246079219Y-96964845D01*
X245972630Y-96877369D01*
X245885155Y-96770780D01*
X245820155Y-96649174D01*
X245780128Y-96517223D01*
X245770000Y-96414389D01*
X245770000Y-96045610D01*
X245780128Y-95942776D01*
X245820155Y-95810825D01*
X245885155Y-95689219D01*
X245972631Y-95582630D01*
X246079220Y-95495155D01*
X246200826Y-95430155D01*
X246332777Y-95390128D01*
X246470000Y-95376613D01*
X246607224Y-95390128D01*
X246607224Y-95390128D01*
G37*
M02*
